<svg xmlns="http://www.w3.org/2000/svg" viewBox="0 0 130 150"><defs><style>.cls-1{fill:#363636}</style></defs><path id="Path_4915" data-name="Path 4915" class="cls-1" d="M24.67-.205v-39.669h-7.663v15.934h-6.368v-15.934H2.976V-.205h7.663v-16.6h6.368v16.6zM54.188-20.04c0-5.349.216-12.536-2.86-16.324a10.047 10.047 0 0 0-8.472-3.956 9.831 9.831 0 0 0-8.364 3.956c-3.076 3.789-2.86 10.976-2.86 16.324S31.415-7.5 34.491-3.715A9.831 9.831 0 0 0 42.856.24a10.047 10.047 0 0 0 8.472-3.956c3.072-3.784 2.86-10.975 2.86-16.324zm-7.663 0c0 4.791-.108 9.75-1.025 11.589a2.709 2.709 0 0 1-2.644 1.56 2.553 2.553 0 0 1-2.536-1.56c-.917-1.839-1.025-6.8-1.025-11.589s.108-9.75 1.025-11.589a2.553 2.553 0 0 1 2.536-1.56 2.709 2.709 0 0 1 2.644 1.56c.917 1.839 1.025 6.798 1.025 11.589zm54.936-19.834h-8.418L89.427-11.85l-4.749-28.024H76.26L71.511-11.85 67.9-39.874h-8.423l8.04 39.669H75.5l4.965-28.08 4.969 28.08h7.986zM21.7 21.977v-7.131H1.087v7.131h6.476v32.537h7.663V21.977zm27.9 32.537V14.846h-7.662V30.78h-6.367V14.846h-7.663v39.668h7.663v-16.6h6.368v16.6zm15.758 0V14.846H57.7v39.668zM93.906 43.2c0-7.187-1.4-9.472-6.26-11.477l-4.8-2.006c-2.213-.947-2.644-1.671-2.644-4.179a4.583 4.583 0 0 1 .648-2.841 2.545 2.545 0 0 1 2.213-1.059 2.45 2.45 0 0 1 2.213 1 6.125 6.125 0 0 1 .648 3.566h7.663c0-4.011-.863-7.187-2.968-9.193-1.673-1.616-4.155-2.507-7.555-2.507a10.289 10.289 0 0 0-7.069 2.507c-2.32 2.061-3.454 5.126-3.454 8.8 0 6.184 1.619 8.3 5.5 9.973l4.859 2.072c2.752 1.17 3.346 1.839 3.346 5.627a5.307 5.307 0 0 1-.756 3.343 2.735 2.735 0 0 1-2.428 1 3 3 0 0 1-2.374-.947c-.7-.836-.809-2.006-.809-3.621h-7.667c0 4.067.648 6.853 2.536 8.8 1.727 1.783 4.533 2.9 8.311 2.9a11.737 11.737 0 0 0 8.364-2.953C93.42 50 93.906 47.216 93.906 43.2zm-51.7 26.361H33.79L30.174 97.59l-4.749-28.025h-8.418L12.258 97.59 8.642 69.565H.224l8.041 39.669h7.987l4.965-28.08 4.965 28.08h7.987zM70.054 89.4c0-5.349.216-12.536-2.86-16.324a10.047 10.047 0 0 0-8.472-3.956 9.831 9.831 0 0 0-8.364 3.956C47.281 76.864 47.5 84.051 47.5 89.4s-.216 12.536 2.86 16.324a9.831 9.831 0 0 0 8.364 3.956 10.047 10.047 0 0 0 8.472-3.956c3.074-3.788 2.858-10.976 2.858-16.324zm-7.663 0c0 4.791-.108 9.75-1.025 11.589a2.709 2.709 0 0 1-2.644 1.56 2.553 2.553 0 0 1-2.536-1.56c-.917-1.839-1.025-6.8-1.025-11.589s.108-9.75 1.025-11.589a2.553 2.553 0 0 1 2.536-1.56 2.709 2.709 0 0 1 2.644 1.56c.917 1.839 1.025 6.797 1.025 11.589zM99.9 109.234l-5.612-17.16c3.724-2.4 4.371-6.184 4.371-10.419 0-7.577-2.32-12.09-10.685-12.09H77.015v39.669h7.663V93.8h2.536l4.695 15.433zM91 81.655c0 2.284-.162 5.014-3.076 5.014h-3.246V76.7h3.238c2.914 0 3.076 2.671 3.076 4.955zm39.232 27.579l-8.9-23.177 7.663-16.492h-7.675l-7.285 17.049V69.565h-7.663v39.669h7.663V100.1l2.482-5.349 5.5 14.486z" transform="translate(-.224 40.32)"/></svg>