<svg xmlns="http://www.w3.org/2000/svg" viewBox="0 0 24 24">
  <defs>
    <style>
      .cls-1 {
        fill: #ffd86e;
      }

      .cls-2 {
        fill: none;
      }
    </style>
  </defs>
  <g id="linux" transform="translate(-973 -427)">
    <g id="Group_2466" data-name="Group 2466" transform="translate(899.109 428)">
      <path id="Path_4818" data-name="Path 4818" class="cls-1" d="M86.4,0H86c-3.9.3-2.9,4.4-2.9,5.8a5.308,5.308,0,0,1-1,2.8,12.987,12.987,0,0,0-2.5,4.2,4.594,4.594,0,0,0-.3,2.3l-.1.1c-.2.2-.4.6-.6.8s-.4.2-.7.4a1.162,1.162,0,0,0-.8.6.749.749,0,0,0-.1.5.749.749,0,0,0,.1.5,1.352,1.352,0,0,1,0,.9c-.2.6-.3,1.1-.1,1.4a2.034,2.034,0,0,0,.9.6,8.828,8.828,0,0,1,2.6.6,3.608,3.608,0,0,0,2.4.4A1.441,1.441,0,0,0,84,21c.5,0,1.1-.2,2.1-.3.6-.1,1.4.2,2.4.2,0,.1.1.2.1.3h0a1.856,1.856,0,0,0,1.7,1A3.511,3.511,0,0,0,92.4,21a7.442,7.442,0,0,1,2.2-1.4c.3-.2.6-.4.6-.8s-.2-.7-.7-1.3v-.1h0c-.2-.2-.2-.5-.3-.9a1.905,1.905,0,0,0-.5-1h0c-.1,0-.1-.1-.2-.1s-.1-.1-.2-.1a4.957,4.957,0,0,0-.2-3.4,10.961,10.961,0,0,0-2-3.2,4.954,4.954,0,0,1-1.4-3.1c0-1.9.2-5.6-3.3-5.6Zm.5,3.2h0a.764.764,0,0,1,.5.2,1,1,0,0,1,.4.5.735.735,0,0,1,.2.6v0h0a1.268,1.268,0,0,1-.1.6c0,.1-.1.2-.2.3h-.1c-.1,0-.2-.1-.3-.1s-.1,0-.2-.1c0-.1.1-.1.2-.2,0-.1.1-.2.1-.4h0a.756.756,0,0,0-.1-.4c0-.1-.1-.2-.2-.3a.31.31,0,0,0-.2-.1h0c-.1,0-.2,0-.2.1-.1.1-.2.2-.2.3s-.1.2-.1.4h0v.2c-.2-.1-.4-.1-.6-.2V4.4h0a1.7,1.7,0,0,1,.1-.7,1,1,0,0,1,.4-.5Zm-2.7,0h0c.2,0,.3,0,.4.1s.2.3.3.4a1.854,1.854,0,0,1,.2.7h0v.3H85c-.1.1-.3.1-.4.2V4.7h0a.367.367,0,0,0-.1-.3.215.215,0,0,0-.2-.2.349.349,0,0,0-.2-.1h0c-.1,0-.1,0-.2.1a.31.31,0,0,0-.1.2v.3h0a.367.367,0,0,0,.1.3.215.215,0,0,0,.2.2h0c-.1.1-.1.1-.2.1l-.1.1a1.381,1.381,0,0,1-.3-.4,1.268,1.268,0,0,1-.1-.6,1.268,1.268,0,0,1,.1-.6,1.332,1.332,0,0,1,.3-.5c.1,0,.3-.1.4-.1Zm1.3,1.6a1.862,1.862,0,0,1,1.1.4,5.133,5.133,0,0,0,1,.4h0A.781.781,0,0,1,88,6V5.8a.3.3,0,0,1,0,.4A1.7,1.7,0,0,1,87,7h0c-.2.1-.5.3-.7.4-.3.1-.5.3-.9.2a.6.6,0,0,1-.4-.1c-.1-.1-.2-.1-.3-.2-.2-.1-.3-.3-.6-.4h0a.953.953,0,0,1-.6-.7c-.1-.2,0-.4.2-.6a1.38,1.38,0,0,0,.4-.3c.1-.1.1-.1.2-.1h0c.1,0,.4-.2.7-.3a.9.9,0,0,1,.5-.1Zm2.5,2a19.475,19.475,0,0,0,1.6,4.1,7.917,7.917,0,0,1,1,2.8,1.087,1.087,0,0,1,.5.1,3.62,3.62,0,0,0-1-3.6c-.2-.2-.2-.3-.1-.3a5.071,5.071,0,0,1,1.5,2.5,3.788,3.788,0,0,1,0,1.5c.1,0,.1.1.2.1.9.5,1.3.9,1.1,1.4h-.2c.1-.4-.2-.8-1-1.1-.8-.4-1.5-.3-1.6.4v.1c-.1,0-.1,0-.2.1a1.442,1.442,0,0,0-.7,1.1,8.807,8.807,0,0,0-.2,1.7h0a6.985,6.985,0,0,1-.3,1.2,4.205,4.205,0,0,1-4.9.3,1.756,1.756,0,0,0-.4-.5l-.3-.3c.2,0,.3,0,.4-.1l.3-.3c.1-.2,0-.6-.3-1.1a7.911,7.911,0,0,0-1.6-1.4,2.666,2.666,0,0,1-1.1-1.3,2.556,2.556,0,0,1,0-1.5,7.281,7.281,0,0,1,1.2-2.5c.1-.1,0,.1-.4.9-.4.7-1,2.3-.1,3.5A5.834,5.834,0,0,1,82,12c.5-1.2,1.6-3.2,1.7-4.8a1.439,1.439,0,0,1,.3.2c.2.1.3.3.5.4a2.388,2.388,0,0,0,.9.2h.1a2,2,0,0,0,.9-.2,4.348,4.348,0,0,0,.7-.4h0a2.034,2.034,0,0,0,.9-.6ZM90,15a1.34,1.34,0,0,0,.8,1.3,1.99,1.99,0,0,0,1.6-.7h.2a1.2,1.2,0,0,1,.8.2h0a2.01,2.01,0,0,1,.4.8,1.777,1.777,0,0,0,.4,1c.4.5.6.8.6,1h0c0,.2-.2.4-.5.5A11.816,11.816,0,0,0,92,20.5a3.161,3.161,0,0,1-1.9,1.1,1.419,1.419,0,0,1-1.4-.8h0a2.274,2.274,0,0,1,.1-1.6,5.929,5.929,0,0,0,.4-1.7,7.931,7.931,0,0,1,.2-1.7A1.555,1.555,0,0,1,90,15Zm-9.9,0h.2a1.849,1.849,0,0,1,.9.7l.8,1.5h0a7.165,7.165,0,0,0,1.1,1.5,2.626,2.626,0,0,1,.7,1.4h0c-.1.7-.4,1.1-1,1.2a3.707,3.707,0,0,1-2.2-.4,9.59,9.59,0,0,0-2.6-.6c-.3-.1-.6-.2-.7-.4a1.48,1.48,0,0,1,.1-1.1h0a3.352,3.352,0,0,0,0-1,1.352,1.352,0,0,1,0-.9c.1-.3.4-.4.6-.5a2.01,2.01,0,0,0,.8-.4h0c.2-.2.4-.6.6-.8.3,0,.4-.2.7-.2Zm6.6-8.3a3.36,3.36,0,0,1-1.4.5,2.144,2.144,0,0,1-1.2-.4c-.1-.1-.3-.2-.3-.3a.219.219,0,0,1-.1-.3c.1,0,.1.1.2.2l.3.3a1.82,1.82,0,0,0,1.1.4,5.732,5.732,0,0,0,1.4-.4,1.205,1.205,0,0,1,.5-.5c.1-.1.1-.2.3-.2.1,0,0,.1-.1.3a4.348,4.348,0,0,0-.7.4Zm-1-1.5h0a.367.367,0,0,1,.3-.1.1.1,0,0,1,.1.1l-.1.1c-.1,0-.1,0-.1-.1-.1.1-.2.1-.2,0Zm-.5,0c0,.1-.1,0-.2.1l-.1.1a.1.1,0,0,1,0-.2c.1,0,.2-.1.3,0Zm0,0"/>
    </g>
    <rect id="Rectangle_3196" data-name="Rectangle 3196" class="cls-2" width="24" height="24" transform="translate(973 427)"/>
  </g>
</svg>
