<svg xmlns="http://www.w3.org/2000/svg" viewBox="-1366 1789 180 50">
  <defs>
    <style>
      .cls-1 {
        fill: none;
      }

      .cls-2 {
        fill: #de5959;
      }
    </style>
  </defs>
  <g id="_09_Logo_gate" data-name="09_Logo_gate" transform="translate(-2130 -3651)">
    <rect id="Rectangle_3065" data-name="Rectangle 3065" class="cls-1" width="180" height="50" transform="translate(764 5440)"/>
    <g id="_09_Logo_gate-2" data-name="09_Logo_gate" transform="translate(782 5441)">
      <path id="_09_Logo_gate-3" data-name="09_Logo_gate" class="cls-2" d="M3.242,29.436A6.856,6.856,0,0,1,.969,25.8a1.112,1.112,0,0,1,1.076-1.386H3.477a1.34,1.34,0,0,1,1.268.9,3.3,3.3,0,0,0,.5.965,4.054,4.054,0,0,0,3.424,1.53q4.145,0,4.146-5.09V20.439a7.051,7.051,0,0,1-5.187,2.3A6.953,6.953,0,0,1,2.152,20.32,8.957,8.957,0,0,1,0,14.191,9.422,9.422,0,0,1,2,8.114,6.953,6.953,0,0,1,7.674,5.46a6.6,6.6,0,0,1,5.138,2.3v-.7a1.139,1.139,0,0,1,1.141-1.14h1.493A1.14,1.14,0,0,1,16.588,7.06V8.676h0A9.041,9.041,0,0,0,15,14.042a9.342,9.342,0,0,0,1.589,5.465v2.376q0,1.16-.074,2.039a13.712,13.712,0,0,1-.21,1.554,6.926,6.926,0,0,1-1.577,3.174,7.66,7.66,0,0,1-6.1,2.55A8.134,8.134,0,0,1,3.242,29.436ZM4.986,10.447a5.792,5.792,0,0,0-1.123,3.694A5.737,5.737,0,0,0,4.986,17.8a4.068,4.068,0,0,0,3.393,1.563A4.147,4.147,0,0,0,11.8,17.789h0v0a5.631,5.631,0,0,0,1.16-3.661,5.5,5.5,0,0,0-1.278-3.813A4.22,4.22,0,0,0,8.379,8.854,4.074,4.074,0,0,0,4.986,10.447Zm68.358,11.9A8.471,8.471,0,0,1,70.86,16.1a8.12,8.12,0,0,1,2.535-6.025,8.945,8.945,0,0,1,12.391.012h0A8.333,8.333,0,0,1,88.3,16.23a8.3,8.3,0,0,1-2.534,6.162,8.664,8.664,0,0,1-6.262,2.468A8.317,8.317,0,0,1,73.344,22.342Zm2.718-9.908a5.258,5.258,0,0,0-1.344,3.726,5.516,5.516,0,0,0,1.311,3.877,5.093,5.093,0,0,0,7.084.02v0a5.382,5.382,0,0,0,1.328-3.812,5.364,5.364,0,0,0-1.328-3.807,5.024,5.024,0,0,0-7.051,0Zm7.051,7.623h0ZM61.761,24.064a2,2,0,0,1-1.179-1.817,1.909,1.909,0,0,1,1.9-1.885v.005a1.849,1.849,0,0,1,1.354.554,1.788,1.788,0,0,1,.561,1.34,1.837,1.837,0,0,1-.561,1.352,1.8,1.8,0,0,1-1.335.558A2.8,2.8,0,0,1,61.761,24.064Zm3.626.058v-.675a1.914,1.914,0,0,0,0-2.412V9.044a1.273,1.273,0,0,1,1.275-1.275h1.37v0A1.133,1.133,0,0,1,69.166,8.9V22.773a1.348,1.348,0,0,1-1.347,1.35Zm-13.3-.171a7.962,7.962,0,0,1-1.94-.217,7.206,7.206,0,0,1-3.8-2.137,8.83,8.83,0,0,1-2.214-6.278,9.059,9.059,0,0,1,2.149-6.28,7.408,7.408,0,0,1,5.74-2.368,7.356,7.356,0,0,1,5.71,2.3A9.047,9.047,0,0,1,59.82,15.3a.907.907,0,0,1-.908.888H48.085A4.918,4.918,0,0,0,49.4,19.4h0v0a3.964,3.964,0,0,0,2.964,1.176c.2,0,5.347.051,7.468.1l0,.478a1.816,1.816,0,0,0-.508,1.274,1.845,1.845,0,0,0,.494,1.291l0,.4C57.119,24.062,54.779,24.006,52.09,23.951ZM48.337,13.1h7.594a3.624,3.624,0,0,0-3.812-3.02,3.916,3.916,0,0,0-1.3.21,3.614,3.614,0,0,0-1.1.6,3.813,3.813,0,0,0-.849.947v0A4.5,4.5,0,0,0,48.337,13.1ZM30.788,23.49a1.377,1.377,0,0,1-1.374-1.376V20.552a7.251,7.251,0,0,1-10.627-.264,9.129,9.129,0,0,1-2.2-6.246,8.825,8.825,0,0,1,2.2-6.128,7.092,7.092,0,0,1,5.5-2.453,6.935,6.935,0,0,1,5.12,2.352v-.79a1.108,1.108,0,0,1,1.111-1.106h1.416a1.268,1.268,0,0,1,1.267,1.266V23.49ZM21.742,10.345A5.456,5.456,0,0,0,20.45,14.04a5.7,5.7,0,0,0,1.258,3.829,4.116,4.116,0,0,0,3.257,1.493,4.337,4.337,0,0,0,3.391-1.441h0a5.585,5.585,0,0,0,1.3-3.794,5.576,5.576,0,0,0-1.3-3.791A4.259,4.259,0,0,0,25,8.87,4.169,4.169,0,0,0,21.742,10.345ZM36.379,23.488V9.438H34.767V5.916h1.614V1.132A1.13,1.13,0,0,1,37.51,0h1.53a1.115,1.115,0,0,1,1.117,1.116v4.8h7.834v.012h0a6.968,6.968,0,0,0-2.844,1.9A7.939,7.939,0,0,0,44.028,9.44H40.154V21.866a1.618,1.618,0,0,1-1.621,1.622Zm26.1-3.126h0ZM48.873,11.844h0ZM65.539,4.2a2.4,2.4,0,0,1-.723-1.764A2.347,2.347,0,0,1,65.539.728,2.356,2.356,0,0,1,67.266,0l0,0a2.38,2.38,0,0,1,1.748.728,2.314,2.314,0,0,1,.724,1.728A2.383,2.383,0,0,1,69.011,4.2a2.3,2.3,0,0,1-1.725.723A2.385,2.385,0,0,1,65.539,4.2Z" transform="translate(55.439 9.56)"/>
      <path id="Path_4190" data-name="Path 4190" class="cls-2" d="M-215.894-353.507l-.422-.425a.51.51,0,0,0-.869.36v6.073a.511.511,0,0,0,.511.509h6.074a.508.508,0,0,0,.359-.868.507.507,0,0,1,0-.718l6.461-6.481a.507.507,0,0,0,0-.718l-.589-.586a.509.509,0,0,1,.36-.868h6.071a.51.51,0,0,1,.51.509v6.072a.511.511,0,0,1-.871.36l-.409-.409a.5.5,0,0,0-.717,0l-10.893,10.887a.509.509,0,0,1-.719,0l-13.326-13.327a.508.508,0,0,1,0-.721l18.448-18.448a.511.511,0,0,0,0-.72l-4.338-4.338a.511.511,0,0,0-.72,0l-23.883,23.884a.512.512,0,0,0,0,.72l23.88,23.88a.512.512,0,0,0,.72,0l23.879-23.88a.51.51,0,0,0,0-.719l-14.049-14.049a.51.51,0,0,0-.719,0l-14.027,14.022a.51.51,0,0,1-.723,0Z" transform="translate(235.005 377.512)"/>
    </g>
  </g>
</svg>
