<svg xmlns="http://www.w3.org/2000/svg" xmlns:xlink="http://www.w3.org/1999/xlink" viewBox="-1366 1679 180 50">
  <defs>
    <style>
      .cls-1 {
        fill: none;
      }

      .cls-2 {
        fill: url(#linear-gradient);
      }

      .cls-3 {
        fill: #f7f7f7;
      }

      .cls-4 {
        fill: #191d28;
      }

      .cls-5 {
        clip-path: url(#clip-path);
      }

      .cls-6 {
        fill: #414f5c;
      }
    </style>
    <linearGradient id="linear-gradient" x1="0.5" y1="1" x2="0.5" gradientUnits="objectBoundingBox">
      <stop offset="0" stop-color="#647481"/>
      <stop offset="0.112" stop-color="#919ca8"/>
      <stop offset="0.236" stop-color="#bbc2ce"/>
      <stop offset="0.348" stop-color="#dadee9"/>
      <stop offset="0.443" stop-color="#eceff9"/>
      <stop offset="0.51" stop-color="#f3f5ff"/>
      <stop offset="0.647" stop-color="#eff2fc"/>
      <stop offset="0.771" stop-color="#e4e7f2"/>
      <stop offset="0.891" stop-color="#d2d6e2"/>
      <stop offset="1" stop-color="#bac0ce"/>
    </linearGradient>
    <clipPath id="clip-path">
      <path id="Path_4186" data-name="Path 4186" d="M88.3,75.429v4.521a.446.446,0,0,0,.444.444h13.464a7.372,7.372,0,0,1,7.376,7.376V90.7a7.993,7.993,0,0,1-8,8H98.8a.44.44,0,0,1-.433-.522L101.1,83.872H88.744a.446.446,0,0,0-.444.444v2.633a.446.446,0,0,0,.444.444H95l-3.044,15.663a.885.885,0,0,0,.878,1.055h9.32a12.841,12.841,0,0,0,12.842-12.842V87.838A12.841,12.841,0,0,0,102.153,75H88.744A.423.423,0,0,0,88.3,75.429Z" transform="translate(-88.3 -74.996)"/>
    </clipPath>
  </defs>
  <g id="_03_Logo_Detrust" data-name="03_Logo_Detrust" transform="translate(-2130 -3651)">
    <rect id="Rectangle_3065" data-name="Rectangle 3065" class="cls-1" width="180" height="50" transform="translate(764 5330)"/>
    <g id="_03_Logo_Detrust-2" data-name="03_Logo_Detrust" transform="translate(779 5334)">
      <circle id="Ellipse_40" data-name="Ellipse 40" class="cls-2" cx="22.662" cy="22.662" r="22.662"/>
      <g id="Group_2164" data-name="Group 2164" transform="translate(57.588 7.165)">
        <path id="Path_4163" data-name="Path 4163" class="cls-3" d="M527.953,83.607a5.86,5.86,0,0,0,2.422-1.555,9.065,9.065,0,0,0,1.833-3.444,14.326,14.326,0,0,0,.522-4.155,16.5,16.5,0,0,0-.555-4.61,9.088,9.088,0,0,0-1.633-3.166,5.745,5.745,0,0,0-2.577-1.8,10.973,10.973,0,0,0-3.255-.378H518.4V84.018h6.5A9.125,9.125,0,0,0,527.953,83.607Zm-6.1-2.877V67.81h1.555a13.772,13.772,0,0,1,2.833.189,3.133,3.133,0,0,1,1.6.922,4.586,4.586,0,0,1,.978,1.888,13.208,13.208,0,0,1,.355,3.477,14.435,14.435,0,0,1-.355,3.577,4.394,4.394,0,0,1-.9,1.888,3.035,3.035,0,0,1-1.4.811,8.372,8.372,0,0,1-2.088.189h-2.577Z" transform="translate(-518.4 -64.5)"/>
        <path id="Path_4164" data-name="Path 4164" class="cls-3" d="M809.1,82.23c0,4.5,3.088,5.988,7.754,4.81V84.252c-2.433.433-4.288.678-4.288-2.488v-6.21h3.721V73h-3.721V68.1l-3.477,2.188V73.01H807.5v2.555h1.589V82.23Z" transform="translate(-775.385 -67.7)"/>
        <path id="Path_4165" data-name="Path 4165" class="cls-3" d="M1266.666,81.764v-6.21h3.721V73h-3.721V68.1l-3.477,2.188V73.01H1261.6v2.555h1.589v6.676c0,4.5,3.088,5.988,7.754,4.81V84.263C1268.51,84.685,1266.666,84.93,1266.666,81.764Z" transform="translate(-1179.04 -67.7)"/>
        <path id="Path_4166" data-name="Path 4166" class="cls-3" d="M917.888,109.586a4.993,4.993,0,0,0-1.811,1.866V109.42H912.6v14.308h3.744v-4.421a37.005,37.005,0,0,1,.311-4.8c.289-2.455,2.288-3.233,4.477-1.933l1.466-2.855A5.951,5.951,0,0,0,917.888,109.586Z" transform="translate(-868.809 -104.199)"/>
        <path id="Path_4167" data-name="Path 4167" class="cls-3" d="M1030.231,125.02v2.122h3.344V113h-3.6v5.965a15.781,15.781,0,0,1-.267,3.81,2.591,2.591,0,0,1-1,1.3,2.743,2.743,0,0,1-1.655.522,2.2,2.2,0,0,1-1.333-.389,2,2,0,0,1-.722-1.066,18.556,18.556,0,0,1-.2-3.655V113h-3.6v8.943a8.179,8.179,0,0,0,.489,3.133,3.617,3.617,0,0,0,1.577,1.755,4.788,4.788,0,0,0,2.466.622,5.439,5.439,0,0,0,4.5-2.433Z" transform="translate(-965.345 -107.612)"/>
        <path id="Path_4168" data-name="Path 4168" class="cls-3" d="M696.755,321.877c-.978,0-1.6-.766-1.6-1.977s.644-1.955,1.622-1.955a1.454,1.454,0,0,1,1.055.455l.356-.4a1.944,1.944,0,0,0-1.411-.6,2.273,2.273,0,0,0-2.277,2.511,2.244,2.244,0,0,0,2.233,2.5,2.07,2.07,0,0,0,1.578-.689l-.355-.378A1.65,1.65,0,0,1,696.755,321.877Z" transform="translate(-674.938 -289.306)"/>
        <path id="Path_4169" data-name="Path 4169" class="cls-3" d="M737.4,329.444h-.022l-.056-.655H736.8v3.577h.633v-2.3c.255-.611.644-.822.955-.822a.944.944,0,0,1,.367.056l.122-.522a.9.9,0,0,0-.411-.078A1.363,1.363,0,0,0,737.4,329.444Z" transform="translate(-712.539 -299.351)"/>
        <path id="Path_4170" data-name="Path 4170" class="cls-3" d="M759.622,328.8a1.777,1.777,0,0,0-1.722,1.877,1.755,1.755,0,0,0,1.822,1.866,2.436,2.436,0,0,0,1.266-.367l-.233-.4a1.7,1.7,0,0,1-.955.278,1.229,1.229,0,0,1-1.266-1.255H761.1a2.593,2.593,0,0,0,.033-.344A1.46,1.46,0,0,0,759.622,328.8Zm-1.078,1.589a1.137,1.137,0,0,1,1.089-1.111c.6,0,.944.389.944,1.111Z" transform="translate(-731.295 -299.44)"/>
        <path id="Path_4171" data-name="Path 4171" class="cls-3" d="M795.777,315.889l.033.622a1.573,1.573,0,0,0-1.066-.422,1.726,1.726,0,0,0-1.644,1.877c0,1.189.611,1.866,1.566,1.866a1.738,1.738,0,0,0,1.155-.511h.011l.067.422h.522V314.5h-.633v1.389Zm0,2.955a1.306,1.306,0,0,1-.978.489c-.678,0-1.055-.511-1.055-1.377a1.218,1.218,0,0,1,1.1-1.366,1.347,1.347,0,0,1,.922.378v1.877Z" transform="translate(-762.584 -286.728)"/>
        <rect id="Rectangle_3069" data-name="Rectangle 3069" class="cls-3" width="0.633" height="3.577" transform="translate(35.126 29.449)"/>
        <path id="Path_4172" data-name="Path 4172" class="cls-3" d="M833.944,316a.4.4,0,0,0-.444.389.448.448,0,0,0,.889,0A.4.4,0,0,0,833.944,316Z" transform="translate(-798.497 -288.062)"/>
        <path id="Path_4173" data-name="Path 4173" class="cls-3" d="M849.6,324.677c-.444,0-.589-.255-.589-.689v-2h1.033V321.5h-1.033v-1h-.533l-.078,1-.6.033v.455h.567v1.977c0,.722.278,1.189,1.089,1.189a2.442,2.442,0,0,0,.7-.133l-.122-.444A1.175,1.175,0,0,1,849.6,324.677Z" transform="translate(-811.208 -292.062)"/>
        <path id="Path_4174" data-name="Path 4174" class="cls-3" d="M887.5,324.677c-.444,0-.589-.255-.589-.689v-2h1.033V321.5h-1.033v-1h-.533l-.078,1-.6.033v.455h.567v1.977c0,.722.278,1.189,1.089,1.189a2.442,2.442,0,0,0,.7-.133l-.122-.444A1.174,1.174,0,0,1,887.5,324.677Z" transform="translate(-844.898 -292.062)"/>
        <path id="Path_4175" data-name="Path 4175" class="cls-3" d="M915.477,316.266a1.827,1.827,0,0,0-1.266.6l.022-.733V314.7H913.6v5.243h.633v-2.588a1.468,1.468,0,0,1,1.044-.544c.5,0,.722.278.722.955v2.188h.633v-2.266C916.644,316.744,916.277,316.266,915.477,316.266Z" transform="translate(-869.698 -286.906)"/>
        <path id="Path_4176" data-name="Path 4176" class="cls-3" d="M951.022,328.8a1.777,1.777,0,0,0-1.722,1.877,1.755,1.755,0,0,0,1.822,1.866,2.435,2.435,0,0,0,1.266-.367l-.233-.4a1.7,1.7,0,0,1-.955.278,1.229,1.229,0,0,1-1.266-1.255H952.5a2.583,2.583,0,0,0,.033-.344A1.466,1.466,0,0,0,951.022,328.8Zm-1.089,1.589a1.137,1.137,0,0,1,1.089-1.111c.6,0,.944.389.944,1.111Z" transform="translate(-901.433 -299.44)"/>
        <path id="Path_4177" data-name="Path 4177" class="cls-3" d="M1000.977,331.666c-.089.344-.156.667-.233,1h-.033c-.089-.333-.178-.655-.267-1l-.6-2.066h-.622l-.589,2.066c-.1.333-.178.667-.255,1h-.033c-.067-.333-.144-.655-.222-1l-.566-2.066H996.9l1.055,3.577h.744l.533-1.911c.1-.344.178-.678.255-1.044h.033c.089.367.167.689.255,1.022l.555,1.933h.767l1.022-3.577h-.6Z" transform="translate(-943.745 -300.151)"/>
        <path id="Path_4178" data-name="Path 4178" class="cls-3" d="M1050.466,328.8a1.875,1.875,0,1,0,1.766,1.877A1.758,1.758,0,0,0,1050.466,328.8Zm0,3.244c-.656,0-1.1-.544-1.1-1.366s.444-1.377,1.1-1.377,1.111.555,1.111,1.377S1051.133,332.044,1050.466,332.044Z" transform="translate(-989.79 -299.44)"/>
        <path id="Path_4179" data-name="Path 4179" class="cls-3" d="M1090.2,329.444h-.022l-.056-.655h-.522v3.577h.633v-2.3c.256-.611.644-.822.955-.822a.943.943,0,0,1,.367.056l.122-.522a.906.906,0,0,0-.411-.078A1.347,1.347,0,0,0,1090.2,329.444Z" transform="translate(-1026.147 -299.351)"/>
        <path id="Path_4180" data-name="Path 4180" class="cls-3" d="M1114.911,319.421c-.1,0-.178-.078-.178-.256V314.6h-.633v4.532c0,.511.2.8.678.8a1.014,1.014,0,0,0,.367-.056l-.089-.455Z" transform="translate(-1047.925 -286.817)"/>
        <path id="Path_4181" data-name="Path 4181" class="cls-3" d="M1132.277,315.889l.033.622a1.573,1.573,0,0,0-1.067-.422,1.726,1.726,0,0,0-1.644,1.877c0,1.189.611,1.866,1.566,1.866a1.738,1.738,0,0,0,1.155-.511h.011l.067.422h.522V314.5h-.633v1.389Zm0,2.955a1.306,1.306,0,0,1-.978.489c-.677,0-1.055-.511-1.055-1.377a1.218,1.218,0,0,1,1.1-1.366,1.348,1.348,0,0,1,.922.378v1.877Z" transform="translate(-1061.703 -286.728)"/>
        <path id="Path_4182" data-name="Path 4182" class="cls-3" d="M680.22,123.264l-1.522-2.477a3.681,3.681,0,0,1-.989.844,5.264,5.264,0,0,1-2.311.455,3.167,3.167,0,0,1-2.311-.922,3.6,3.6,0,0,1-.966-2.588h10.053q.083-4.3-1.866-6.387a6.977,6.977,0,0,0-5.343-2.088,6.713,6.713,0,0,0-4.977,1.988A7.434,7.434,0,0,0,668,117.6a7.711,7.711,0,0,0,1.5,4.877q1.9,2.416,5.854,2.411a7.584,7.584,0,0,0,4.166-1.066A8.55,8.55,0,0,0,680.22,123.264Zm-7.2-9.409a3.045,3.045,0,0,1,4.255-.044,3.5,3.5,0,0,1,.9,2.466h-6A3.368,3.368,0,0,1,673.021,113.855Z" transform="translate(-651.381 -105.034)"/>
        <path id="Path_4183" data-name="Path 4183" class="cls-3" d="M1159.3,119.4c1.466.578,2.9,1.066,2.9,2.122,0,.889-.622,1.489-2.011,1.489a5.589,5.589,0,0,1-3.322-1.244l-1.089,2.722a8.527,8.527,0,0,0,4.31,1.3c3.61,0,5.521-2,5.521-4.477,0-2.633-2.033-3.566-3.866-4.277-1.466-.555-2.822-.933-2.822-1.977,0-.811.589-1.366,1.833-1.366a5.1,5.1,0,0,1,2.855,1.111l1.055-2.655a7.307,7.307,0,0,0-4.01-1.244c-3.121,0-5.154,1.8-5.154,4.355C1155.511,117.621,1157.544,118.709,1159.3,119.4Z" transform="translate(-1084.726 -105.746)"/>
        <rect id="Rectangle_3070" data-name="Rectangle 3070" class="cls-3" width="11.753" height="0.344" transform="translate(4.899 30.382)"/>
        <rect id="Rectangle_3071" data-name="Rectangle 3071" class="cls-3" width="11.753" height="0.344" transform="translate(74.628 30.382)"/>
      </g>
      <path id="Path_4184" data-name="Path 4184" class="cls-4" d="M88.3,75.429v4.521a.446.446,0,0,0,.444.444h13.464a7.372,7.372,0,0,1,7.376,7.376V90.7a7.993,7.993,0,0,1-8,8H98.8a.44.44,0,0,1-.433-.522L101.1,83.872H88.744a.446.446,0,0,0-.444.444v2.633a.446.446,0,0,0,.444.444H95l-3.044,15.663a.885.885,0,0,0,.878,1.055h9.32a12.841,12.841,0,0,0,12.842-12.842V87.838A12.841,12.841,0,0,0,102.153,75H88.744A.423.423,0,0,0,88.3,75.429Z" transform="translate(-78.491 -66.665)"/>
      <g id="Group_2166" data-name="Group 2166" transform="translate(9.809 8.331)">
        <g id="Group_2165" data-name="Group 2165" class="cls-5">
          <path id="Path_4185" data-name="Path 4185" class="cls-6" d="M88.3,78.429v4.521a.446.446,0,0,0,.444.444h13.464a7.372,7.372,0,0,1,7.376,7.376V93.7a7.993,7.993,0,0,1-8,8H98.8a.44.44,0,0,1-.433-.522L101.1,86.872H88.744a.446.446,0,0,0-.444.444v2.633a.446.446,0,0,0,.444.444H95l-3.044,15.663a.885.885,0,0,0,.878,1.055h9.32a12.841,12.841,0,0,0,12.842-12.842V90.838A12.841,12.841,0,0,0,102.153,78H88.744A.423.423,0,0,0,88.3,78.429Z" transform="translate(-88.3 -77.663)"/>
        </g>
      </g>
    </g>
  </g>
</svg>
