<svg xmlns="http://www.w3.org/2000/svg" xmlns:xlink="http://www.w3.org/1999/xlink" viewBox="-1154 1789 180 50">
  <defs>
    <style>
      .cls-1 {
        fill: none;
      }

      .cls-2, .cls-3 {
        fill: #f7f7f7;
      }

      .cls-2 {
        opacity: 0.8;
      }

      .cls-4 {
        fill: url(#linear-gradient);
      }

      .cls-5 {
        fill: url(#linear-gradient-2);
      }

      .cls-6 {
        fill: url(#linear-gradient-3);
      }

      .cls-7 {
        fill: url(#linear-gradient-4);
      }

      .cls-8 {
        fill: url(#linear-gradient-5);
      }
    </style>
    <linearGradient id="linear-gradient" x1="1" y1="0.501" x2="0.009" y2="0.501" gradientUnits="objectBoundingBox">
      <stop offset="0" stop-color="#f5f7ff"/>
      <stop offset="1" stop-color="#626d9c"/>
    </linearGradient>
    <linearGradient id="linear-gradient-2" x1="0.999" y1="0.499" x2="0.009" y2="0.499" gradientUnits="objectBoundingBox">
      <stop offset="0" stop-color="#cacee6"/>
      <stop offset="1" stop-color="#3d497c"/>
    </linearGradient>
    <linearGradient id="linear-gradient-3" x1="1" y1="0.5" x2="0.009" y2="0.5" xlink:href="#linear-gradient"/>
    <linearGradient id="linear-gradient-4" x1="1.001" y1="0.5" x2="0.009" y2="0.5" xlink:href="#linear-gradient-2"/>
    <linearGradient id="linear-gradient-5" x1="1.001" y1="0.502" x2="0.009" y2="0.502" xlink:href="#linear-gradient-2"/>
  </defs>
  <g id="_10_Logo_Zeniex" data-name="10_Logo_Zeniex" transform="translate(-2130 -3651)">
    <path id="Path_4191" data-name="Path 4191" class="cls-1" d="M0,0H180V50H0Z" transform="translate(976 5440)"/>
    <g id="_10_Logo_Zeniex-2" data-name="10_Logo_Zeniex" transform="translate(997 5444)">
      <path id="Union_10" data-name="Union 10" class="cls-2" d="M56.213,9.383A2.987,2.987,0,0,1,55.148,8.8l.689-.94a2.509,2.509,0,0,0,.711.481,1.9,1.9,0,0,0,.857.167,1.7,1.7,0,0,0,.689-.125,1.489,1.489,0,0,0,.46-.314,1.145,1.145,0,0,0,.23-.481,2.9,2.9,0,0,0,.063-.627V6.624h-.021a1.458,1.458,0,0,1-.669.5,2.385,2.385,0,0,1-.836.167,2.291,2.291,0,0,1-.94-.188,2.531,2.531,0,0,1-.731-.5,1.979,1.979,0,0,1-.46-.752,2.663,2.663,0,0,1-.167-.919,2.77,2.77,0,0,1,.146-.94,2.24,2.24,0,0,1,1.17-1.3,2.319,2.319,0,0,1,.961-.188,2.259,2.259,0,0,1,.919.188,1.551,1.551,0,0,1,.669.606h.021V2.654h1.108v4.18a3.791,3.791,0,0,1-.146,1.128,2.035,2.035,0,0,1-.481.857,2.072,2.072,0,0,1-.815.543,3.236,3.236,0,0,1-1.15.188A4.594,4.594,0,0,1,56.213,9.383Zm.794-5.705a1.163,1.163,0,0,0-.69.71,1.6,1.6,0,0,0-.1.564,1.454,1.454,0,0,0,.1.522,1.168,1.168,0,0,0,.293.418,1.611,1.611,0,0,0,.439.293,1.569,1.569,0,0,0,.543.1,1.6,1.6,0,0,0,.564-.1,1.244,1.244,0,0,0,.439-.293,1.116,1.116,0,0,0,.272-.418,1.57,1.57,0,0,0,.1-.543,1.415,1.415,0,0,0-.355-.982,1.528,1.528,0,0,0-1.045-.376A1.6,1.6,0,0,0,57.008,3.678ZM35.818,7.251a2.524,2.524,0,0,1-.794-.481,2.121,2.121,0,0,1-.522-.752,2.494,2.494,0,0,1-.188-.982,2.5,2.5,0,0,1,.188-.982,2.431,2.431,0,0,1,.522-.752,2.193,2.193,0,0,1,.794-.481,2.559,2.559,0,0,1,.982-.167,2.609,2.609,0,0,1,.878.167,1.955,1.955,0,0,1,.773.522l-.794.689a1.548,1.548,0,0,0-.418-.334.894.894,0,0,0-.46-.125,1.244,1.244,0,0,0-.564.125,1.29,1.29,0,0,0-.418.314,1.193,1.193,0,0,0-.272.439,1.442,1.442,0,0,0-.084.522,1.444,1.444,0,0,0,.084.522,1.193,1.193,0,0,0,.272.439,1.56,1.56,0,0,0,.418.314,1.244,1.244,0,0,0,.564.125,1.262,1.262,0,0,0,.5-.1,1.468,1.468,0,0,0,.4-.314l.773.815a1.77,1.77,0,0,1-.4.293,3.066,3.066,0,0,1-.46.209,3.328,3.328,0,0,1-.439.1,3.108,3.108,0,0,1-.355.042A3.026,3.026,0,0,1,35.818,7.251ZM2.153,7.168a3.457,3.457,0,0,1-1.129-.71A3.712,3.712,0,0,1,.272,5.35,3.616,3.616,0,0,1,0,3.908,3.754,3.754,0,0,1,.272,2.424,3.243,3.243,0,0,1,1.024,1.3,3.193,3.193,0,0,1,2.153.564,4.017,4.017,0,0,1,3.594.314,3.226,3.226,0,0,1,4.869.564,3.106,3.106,0,0,1,5.977,1.4l-.94.648A2.073,2.073,0,0,0,4.3,1.5a2.033,2.033,0,0,0-.71-.125,2.392,2.392,0,0,0-.961.188A2.039,2.039,0,0,0,1.9,2.09a2.67,2.67,0,0,0-.481.773,2.775,2.775,0,0,0-.167.94,3.152,3.152,0,0,0,.167,1A2.189,2.189,0,0,0,1.9,5.6a2.042,2.042,0,0,0,.731.522,2.392,2.392,0,0,0,.961.188,1.775,1.775,0,0,0,.794-.188A2.221,2.221,0,0,0,5.12,5.5l1,.711a2.791,2.791,0,0,1-1.128.919,3.579,3.579,0,0,1-1.4.293A4.017,4.017,0,0,1,2.153,7.168Zm60.455.063a2.524,2.524,0,0,1-.794-.481A2.121,2.121,0,0,1,61.291,6a2.494,2.494,0,0,1-.188-.982,2.5,2.5,0,0,1,.188-.982,2.427,2.427,0,0,1,.522-.752,2.193,2.193,0,0,1,.794-.481,2.559,2.559,0,0,1,.982-.167,2.433,2.433,0,0,1,.878.167,1.79,1.79,0,0,1,.689.481,2.33,2.33,0,0,1,.439.773,3.351,3.351,0,0,1,.167,1.066v.314h-3.52a1.188,1.188,0,0,0,.385.731,1.272,1.272,0,0,0,.836.293A1.572,1.572,0,0,0,64.2,6.29a3.4,3.4,0,0,0,.522-.439l.815.627a2.377,2.377,0,0,1-.9.71A2.592,2.592,0,0,1,63.59,7.4,3.026,3.026,0,0,1,62.608,7.23Zm0-3.532a1.241,1.241,0,0,0-.376.794h2.361A1.023,1.023,0,0,0,64.28,3.7a1.214,1.214,0,0,0-.857-.293A1.108,1.108,0,0,0,62.608,3.7Zm-17.2,3.573a2.161,2.161,0,0,1-.543-.251,1.275,1.275,0,0,1-.376-.439,1.135,1.135,0,0,1-.146-.606,1.4,1.4,0,0,1,.125-.627,1.432,1.432,0,0,1,.355-.439,2.115,2.115,0,0,1,.522-.293,4.519,4.519,0,0,1,.627-.167,3.39,3.39,0,0,1,.648-.063c.209,0,.418-.021.606-.021h.292V4.242a.769.769,0,0,0-.292-.648,1.231,1.231,0,0,0-.752-.209,1.926,1.926,0,0,0-.69.125,1.635,1.635,0,0,0-.543.355l-.606-.606a2.053,2.053,0,0,1,.9-.564A3,3,0,0,1,46.6,2.529a2.856,2.856,0,0,1,.815.1,1.782,1.782,0,0,1,.564.293,1.472,1.472,0,0,1,.335.4,1.22,1.22,0,0,1,.167.46,1.586,1.586,0,0,1,.063.439v3.03H47.5V6.624h0a1.348,1.348,0,0,1-.627.564,1.871,1.871,0,0,1-.836.167A2.161,2.161,0,0,1,45.409,7.272ZM46.663,5.2a5.291,5.291,0,0,0-.564.084,1.227,1.227,0,0,0-.439.209.459.459,0,0,0-.188.4.524.524,0,0,0,.062.272.54.54,0,0,0,.188.188,1.275,1.275,0,0,0,.251.1,1.4,1.4,0,0,0,.293.042,1.2,1.2,0,0,0,.877-.293,1.039,1.039,0,0,0,.293-.773V5.183h-.23A5.14,5.14,0,0,0,46.663,5.2ZM8.108,7.168a2.518,2.518,0,0,1-.794-.481,2.118,2.118,0,0,1-.522-.752A2.494,2.494,0,0,1,6.6,4.953a2.5,2.5,0,0,1,.188-.982,2.419,2.419,0,0,1,.522-.752,2.188,2.188,0,0,1,.794-.481A2.557,2.557,0,0,1,9.09,2.57a3.032,3.032,0,0,1,.982.167,2.519,2.519,0,0,1,.794.481,2.12,2.12,0,0,1,.522.752,2.5,2.5,0,0,1,.188.982,2.494,2.494,0,0,1-.188.982,2.428,2.428,0,0,1-.522.752,2.189,2.189,0,0,1-.794.481,2.555,2.555,0,0,1-.982.167A3.023,3.023,0,0,1,8.108,7.168Zm.418-3.49a1.292,1.292,0,0,0-.418.314,1.193,1.193,0,0,0-.272.439,2.105,2.105,0,0,0-.083.522,1.444,1.444,0,0,0,.083.522,1.194,1.194,0,0,0,.272.439,1.56,1.56,0,0,0,.418.314,1.333,1.333,0,0,0,1.128,0,1.291,1.291,0,0,0,.418-.314,1.193,1.193,0,0,0,.272-.439,1.444,1.444,0,0,0,.084-.522,1.444,1.444,0,0,0-.084-.522,1.192,1.192,0,0,0-.272-.439,1.571,1.571,0,0,0-.418-.314,1.333,1.333,0,0,0-1.128,0Zm44.3,3.573V4.932a2.932,2.932,0,0,0-.021-.418,1.494,1.494,0,0,0-.1-.439,1.089,1.089,0,0,0-.251-.355.8.8,0,0,0-.46-.146,1.09,1.09,0,0,0-.481.1,1.271,1.271,0,0,0-.334.251,1.061,1.061,0,0,0-.188.376,1.6,1.6,0,0,0-.063.439V7.251H49.777v-4.6h1.087v.731h.021a1.531,1.531,0,0,1,.5-.606,1.5,1.5,0,0,1,.919-.251,1.7,1.7,0,0,1,.773.146,1.444,1.444,0,0,1,.522.4,1.709,1.709,0,0,1,.293.585,2.393,2.393,0,0,1,.084.689v2.9Zm-10.637,0V4.932a2.933,2.933,0,0,0-.021-.418,1.494,1.494,0,0,0-.1-.439,1.089,1.089,0,0,0-.251-.355.8.8,0,0,0-.46-.146,1.09,1.09,0,0,0-.481.1,1.271,1.271,0,0,0-.334.251,1.062,1.062,0,0,0-.188.376,1.586,1.586,0,0,0-.063.439V7.251H39.141V0H40.29V3.3a1.676,1.676,0,0,1,.5-.522,1.609,1.609,0,0,1,.878-.23,1.7,1.7,0,0,1,.773.146,1.446,1.446,0,0,1,.522.4,1.707,1.707,0,0,1,.293.585,2.394,2.394,0,0,1,.084.69V7.251Zm-9.7,0L31.3,5.6,30.092,7.251H28.734l1.818-2.466L28.964,2.654h1.4l.92,1.379,1-1.379H33.6L32.035,4.785,33.9,7.251Zm-14.273,0V4.932a2.933,2.933,0,0,0-.021-.418,1.5,1.5,0,0,0-.1-.439,1.092,1.092,0,0,0-.251-.355.8.8,0,0,0-.46-.146,1.09,1.09,0,0,0-.481.1,1.272,1.272,0,0,0-.335.251,1.057,1.057,0,0,0-.188.376,1.6,1.6,0,0,0-.063.439V7.251H15.172v-4.6h1.087v.731h.021a1.532,1.532,0,0,1,.5-.606,1.5,1.5,0,0,1,.92-.251,1.7,1.7,0,0,1,.773.146,1.446,1.446,0,0,1,.522.4,1.709,1.709,0,0,1,.293.585,2.4,2.4,0,0,1,.084.689v2.9Zm-5.517,0v-4.6h1.15v4.6ZM23.635,7.23V.46h4.472V1.546H24.826V3.218H27.94V4.3H24.826V6.144h3.469V7.23ZM12.747,1.567a.6.6,0,0,1-.209-.481.6.6,0,0,1,.209-.481A.693.693,0,0,1,13.27.4a.728.728,0,0,1,.522.188.62.62,0,0,1,.209.5.68.68,0,0,1-.209.5.764.764,0,0,1-.522.188A.693.693,0,0,1,12.747,1.567ZM23.614.46h.021Z" transform="translate(73.286 32.244)"/>
      <path id="Union_9" data-name="Union 9" class="cls-3" d="M71.113,26.08a8.025,8.025,0,0,1-2.8-1.985,8.657,8.657,0,0,1-1.776-2.926,10.766,10.766,0,0,1,.042-7.356,8.808,8.808,0,0,1,1.881-2.925,8.472,8.472,0,0,1,2.863-1.9,9.278,9.278,0,0,1,3.615-.669,8.879,8.879,0,0,1,3.385.627,7.752,7.752,0,0,1,2.654,1.8,8.173,8.173,0,0,1,1.714,2.9,11.856,11.856,0,0,1,.606,3.887v.94H69.086a6.048,6.048,0,0,0,.543,2.173,5.732,5.732,0,0,0,1.233,1.8,5.266,5.266,0,0,0,1.776,1.212,5.525,5.525,0,0,0,2.215.46,6.517,6.517,0,0,0,5.6-2.654l2.215,1.693A8.9,8.9,0,0,1,79.2,26a10.932,10.932,0,0,1-4.368.815A9.231,9.231,0,0,1,71.113,26.08ZM70.9,12.35a5.618,5.618,0,0,0-1.8,3.615H80.162A5.056,5.056,0,0,0,78.7,12.35a5.3,5.3,0,0,0-3.845-1.358A5.7,5.7,0,0,0,70.9,12.35ZM21.963,26.08a8.025,8.025,0,0,1-2.8-1.985,8.657,8.657,0,0,1-1.776-2.926,10.766,10.766,0,0,1,.042-7.356,8.808,8.808,0,0,1,1.881-2.925,8.472,8.472,0,0,1,2.863-1.9,9.278,9.278,0,0,1,3.615-.669,8.877,8.877,0,0,1,3.385.627,7.753,7.753,0,0,1,2.654,1.8,8.169,8.169,0,0,1,1.713,2.9,11.85,11.85,0,0,1,.606,3.887v.94H19.936a6.048,6.048,0,0,0,.543,2.173,5.732,5.732,0,0,0,1.233,1.8,5.266,5.266,0,0,0,1.776,1.212,5.525,5.525,0,0,0,2.215.46,7.212,7.212,0,0,0,3.239-.669A7.27,7.27,0,0,0,31.3,21.461l2.215,1.693A8.9,8.9,0,0,1,30.05,26a10.93,10.93,0,0,1-4.367.815A9.231,9.231,0,0,1,21.963,26.08Zm-.23-13.73a5.617,5.617,0,0,0-1.8,3.615H30.99a5.057,5.057,0,0,0-1.463-3.615,5.3,5.3,0,0,0-3.845-1.358A5.7,5.7,0,0,0,21.733,12.35ZM.021,26.372v-2.32H0L10.344,11.222H.46V8.756H14.189v2.257L3.845,23.886H14.461v2.487Zm99.345-.021-5.559-7.607-5.5,7.607H84.654l7.21-9.487L85.553,8.735H89.4l4.66,6.311,4.409-6.311h3.573l-6.06,8.129,7.251,9.487Zm-40.6,0V8.756h2.925v17.6Zm-5.162,0H50.655V16.279a4.89,4.89,0,0,0-9.78,0V26.351H37.949V16.279a7.836,7.836,0,0,1,15.673,0V26.351ZM58.679,3.7a2.144,2.144,0,0,1-.606-1.546A2.053,2.053,0,0,1,58.7.648,2.085,2.085,0,0,1,60.226,0a2.007,2.007,0,0,1,1.525.648,2.052,2.052,0,0,1,.627,1.5A2.11,2.11,0,0,1,61.772,3.7a2.276,2.276,0,0,1-3.093,0Z" transform="translate(35.818 0)"/>
      <path id="Path_4121" data-name="Path 4121" class="cls-4" d="M23.342,83.468.5,86.895a.586.586,0,0,0-.5.585v2.382a.589.589,0,0,0,.69.585L23.53,87.02a.586.586,0,0,0,.5-.585V84.053A.59.59,0,0,0,23.342,83.468Z" transform="translate(0 -66.019)"/>
      <path id="Path_4122" data-name="Path 4122" class="cls-5" d="M23.426,116.8H.606a.606.606,0,0,0-.606.606v2.988A.606.606,0,0,0,.606,121H23.447a.606.606,0,0,0,.606-.606v-3.009A.621.621,0,0,0,23.426,116.8Z" transform="translate(0 -92.392)"/>
      <path id="Path_4123" data-name="Path 4123" class="cls-6" d="M23.7,41.473.251,44.984A.293.293,0,0,0,0,45.276v1.8a.293.293,0,0,0,.355.293l23.426-3.511a.293.293,0,0,0,.251-.293v-1.8A.285.285,0,0,0,23.7,41.473Z" transform="translate(0 -32.8)"/>
      <path id="Path_4124" data-name="Path 4124" class="cls-7" d="M23.739,69.4H.293A.286.286,0,0,0,0,69.693v2.4a.286.286,0,0,0,.293.293H23.718a.286.286,0,0,0,.293-.293v-2.4A.258.258,0,0,0,23.739,69.4Z" transform="translate(0 -54.897)"/>
      <path id="Path_4125" data-name="Path 4125" class="cls-8" d="M23.76,26.548.313,24.792A.291.291,0,0,0,0,25.085v1.191a.282.282,0,0,0,.272.293L23.7,28.324a.291.291,0,0,0,.313-.293V26.84A.264.264,0,0,0,23.76,26.548Z" transform="translate(0 -19.61)"/>
    </g>
  </g>
</svg>
