<svg xmlns="http://www.w3.org/2000/svg" viewBox="-942 1679 180 50">
  <defs>
    <style>
      .cls-1 {
        fill: none;
      }

      .cls-2 {
        fill: #3ebcec;
      }

      .cls-3 {
        fill: #136bad;
      }
    </style>
  </defs>
  <g id="_05_Logo_Wanchain" data-name="05_Logo_Wanchain" transform="translate(-2130 -3651)">
    <rect id="Rectangle_3065" data-name="Rectangle 3065" class="cls-1" width="180" height="50" transform="translate(1188 5330)"/>
    <g id="_05_Logo_Wanchain-2" data-name="05_Logo_Wanchain" transform="translate(1198 5333)">
      <g id="Group_2158" data-name="Group 2158">
        <path id="Path_4126" data-name="Path 4126" class="cls-2" d="M13.42,12.675,26.5,5.128l13.1,7.568,5.02-2.234L26.5,0,8.4,10.441Z" transform="translate(-7.489)"/>
        <path id="Path_4127" data-name="Path 4127" class="cls-3" d="M32.158,107.935l-.011,12.729-13.141-7.59-13.152,7.59V107.913L0,105.3v25.057l19.007-11.222,19,11.222V105.333Z" transform="translate(0 -93.883)"/>
        <path id="Path_4128" data-name="Path 4128" class="cls-2" d="M63.225,301.4l-10.517,6.072L42.191,301.4,37.8,304l14.908,8.609L67.606,304Z" transform="translate(-33.702 -268.721)"/>
      </g>
      <path id="Union_13" data-name="Union 13" class="cls-3" d="M67.255,16.166V8.284a1.379,1.379,0,0,0-1.377-1.377h-3.5v9.249H59.232V0h3.144V4.337h4.337a3.7,3.7,0,0,1,3.686,3.7v8.132Zm34.067-.011V8.273a1.367,1.367,0,0,0-1.366-1.366H96.844v9.249H93.7V4.337h7.384a3.373,3.373,0,0,1,3.383,3.383v8.435Zm-25.122,0a3.611,3.611,0,1,1,0-7.221h4.988V8.522a1.62,1.62,0,0,0-1.616-1.616H73.316V4.337h7.872a3.147,3.147,0,0,1,3.144,3.144v8.674Zm-.477-3.621a1.052,1.052,0,0,0,1.052,1.052h4.413v-2.1H76.775A1.053,1.053,0,0,0,75.723,12.534ZM51.957,16.155A5.155,5.155,0,0,1,46.806,11V9.487a5.148,5.148,0,0,1,5.15-5.15h5.269v2.57H52.867a2.906,2.906,0,0,0-2.906,2.906v.867a2.906,2.906,0,0,0,2.906,2.906h4.359v2.57Zm-10.625,0V8.273a1.367,1.367,0,0,0-1.366-1.366H36.853v9.249H33.709V4.337h7.384A3.373,3.373,0,0,1,44.475,7.72v8.435Zm-18.79,0a3.611,3.611,0,1,1,0-7.221h4.987V8.522a1.62,1.62,0,0,0-1.615-1.616H19.657V4.337h7.872a3.147,3.147,0,0,1,3.144,3.144v8.674Zm-.477-3.621a1.052,1.052,0,0,0,1.052,1.052h4.413v-2.1H23.116A1.053,1.053,0,0,0,22.064,12.534Zm-8.555,3.621H3.144A3.147,3.147,0,0,1,0,13.011V4.337H3.144v7.611a1.643,1.643,0,0,0,1.637,1.637H6.755V4.337H9.9v9.248h3.61V4.337h3.145V16.155Zm73.956-.022V4.315h3.144V16.133Zm0-12.989V0h3.144V3.144Z" transform="translate(54.244 13.705)"/>
    </g>
  </g>
</svg>
