<svg xmlns="http://www.w3.org/2000/svg" xmlns:xlink="http://www.w3.org/1999/xlink" viewBox="-1366 1899 180 50">
  <defs>
    <style>
      .cls-1 {
        fill: none;
      }

      .cls-2 {
        fill: #0b7cf2;
      }

      .cls-3 {
        fill: url(#linear-gradient);
      }
    </style>
    <linearGradient id="linear-gradient" y1="0.5" x2="1" y2="0.5" gradientUnits="objectBoundingBox">
      <stop offset="0" stop-color="#0062eb"/>
      <stop offset="1" stop-color="#15c6fe"/>
    </linearGradient>
  </defs>
  <g id="_15_Logo_Coinegg" data-name="15_Logo_Coinegg" transform="translate(-2130 -3651)">
    <rect id="Rectangle_3065" data-name="Rectangle 3065" class="cls-1" width="180" height="50" transform="translate(764 5550)"/>
    <g id="_15_Logo_Coinegg-2" data-name="15_Logo_Coinegg" transform="translate(780 5560)">
      <path id="Union_8" data-name="Union 8" class="cls-2" d="M102.464,17.134a8.9,8.9,0,0,1-5.4-4.272,8.6,8.6,0,0,1-1.038-4.2,8.521,8.521,0,0,1,2.655-6.107,8.95,8.95,0,0,1,3.016-1.93A10.79,10.79,0,0,1,105.457,0,12.98,12.98,0,0,1,108.3.337a15.234,15.234,0,0,1,2.92,1.014V3.982A14.751,14.751,0,0,0,108.208,2.7a9.265,9.265,0,0,0-2.752-.411,6.78,6.78,0,0,0-4.9,1.834,6.087,6.087,0,0,0-1.93,4.634,6.088,6.088,0,0,0,1.906,4.585,6.648,6.648,0,0,0,4.8,1.858,8.436,8.436,0,0,0,1.738-.194,9.715,9.715,0,0,0,1.81-.579V11.149H105.7V8.9h5.647v7.167a19.677,19.677,0,0,1-3.16,1.086,12.162,12.162,0,0,1-2.848.362A10.114,10.114,0,0,1,102.464,17.134Zm-18.05,0a8.9,8.9,0,0,1-5.405-4.272,8.582,8.582,0,0,1-1.038-4.2,8.3,8.3,0,0,1,.7-3.307,8.416,8.416,0,0,1,1.954-2.8A8.964,8.964,0,0,1,83.641.627,10.79,10.79,0,0,1,87.406,0a12.967,12.967,0,0,1,2.847.337,15.235,15.235,0,0,1,2.921,1.014V3.982A14.75,14.75,0,0,0,90.156,2.7a9.251,9.251,0,0,0-2.75-.411,6.776,6.776,0,0,0-4.9,1.834A6.082,6.082,0,0,0,80.576,8.76a6.088,6.088,0,0,0,1.906,4.585,6.652,6.652,0,0,0,4.8,1.858,8.432,8.432,0,0,0,1.738-.194,9.687,9.687,0,0,0,1.808-.579V11.149H87.647V8.9h5.647v7.167a19.647,19.647,0,0,1-3.162,1.086,12.147,12.147,0,0,1-2.846.362A10.1,10.1,0,0,1,84.414,17.134ZM22.78,16.843a9.3,9.3,0,0,1-2.92-1.882,8.869,8.869,0,0,1-1.978-2.872,8.464,8.464,0,0,1-.676-3.4,8.191,8.191,0,0,1,.7-3.283A8.748,8.748,0,0,1,19.86,2.582,8.991,8.991,0,0,1,26.207.024a9.478,9.478,0,0,1,3.5.652,8.4,8.4,0,0,1,2.921,1.906A8.665,8.665,0,0,1,34.6,5.429a8.821,8.821,0,0,1,.676,3.4,8.3,8.3,0,0,1-.676,3.331,8.4,8.4,0,0,1-1.954,2.8,8.951,8.951,0,0,1-2.945,1.908,9.289,9.289,0,0,1-3.475.651A8.794,8.794,0,0,1,22.78,16.843ZM23.818,2.776A6.569,6.569,0,0,0,21.694,4.2a6.165,6.165,0,0,0-1.4,2.076,6.171,6.171,0,0,0-.507,2.486,6.468,6.468,0,0,0,.483,2.461,6.329,6.329,0,0,0,1.4,2.076,6.175,6.175,0,0,0,2.076,1.4,6.249,6.249,0,0,0,2.485.482,6.746,6.746,0,0,0,2.51-.482,6.409,6.409,0,0,0,2.1-1.4,6.706,6.706,0,0,0,1.4-2.076,6.133,6.133,0,0,0,.482-2.461A6.468,6.468,0,0,0,32.24,6.3a6.675,6.675,0,0,0-1.424-2.125A6.353,6.353,0,0,0,28.74,2.752a6.363,6.363,0,0,0-4.923.024ZM6.466,17.134A9.646,9.646,0,0,1,3.98,16a8.8,8.8,0,0,1-2.944-3.161A8.571,8.571,0,0,1,0,8.664,8.3,8.3,0,0,1,.7,5.357a8.408,8.408,0,0,1,1.954-2.8A9.2,9.2,0,0,1,5.694.627,10.216,10.216,0,0,1,9.436,0a12.424,12.424,0,0,1,2.822.337A15.03,15.03,0,0,1,15.2,1.375V4.006a14.786,14.786,0,0,0-3.016-1.279,9.253,9.253,0,0,0-2.75-.411,6.783,6.783,0,0,0-4.9,1.834,6.085,6.085,0,0,0-1.93,4.634A6.083,6.083,0,0,0,4.512,13.37,6.631,6.631,0,0,0,9.29,15.228a9.36,9.36,0,0,0,2.992-.507A13.874,13.874,0,0,0,15.348,13.2v2.728a14.728,14.728,0,0,1-3.042,1.183,12.257,12.257,0,0,1-3.065.411A9.688,9.688,0,0,1,6.466,17.134Zm57,.072V.266H75.919V2.413H65.879V7.554H75.7V9.748H65.879v5.286h10.3v2.171Zm-5.768,0L46.575,4.054V17.206H44.186V.266h2.1l11.15,13.152V.266h2.413V17.206Zm-19.644,0V.266h2.413V17.206Z" transform="translate(37.096 7.674)"/>
      <path id="Path_4133" data-name="Path 4133" class="cls-3" d="M30.515,14.02a.263.263,0,0,0-.265-.241H9.906a.283.283,0,0,1-.265-.362,5.957,5.957,0,0,1,9.991-2.172.3.3,0,0,0,.193.1h3.041a.274.274,0,0,0,.241-.41A8.921,8.921,0,0,0,14.95,6.321a8.968,8.968,0,1,0,8.157,13.345.274.274,0,0,0-.241-.41H19.824a.219.219,0,0,0-.193.1A5.957,5.957,0,0,1,9.64,17.181a.283.283,0,0,1,.265-.362H27.353a12.153,12.153,0,1,1-.627-5.7.282.282,0,0,0,.265.193H29.67a.275.275,0,0,0,.265-.362,15.285,15.285,0,1,0,.627,4.32C30.563,14.864,30.539,14.43,30.515,14.02Z" transform="translate(0.016 0.002)"/>
    </g>
  </g>
</svg>
