<svg xmlns="http://www.w3.org/2000/svg" viewBox="-1790 1679 180 50">
  <defs>
    <style>
      .cls-1 {
        fill: none;
      }

      .cls-2 {
        fill: #f7f7f7;
      }
    </style>
  </defs>
  <g id="_01_Logo_Bitmain" data-name="01_Logo_Bitmain" transform="translate(-2130 -3651)">
    <rect id="Rectangle_3065" data-name="Rectangle 3065" class="cls-1" width="180" height="50" transform="translate(340 5330)"/>
    <path id="_01_Logo_Bitmain-2" data-name="01_Logo_Bitmain" class="cls-2" d="M161.618,21.4,143.052,4.94V21.4H138.33V0h4.722l18.566,16.361V0h4.722V21.4Zm-31.41,0V0h4.722V21.4Zm-7,0L112.711,3.946,102.217,21.4H97.5L110.35.019,110.339,0h4.745l-.012.019L127.927,21.4Zm-32.51,0V7.252L81.766,20.97H77.044L67.6,6.993V21.4H62.881V0H67.6L79.36,17.409,90.7,0h4.722V21.4Zm-45.569,0V3.589H34.692V0H60.286V3.589H49.849V21.4Zm-17.4,0V0h4.722V21.4ZM0,20.97V0H17.124A6.233,6.233,0,0,1,23.48,6.1a5.988,5.988,0,0,1-2.092,4.527,5.8,5.8,0,0,1,2.089,4.435,6.027,6.027,0,0,1-6.146,5.9Zm3.293-2.881H16.68a2.942,2.942,0,1,0,0-5.88H3.293Zm0-8.927H16.68a3,3,0,0,0,3.062-2.94,3,3,0,0,0-3.06-2.94H3.293Z" transform="translate(347 5346)"/>
  </g>
</svg>
