<svg xmlns="http://www.w3.org/2000/svg" viewBox="-1154 1679 180 50">
  <defs>
    <style>
      .cls-1 {
        fill: none;
      }

      .cls-2 {
        fill: #f7f7f7;
      }

      .cls-3 {
        fill: #205fec;
      }

      .cls-4 {
        fill: #2f58ff;
      }
    </style>
  </defs>
  <g id="_04_Logo_DatrixTech" data-name="04_Logo_DatrixTech" transform="translate(-2130 -3651)">
    <rect id="Rectangle_3065" data-name="Rectangle 3065" class="cls-1" width="180" height="50" transform="translate(976 5330)"/>
    <g id="_04_Logo_DatrixTech-2" data-name="04_Logo_DatrixTech" transform="translate(990.726 5331)">
      <g id="Group_2159" data-name="Group 2159" transform="translate(61.606 33.539)">
        <path id="Path_4140" data-name="Path 4140" class="cls-2" d="M299.772,139.322v.834H291.8V132.3h7.74v.834h-6.906v6.187Zm-1.692-.533a20.872,20.872,0,0,0-1.923-1.993,13.052,13.052,0,0,1-2.456,1.993,5.969,5.969,0,0,0-.672-.649,12.1,12.1,0,0,0,2.5-1.9c-.742-.672-1.506-1.321-2.178-1.877l.626-.51c.672.51,1.414,1.135,2.155,1.784a12.184,12.184,0,0,0,1.553-2.086l.811.324a14.972,14.972,0,0,1-1.715,2.317,23.739,23.739,0,0,1,2.016,1.97Z" transform="translate(-291.8 -131.767)"/>
        <path id="Path_4141" data-name="Path 4141" class="cls-2" d="M336.575,136.531c-.973.463-2.016.95-2.827,1.321l-.348-.881c.348-.116.765-.278,1.205-.463V133.8h-1.066v-.811h1.066v-2.062h.811v2.062h.973v.811h-.973v2.364c.3-.139.626-.255.95-.394Zm3.082-.718a4.361,4.361,0,0,0,2.387,2.781,3.808,3.808,0,0,0-.6.765,5.048,5.048,0,0,1-2.456-3.152,4.549,4.549,0,0,1-2.711,3.152,3.18,3.18,0,0,0-.579-.672,4.108,4.108,0,0,0,2.5-2.9h-1.645v-.811h1.761c.023-.3.046-.626.046-.927v-.973h-1.553v-.765h1.553V130.9h.834v1.414h2.062V135h.626v.811Zm-.44-1.715c0,.3,0,.6-.023.9h1.275v-1.877h-1.251Z" transform="translate(-323.76 -130.691)"/>
        <path id="Path_4142" data-name="Path 4142" class="cls-2" d="M379.788,136.689a4.233,4.233,0,0,0,.232.649,9.964,9.964,0,0,0-1.807,1.39v0a2.557,2.557,0,0,0-.44-.579,1.177,1.177,0,0,0,.44-.927V135.53h-.9v-.742h.9V133.63h-.51v-.672a1.766,1.766,0,0,0-.185.255,4.152,4.152,0,0,0-.417-.765,6,6,0,0,0,.973-2.2l.718.209a4.808,4.808,0,0,1-.232.765h1.3v.765h-1.6a6.932,6.932,0,0,1-.51.927h1.9v.742h-.672v1.159h.927v.742h-.927V137.2Zm1.576.394c.162.093.348.232.579.371a3.278,3.278,0,0,0,1.738.371c.579,0,1.553-.046,2.178-.116a4.046,4.046,0,0,0-.209.881c-.487.046-1.39.07-1.97.07a3.433,3.433,0,0,1-1.854-.44c-.324-.209-.579-.44-.765-.44-.255,0-.626.51-.927,1l-.556-.811a4.188,4.188,0,0,1,.973-.811v-3.013h-.626v-.788h1.414v3.731Zm-.718-4.565a11.029,11.029,0,0,0-.649-1.761l.718-.232a15.248,15.248,0,0,1,.672,1.715Zm2.039,1.692a1.236,1.236,0,0,0-.718.139,7.951,7.951,0,0,0-.278-.765c.162-.046.278-.278.44-.6a10.54,10.54,0,0,0,.348-1H381.6v-.765h1.112c.093-.324.162-.672.232-1.02l.857.162c-.07.278-.139.556-.232.834h2.062v.765h-2.317c-.185.533-.417,1.043-.626,1.506h.788V132.4h.811v1.066h1.205v.718h-1.205v1.089h1.437v.765h-1.437v1.437h-.811V136.04h-1.831v-.765h1.831v-1.089h-.788Z" transform="translate(-357.333 -130.154)"/>
        <path id="Path_4143" data-name="Path 4143" class="cls-2" d="M425.713,134.241v1.3h2.364v.765h-2.364v1.344h3.522v.765H421.31v-.765h3.476V136.3h-2.271v-.765h2.271v-1.3h-2.364v-.6c-.324.185-.672.394-1.02.556a3.423,3.423,0,0,0-.6-.718A9.668,9.668,0,0,0,425.087,130l.765.371a2,2,0,0,1-.162.232,12.151,12.151,0,0,0,3.963,2.9,2.57,2.57,0,0,0-.579.742c-.348-.185-.672-.394-1-.579v.579Zm2.132-.765a14.53,14.53,0,0,1-2.6-2.225,11.73,11.73,0,0,1-2.549,2.225Z" transform="translate(-390.906 -130)"/>
        <path id="Path_4144" data-name="Path 4144" class="cls-2" d="M474.089,137.685v.834h-8.3v-.834H469.5V135.53h-2.665V134.7H469.5v-1.877h-2.086a6.989,6.989,0,0,1-.927,1.437c-.185-.139-.556-.394-.788-.533a7.89,7.89,0,0,0,1.692-3.383l.9.209a12.256,12.256,0,0,1-.487,1.39H469.5V130.2h.9v1.738h3.244v.857H470.4v1.877h2.9v.834h-2.9v2.155h3.685Z" transform="translate(-425.401 -130.154)"/>
        <path id="Path_4145" data-name="Path 4145" class="cls-2" d="M514.714,132.386a4.852,4.852,0,0,0,3.337,2.41,4.249,4.249,0,0,0-.579.811,5.283,5.283,0,0,1-3.638-3.128c-.487,1.39-1.483,2.572-3.847,3.221a2.717,2.717,0,0,0-.487-.742c2.062-.533,2.966-1.437,3.406-2.549h-3.291V131.6h3.546a11.68,11.68,0,0,0,.185-1.3h.9a11.68,11.68,0,0,1-.185,1.3h3.847v.811h-3.2Zm-5.121,5.77a7.38,7.38,0,0,0,.881-2.294l.765.255a9.378,9.378,0,0,1-.881,2.456Zm5.423-.232c.487,0,.556-.139.6-1.089a2.393,2.393,0,0,0,.765.3c-.093,1.251-.371,1.553-1.321,1.553h-1.993c-1.159,0-1.46-.232-1.46-1.112v-1.715h.857v1.715c0,.278.093.324.672.324h1.877Zm-1.645-3.986a8.309,8.309,0,0,1,1.553,1.089l-.788.487a7.5,7.5,0,0,0-1.506-1.135Zm.209,1.367a8.776,8.776,0,0,1,1.437,1.553l-.718.463a10.346,10.346,0,0,0-1.39-1.6Zm3.221.417a11.578,11.578,0,0,1,1.135,2.48l-.834.3a11.863,11.863,0,0,0-1.066-2.526Z" transform="translate(-459.051 -130.23)"/>
        <path id="Path_4146" data-name="Path 4146" class="cls-2" d="M557.433,132.222v.44c-.162,3.986-.3,5.4-.649,5.84a.893.893,0,0,1-.672.417,4.907,4.907,0,0,1-1.043.023,2.121,2.121,0,0,0-.255-.881c.371.023.7.046.857.046a.376.376,0,0,0,.324-.162c.232-.278.394-1.506.533-4.82h-1.136c-.116,2.341-.44,4.588-1.6,6.025a2.988,2.988,0,0,0-.7-.626c1.043-1.275,1.344-3.314,1.414-5.423h-1.2v-.857h1.228V130.6h.881c0,.533,0,1.089-.023,1.645h2.039Zm3.893-.556v7.23h-.9v-.6H558.87v.672h-.858v-7.3Zm-.9,5.793V132.5H558.87v4.959Z" transform="translate(-492.548 -130.461)"/>
        <path id="Path_4147" data-name="Path 4147" class="cls-2" d="M599.555,137.39c.185.093.394.255.718.417a5.255,5.255,0,0,0,2.41.394,30.059,30.059,0,0,0,3.314-.185,2.955,2.955,0,0,0-.232.857c-.649.046-2.2.093-3.082.093a5.072,5.072,0,0,1-2.549-.463c-.394-.209-.718-.487-.927-.487-.324,0-.811.51-1.275,1.066l-.533-.742a4.634,4.634,0,0,1,1.344-.973v-2.711h-1.251v-.811h2.086v3.546Zm-.533-4.426a9.73,9.73,0,0,0-1.437-1.576l.649-.463a12.841,12.841,0,0,1,1.483,1.506Zm3.36,2.9a6.142,6.142,0,0,1-1.993,1.738,5.026,5.026,0,0,0-.556-.672,5.689,5.689,0,0,0,2.2-1.715H600.32v-2.364h2.086V132.2h-2.387v-.718h2.387V130.6h.834v.881h2.549v.718H603.24v.649h2.178v2.364h-1.9a15.192,15.192,0,0,1,2.178,1.645l-.533.579a11.307,11.307,0,0,0-1.923-1.553v1.923h-.834V135.86Zm-1.275-1.321h1.275v-1.02h-1.275Zm2.109-1.02v1.02h1.344v-1.02Z" transform="translate(-526.582 -130.461)"/>
        <path id="Path_4148" data-name="Path 4148" class="cls-2" d="M647.087,136.318a7.23,7.23,0,0,0,2.526,1.159,2.529,2.529,0,0,0-.533.7c-.139-.046-.278-.093-.44-.139v2.225h-.834v-.185h-1.414v.232H645.6V137.43h1.738A5.652,5.652,0,0,1,646,136.341h-1.692a7.517,7.517,0,0,1-1.3,1.089h1.831v2.827h-.834v-.185h-1.321v.232H641.9v-2.271a3.7,3.7,0,0,1-.533.232,2.315,2.315,0,0,0-.463-.672,7.92,7.92,0,0,0,2.248-1.251h-2.062v-.788h2.827a4.487,4.487,0,0,0,.556-.857h-2.758v-2.6h3.036v2.48l.672.139a7.772,7.772,0,0,1-.487.834h2.294a4.962,4.962,0,0,0-1-.487l.394-.371h-.973v-2.6h3.128v2.6h-1.854a5.31,5.31,0,0,1,1.159.626l-.232.232h1.6v.765Zm-3.175-3.476h-1.437v1.112h1.437Zm.093,5.307h-1.321v1.135h1.321Zm3.824,1.135v-1.135h-1.414v1.135Zm-1.39-5.33h1.506v-1.112h-1.506Z" transform="translate(-560.002 -131.613)"/>
      </g>
      <g id="Group_2160" data-name="Group 2160" transform="translate(61.073 6.588)">
        <path id="Path_4149" data-name="Path 4149" class="cls-3" d="M289.57,26.961V25.246h1.275V23.879h2.225v1.367h4.1V23.879H299.4v1.367h1.2v1.715h-1.275a5.439,5.439,0,0,1-2.225,4.426c.278.046.765.139,1.46.255q.765.243,1.182.348v1.622a25.353,25.353,0,0,1-4.612-1.367,24.963,24.963,0,0,1-5.631,1.367V31.99c1.367-.232,2.549-.463,3.592-.672a5.714,5.714,0,0,1-2.132-4.357h-1.39Zm10.822-2.9a6.1,6.1,0,0,1-3.916-4.1h-.255v3.661h-2.2V19.963h-.348a6.117,6.117,0,0,1-3.916,4.009V22.6a6.02,6.02,0,0,0,2.039-2.642h-1.97V18.179H294V14.1h2.225v4.1h3.916v1.437a8.331,8.331,0,0,0,2.225-5.446h2.48a24.241,24.241,0,0,1-.6,2.549h5.121v1.784h-1.205c-.046,4.5-.834,7.833-2.294,10.057a11.375,11.375,0,0,0,3.244,3.152V33.7a21.406,21.406,0,0,1-4.519-3.5,20.9,20.9,0,0,1-4.519,3.406V31.735a13.6,13.6,0,0,0,3.244-3.152,19.062,19.062,0,0,1-2.387-7.578l-.857.417v-1.46h-1.622a5.113,5.113,0,0,0,1.97,2.642v1.46Zm-9.362-6.489a9.415,9.415,0,0,1-.857-2.989h1.97a12.779,12.779,0,0,0,.765,2.989Zm4.009,12.792a4.2,4.2,0,0,0,2.039-3.406h-3.916A4.194,4.194,0,0,0,295.038,30.368Zm2.294-12.792a12.779,12.779,0,0,0,.765-2.989h1.97a8.848,8.848,0,0,1-.857,2.989Zm7.253,8.783a20.4,20.4,0,0,0,1.367-7.833h-2.48a6.426,6.426,0,0,1-1.112,1.46h.765A18.607,18.607,0,0,0,304.586,26.359Z" transform="translate(-289.5 -14.007)"/>
        <path id="Path_4150" data-name="Path 4150" class="cls-3" d="M391.4,21.22V19.691a7.416,7.416,0,0,0,1.622-5.191h2.387c-.046.232-.116.579-.162,1.02a3.268,3.268,0,0,0-.162.857h4.264v1.715h-2.132v4.774h2.48V24.58h-2.48A12.864,12.864,0,0,0,400.206,32v2.039A11.053,11.053,0,0,1,396.29,29.1a11.392,11.392,0,0,1-4.612,5.029V32.344a11.109,11.109,0,0,0,3.059-7.763h-3.152V22.866h3.152v-4.8h-.185A6.591,6.591,0,0,1,391.4,21.22Zm11.679,12.027c-1.877.046-2.781-.788-2.734-2.549V15.427h10.822v1.784h-8.273v3.152h7.323V25.3q.07,2.746-2.642,2.642h-4.681v2.225c-.046,1.02.417,1.506,1.46,1.46h7v1.622Zm4.774-11.17h-4.959v4.171h3.847c.742,0,1.112-.348,1.112-1.02Z" transform="translate(-367.786 -14.315)"/>
        <path id="Path_4151" data-name="Path 4151" class="cls-3" d="M494.433,16.742V14.957H498.6a11.805,11.805,0,0,0,3.592-.51v1.877a17.629,17.629,0,0,1-2.642.417v2.734H502.1v1.784h-2.48a13.22,13.22,0,0,0,2.387,4.774v2.48a17.783,17.783,0,0,1-2.48-3.152v8.273h-2.48v-7.6A20.322,20.322,0,0,1,493.9,30.46v-2.48a22.842,22.842,0,0,0,3.059-6.743h-2.8V19.453h2.9V16.742Zm8.018,11.749V26.706h6.4V14.1h2.642V26.706h2.48v1.784h-2.48v5.121h-2.642V28.491Zm5.121-3.824a16.292,16.292,0,0,0-4.936-1.97V20.82a12.925,12.925,0,0,1,4.936,1.367Zm.417-5.284a16.213,16.213,0,0,0-4.774-1.715V15.792a12.582,12.582,0,0,1,4.774,1.182Z" transform="translate(-446.533 -14.007)"/>
        <path id="Path_4152" data-name="Path 4152" class="cls-3" d="M597.262,18.474V16.759h2.132V13.793h2.642v2.989h1.715V18.5h-1.715v4.264c.556-.162,1.182-.348,1.877-.51v1.784a2.977,2.977,0,0,1-.6.162,5.982,5.982,0,0,1-1.275.51v5.979c0,1.715-.881,2.549-2.642,2.549H597.61V31.451h.857c.626.046.927-.232.927-.857V25.472a4.228,4.228,0,0,0-.927.162c-.579.046-1.02.116-1.367.162V23.572c.857-.116,1.622-.209,2.294-.255V18.451h-2.132Zm7.23-.6V16.087h4.426V13.7h2.8v2.387h4.936v1.784h-4.936v2.989h4.357v1.784a15.213,15.213,0,0,1-3.916,6.558,15.558,15.558,0,0,0,4.681,2.387V33.3a28.764,28.764,0,0,1-6.558-2.642,33.926,33.926,0,0,1-6.743,2.734V31.683a21.168,21.168,0,0,0,5.029-2.48,15.922,15.922,0,0,1-3.661-5.631h2.734a18.063,18.063,0,0,0,2.734,4.1,14.522,14.522,0,0,0,2.9-5.029h-8.69V20.861h4.357V17.871Z" transform="translate(-525.819 -13.7)"/>
      </g>
      <g id="Group_2161" data-name="Group 2161" transform="translate(0 0)">
        <path id="Path_4153" data-name="Path 4153" class="cls-4" d="M34.782.583c-2.271-.811-5.052-.811-6.234,0-.765.533-.649,1.275.139,1.947L24.863,4.453A2.823,2.823,0,0,0,21.9,3.735,5.087,5.087,0,0,0,18.189,6.84L14.018,8.091a4.564,4.564,0,0,0,.046-.95c-.162-1.854-2.132-1.321-4.38,1.205-2.225,2.48-3.916,6.025-3.731,7.9.162,1.854,2.132,1.321,4.38-1.205a16.891,16.891,0,0,0,3.592-6.3l4.218-1.275c.023,1.367,1.437,2.155,3.291,1.738,1.947-.44,3.638-2.016,3.777-3.522a1.7,1.7,0,0,0-.07-.7l4.1-2.062a5.969,5.969,0,0,0,1.275.579c2.271.811,5.052.811,6.234,0C37.91,2.692,37.053,1.394,34.782.583Z" transform="translate(-4.52 0.025)"/>
        <path id="Path_4154" data-name="Path 4154" class="cls-4" d="M12.764,91.873a3.789,3.789,0,0,0-2.016,1.182l-3.5-3.939a3.308,3.308,0,0,0,.278-.718c.7-2.155.139-4.7-1.228-5.724-1.367-1-3.059-.07-3.754,2.086a6.017,6.017,0,0,0,.487,4.913l-.7,2.387a3.925,3.925,0,0,0-.9-.788C.019,90.459-.583,92.128.089,95s2.341,5.863,3.754,6.674,2.016-.857,1.344-3.731A15.181,15.181,0,0,0,2.73,92.522L3.4,90.158a4.448,4.448,0,0,0,.348.324,2.057,2.057,0,0,0,2.989-.626l3.453,3.893a4.779,4.779,0,0,0-.232,3.893,5.509,5.509,0,0,0,6.118,3.731c2.433-.556,3.661-3.152,2.734-5.77A5.391,5.391,0,0,0,12.764,91.873Z" transform="translate(0.186 -63.202)"/>
      </g>
      <g id="Group_2162" data-name="Group 2162" transform="translate(6.194 6.667)">
        <path id="Path_4155" data-name="Path 4155" class="cls-3" d="M159.1,31.03c.51-.093.649-.672.278-1.3a1.792,1.792,0,0,0-1.6-.973c-.51.093-.649.672-.278,1.3A1.816,1.816,0,0,0,159.1,31.03Z" transform="translate(-126.996 -28.747)"/>
        <path id="Path_4156" data-name="Path 4156" class="cls-3" d="M65.189,74.094A2.4,2.4,0,0,0,64.1,71.058a2.05,2.05,0,0,0-2.781,1.182,2.4,2.4,0,0,0,1.089,3.036A2.05,2.05,0,0,0,65.189,74.094Z" transform="translate(-53.125 -61.105)"/>
        <path id="Path_4157" data-name="Path 4157" class="cls-3" d="M26.9,176.156c-.626-.116-.417.533.463,1.46a6.926,6.926,0,0,0,2.758,1.9c.626.116.417-.533-.463-1.46A7.087,7.087,0,0,0,26.9,176.156Z" transform="translate(-26.542 -141.986)"/>
        <path id="Path_4158" data-name="Path 4158" class="cls-3" d="M52.513,179.971c-.417.07-.44.533-.046,1.043a1.8,1.8,0,0,0,1.437.788c.417-.07.44-.533.046-1.043A1.77,1.77,0,0,0,52.513,179.971Z" transform="translate(-46.243 -144.92)"/>
        <path id="Path_4159" data-name="Path 4159" class="cls-3" d="M124.332,204.6a2.99,2.99,0,0,0-1.808.533c-.255.278.093.533.834.533a2.99,2.99,0,0,0,1.808-.533C125.445,204.832,125.074,204.6,124.332,204.6Z" transform="translate(-100.219 -163.849)"/>
        <path id="Path_4160" data-name="Path 4160" class="cls-3" d="M100.769,160.532c.023-1.831-1.877-2.6-4.287-1.692-2.387.9-4.38,3.105-4.4,4.936a2.023,2.023,0,0,0,.162.857l-3.893,1.483A4,4,0,0,0,85.8,164.61c-2.387-.579-5.168.023-6.21,1.344s.046,2.874,2.433,3.453,5.168-.023,6.21-1.344a1.618,1.618,0,0,0,.348-1.39l3.986-1.529c.718.765,2.132.95,3.8.324a5.162,5.162,0,0,0,1.135-.556l.556,1.553a3.457,3.457,0,0,0-1.275,1.089c-.232.417.278.463,1.135.093a4.852,4.852,0,0,0,1.97-1.437c.232-.417-.278-.463-1.135-.093-.046.023-.116.046-.162.07l-.579-1.6C99.61,163.521,100.745,161.922,100.769,160.532Z" transform="translate(-66.991 -128.401)"/>
        <path id="Path_4161" data-name="Path 4161" class="cls-3" d="M119.4,146.019a2.389,2.389,0,0,0,2.2-2.248,1.9,1.9,0,0,0-2.2-1.808,2.389,2.389,0,0,0-2.2,2.248A1.9,1.9,0,0,0,119.4,146.019Z" transform="translate(-96.191 -115.719)"/>
        <path id="Path_4162" data-name="Path 4162" class="cls-3" d="M107.322,50.435c-.324-.6-.834-.046-1.112,1.251a8.569,8.569,0,0,0-.162,1.112l-1.344.51a3.23,3.23,0,0,0-.626-2.155,1.5,1.5,0,0,0-.209-.185V43.877c1.066,0,1.529-1.321,1.043-3.244-.556-2.132-2.109-4.171-3.476-4.542S99.42,37.133,100,39.265c.07.255.162.533.255.788l-2.711.788a9.95,9.95,0,0,0-9.038-6.558,7.885,7.885,0,0,0-5.284,2.086L78.239,32.8a5.246,5.246,0,0,1-.649.579l5.052,3.638a9.089,9.089,0,0,0-2.086,6.859,10.548,10.548,0,0,0,2.225,5.585L76.2,55.44a5.824,5.824,0,0,1,.6.718l6.581-5.979a9.276,9.276,0,0,0,6.859,3.059c4.866-.046,8.435-4.333,7.972-9.571A10.958,10.958,0,0,0,97.8,41.56l2.781-.811a6.352,6.352,0,0,0,2.6,2.943v7.022c-.649.023-1.321.6-1.808,1.622-.718,1.553-.672,3.546.116,4.426s1.993.348,2.711-1.205a5.655,5.655,0,0,0,.463-1.622l1.367-.51a4.159,4.159,0,0,0,.278,1.738c.324.6.834.046,1.112-1.251A6.49,6.49,0,0,0,107.322,50.435Z" transform="translate(-64.693 -31.861)"/>
      </g>
    </g>
  </g>
</svg>
