<svg xmlns="http://www.w3.org/2000/svg" viewBox="-730 1899 180 50">
  <defs>
    <style>
      .cls-1 {
        fill: none;
      }

      .cls-2 {
        fill: #307ae8;
      }
    </style>
  </defs>
  <g id="_18_Logo_Prdae" data-name="18_Logo_Prdae" transform="translate(-2130 -3651)">
    <rect id="Rectangle_3065" data-name="Rectangle 3065" class="cls-1" width="180" height="50" transform="translate(1400 5550)"/>
    <path id="_18_Logo_Prdae-2" data-name="18_Logo_Prdae" class="cls-2" d="M43.1,49.884l-.308-1.646h-.1l-.309,1.646H41.039V49.37l.617-1.749-.514-1.44v-.617h1.234l.309,1.543h.1l.308-1.543H44.33v.617l-.514,1.44.617,1.749v.514Zm19.337-.1V45.565H65.21v.514L65,46.593H63.667v.514H65v1.029H63.667v.617H65.21v1.029Zm-3.188,0a.486.486,0,0,1-.514-.514V46.079a.486.486,0,0,1,.514-.514h2.674v.514l-.206.514H60.067V48.65h.514V47.313h1.337v2.469Zm-2.366,0-.617-1.954h-.1l.206,1.44v.514H55.13V45.565h1.44l.617,1.954h.1l-.206-1.44v-.514h1.234v4.217Zm-3.394,0-.1-.823h-.617l-.1.823H51.427v-.514l.617-3.7H54.2l.617,3.7v.514ZM52.97,47.93h.308l-.1-1.234h-.1Zm-3.189,1.851V48.136h-.514v1.646H47.93V45.565h1.337v1.543h.514V45.565h1.337v4.217Zm-11.725,0V45.565h2.777v.514l-.206.514H39.291v.514h1.337v1.029H39.291v.617h1.543v1.029Zm-3.394,0V46.593h-.823V45.565h2.983v.514l-.206.514H36v3.189Zm-3.806,0V45.565h2.777v.514l-.206.514H32.091v.514h1.337v1.029H32.091v.617h1.543v1.029Zm-7.817,0-.1-.823H22.32l-.1.823H20.88v-.514l.617-3.7h2.263l.617,3.7v.514Zm-.514-1.851h.411l-.1-1.234h-.206Zm-5.349,1.851V45.565h1.337v3.188h1.337v1.029Zm-1.646,0-.1-.823h-.617l-.1.823H13.371v-.514l.617-3.7h2.263l.617,3.7v.514Zm-.514-1.851h.308l-.1-1.234h-.1Zm-3.6,1.851V46.593H10.7V45.565H13.68v.514l-.308.514h-.617v3.189Zm-2.366,0V45.565h1.337v4.217Zm-3.086,0a.486.486,0,0,1-.514-.514V46.079a.486.486,0,0,1,.514-.514H8.537v.514l-.206.514H6.686V48.65H7.2V47.313H8.537v2.469Zm-2.366,0V45.565H4.937v4.217Zm-3.6,0V45.565H2.674a.486.486,0,0,1,.514.514v3.189a.486.486,0,0,1-.514.514Zm1.337-1.029h.514V46.7H1.337Zm43.919.926a.486.486,0,0,1-.514-.514V45.976a.486.486,0,0,1,.514-.514h2.263v.617l-.206.514H45.976V48.65h1.543v1.029Zm-17.691,0V48.65h1.543v-.309l-1.131-.72A.621.621,0,0,1,27.668,47v-.926a.486.486,0,0,1,.514-.514h2.263v.514l-.206.514H28.9V46.8l1.131.72c.309.206.309.411.309.72v.926a.486.486,0,0,1-.514.514Zm-3.086,0V48.65h1.543v-.309l-1.131-.72A.622.622,0,0,1,24.582,47v-.926a.486.486,0,0,1,.514-.514h2.263v.514l-.206.514H25.817V46.8l1.131.72c.309.206.309.411.309.72v.926a.486.486,0,0,1-.514.514ZM43.4,42.993V38.468h1.337v4.526Zm-8.331,0a.486.486,0,0,1-.514-.514V39.085a.486.486,0,0,1,.514-.514h2.263v.412l-.206.617H35.793v2.263h1.543v1.131Zm-2.983,0V38.468h1.337v4.526Zm-3.806,0V38.468h2.88v.514l-.206.617H29.622v.72h1.337V41.45H29.622v1.543Zm-2.365,0V38.468h1.337v4.526Zm-3.292,0a.486.486,0,0,1-.514-.514V39.085a.486.486,0,0,1,.514-.514h2.366v.412l-.206.617H23.451v2.263h1.543v1.131Zm-8.743,0V38.468H16.56a.486.486,0,0,1,.514.514v1.954a.576.576,0,0,1-.514.617H15.223v1.44Zm1.337-2.571h.514V39.6h-.514ZM48.65,42.89V40.73h-.1l-.309,2.16H47.108L47,40.73h-.1v2.16H45.565v-.514l.411-3.908h1.44l.308,1.749h.1l.308-1.749h1.44l.411,3.908v.514Zm-7.508,0-.309-1.44h-.308v1.44H39.188V38.365h2.571v.1a.486.486,0,0,1,.514.514V40.73a.566.566,0,0,1-.309.514l.411,1.131v.514Zm-.617-2.469h.514V39.6h-.514ZM19.851,42.89l-.1-.926h-.617l-.1.926H17.691v-.514l.617-3.908h2.263l.617,3.908v.514Zm-.514-1.954h.309l-.1-1.337h-.1ZM37.336,38.57Zm0-.1v0ZM24.994,38.57Zm0-.1v0Zm29.622-4.526H52.353V3.394h6.068l2.263,2.263H54.616V17.691h6.068v1.851H54.616V31.679h6.068l-2.263,2.263ZM34.045,13.165V3.394l2.263,2.263V31.782l-2.263,2.16ZM27.977,33.942V3.394h2.263V33.942Zm-24.171,0V3.394H12.24V9.668l-2.263,2.16V5.657H6.069V33.942Zm42.582-3.394L44.125,10.594,42.376,30.548h-2.16L42.89,0h2.366l3.292,30.548Zm-24.479,0V22.114l2.263,2.16v6.274Zm-6.171,0V0h8.434V6.274l-2.263,2.16V2.263H18V30.548Z" transform="translate(1457 5550)"/>
  </g>
</svg>
