<svg xmlns="http://www.w3.org/2000/svg" viewBox="-942 1789 180 50">
  <defs>
    <style>
      .cls-1 {
        fill: none;
      }

      .cls-2 {
        fill: #f7f7f7;
      }

      .cls-3 {
        fill: #1499ff;
      }
    </style>
  </defs>
  <g id="_11_Logo_Bibox" data-name="11_Logo_Bibox" transform="translate(-2130 -3651)">
    <rect id="Rectangle_3065" data-name="Rectangle 3065" class="cls-1" width="180" height="50" transform="translate(1188 5440)"/>
    <g id="_11_Logo_Bibox-2" data-name="11_Logo_Bibox" transform="translate(1205 5445)">
      <path id="Path_4136" data-name="Path 4136" class="cls-2" d="M34.023,26.945V12.888a2.107,2.107,0,0,0-.167-4.207,2.12,2.12,0,0,0-1.786.985L19.933,2.654a2.1,2.1,0,0,0,.083-.551,2.1,2.1,0,1,0-4.207,0,1.906,1.906,0,0,0,.083.551L3.923,9.566A2.084,2.084,0,0,0,2.1,8.514a2.107,2.107,0,0,0-.317,4.19v14.09a2.107,2.107,0,1,0,1.753,3.623l12.354,7.129a1.916,1.916,0,0,0-.1.618,2.1,2.1,0,0,0,4.207,0,1.916,1.916,0,0,0-.1-.618l12.354-7.129a2.076,2.076,0,0,0,1.586.735,2.105,2.105,0,0,0,2.1-2.1A2.06,2.06,0,0,0,34.023,26.945ZM31.786,10.467a2.045,2.045,0,0,0-.033.317,2.112,2.112,0,0,0,1.436,2V27.045a2.067,2.067,0,0,0-.8.484l-12.17-8.08a2.281,2.281,0,0,0,.117-.751,2.409,2.409,0,0,0-2.02-2.387V4.174a2.1,2.1,0,0,0,1.235-.768ZM16.26,3.406a2.1,2.1,0,0,0,1.235.768v12.12A2.414,2.414,0,0,0,15.659,19.6L3.74,27.529a2.2,2.2,0,0,0-1.1-.7V12.654a2.1,2.1,0,0,0,1.586-2.037,1.264,1.264,0,0,0-.017-.25Zm3.272,33.406a2.08,2.08,0,0,0-1.619-.751,2.135,2.135,0,0,0-1.619.751L4.023,29.733a2.127,2.127,0,0,0,.184-.868,2.272,2.272,0,0,0-.083-.6L16.093,20.3a2.413,2.413,0,0,0,1.8.818,2.438,2.438,0,0,0,1.92-.935L31.9,28.214a2.236,2.236,0,0,0-.167.818,2.047,2.047,0,0,0,.1.651Z" transform="translate(0 0)"/>
      <path id="Path_4140" data-name="Path 4140" class="cls-3" d="M656.235,91.9a1.214,1.214,0,0,1,.05.651,1.125,1.125,0,0,1-.384.684,1.282,1.282,0,0,1-.668.3,3.5,3.5,0,0,1-.885-.067l-.6-.117a1.132,1.132,0,0,1-.367-.1.188.188,0,0,1-.083-.134q0-.075.05-.451l.334-1.786,1.068.2a2.871,2.871,0,0,1,1.018.334,1.174,1.174,0,0,1,.467.484Zm.05-3.756a4.307,4.307,0,0,0-1.085-.3l-.9-.167-.384,2,.9.167a3.8,3.8,0,0,0,1.068.083,1.006,1.006,0,0,0,.568-.267.911.911,0,0,0,.267-.518.858.858,0,0,0-.067-.584.636.636,0,0,0-.367-.417Zm8,2.5a9.541,9.541,0,1,1-9.549-9.549,9.533,9.533,0,0,1,9.549,9.549Zm-5.609-2.538a2.07,2.07,0,0,0-.818-.885,2.479,2.479,0,0,0-.518-.25l.267-1.452-1.386-.25-.25,1.352-.885-.167.25-1.369-1.386-.25-.25,1.352-2.137-.4-.217,1.152.334.05a1.1,1.1,0,0,1,.434.134.255.255,0,0,1,.117.2,1.251,1.251,0,0,1-.033.467l-.868,4.591a2.116,2.116,0,0,1-.134.467.31.31,0,0,1-.2.117.894.894,0,0,1-.451-.033l-.334-.05-.217,1.135,2.137.384-.25,1.369,1.4.25.25-1.352.8.15a.212.212,0,0,0,.1.017l-.25,1.369,1.386.25.284-1.469a3.723,3.723,0,0,0,.651-.067,2.6,2.6,0,0,0,1.285-.634,1.97,1.97,0,0,0,.618-1.135,2.03,2.03,0,0,0-.067-1.052,1.915,1.915,0,0,0-.568-.835,3.753,3.753,0,0,0-.818-.484,3.193,3.193,0,0,0,.952-.3,1.98,1.98,0,0,0,.618-.551,2.005,2.005,0,0,0,.317-.751,2.055,2.055,0,0,0-.167-1.068Z" transform="translate(-537.487 -67.561)"/>
      <path id="Union_12" data-name="Union 12" class="cls-2" d="M92.037,25.159l-4.491-5.743-4.491,5.743H77.6l7.229-9.232-7.4-9.466h5.459l4.658,5.977L92.2,6.461h5.459l-7.4,9.466L97.5,25.159Zm-48.614-1.97v1.97H37.3V0h6.127V8.447a9.049,9.049,0,0,1,5.643-1.97c5.058,0,8.481,4.174,8.5,9.349,0,5.159-3.439,9.332-8.5,9.332A9.015,9.015,0,0,1,43.422,23.189Zm-.167-7.412a4.664,4.664,0,1,0,9.316,0,4.664,4.664,0,1,0-9.316,0ZM25.192,25.159V6.511h6.26V25.159ZM0,25.159V0H13.706A6,6,0,0,1,19.7,5.993v.334a6.013,6.013,0,0,1-3.74,5.559,7.082,7.082,0,0,1,4.591,6.594,6.676,6.676,0,0,1-6.678,6.678Zm5.86-4.941H12.1a2.83,2.83,0,1,0,0-5.659H5.86Zm0-10.4h5.609a2.32,2.32,0,0,0,0-4.641H5.86ZM25.192,4.023V0h6.26V4.023Z" transform="translate(48.397 7.479)"/>
    </g>
  </g>
</svg>
