<svg xmlns="http://www.w3.org/2000/svg" viewBox="-1578 1679 180 50">
  <defs>
    <style>
      .cls-1 {
        fill: none;
      }

      .cls-2 {
        fill: #f7f7f7;
      }

      .cls-3 {
        fill: #fff;
      }

      .cls-3, .cls-4 {
        fill-rule: evenodd;
      }

      .cls-4 {
        fill: #e14b45;
      }
    </style>
  </defs>
  <g id="_02_Logo_8BTC" data-name="02_Logo_8BTC" transform="translate(-2130 -3651)">
    <rect id="Rectangle_3065" data-name="Rectangle 3065" class="cls-1" width="180" height="50" transform="translate(552 5330)"/>
    <g id="_02_Logo_8BTC-2" data-name="02_Logo_8BTC" transform="translate(575.071 5340.657)">
      <path id="Union_7" data-name="Union 7" class="cls-2" d="M6.2,29.6a10.808,10.808,0,0,1-3.313-2.034A9.012,9.012,0,0,1,.755,24.682,7.939,7.939,0,0,1,0,21.3a8.289,8.289,0,0,1,.348-2.31,7.243,7.243,0,0,1,1.1-2.249,8.258,8.258,0,0,1,1.922-1.895,9.065,9.065,0,0,1,2.8-1.313,9.434,9.434,0,0,1-3.647-2.848A5.916,5.916,0,0,1,1.337,7.156a6.217,6.217,0,0,1,.538-2.512,6.315,6.315,0,0,1,1.64-2.21A8.618,8.618,0,0,1,6.211.86a10.629,10.629,0,0,1,3.752-.6,11.455,11.455,0,0,1,3.686.559A9.688,9.688,0,0,1,16.5,2.3a6.489,6.489,0,0,1,1.831,2.131,5.324,5.324,0,0,1,.648,2.532,6.592,6.592,0,0,1-1.188,3.588,8.6,8.6,0,0,1-3.555,2.99,9.226,9.226,0,0,1,4.888,3.031,7.354,7.354,0,0,1,1.671,4.664A8.347,8.347,0,0,1,20.1,24.5a9.289,9.289,0,0,1-2,2.951,10.058,10.058,0,0,1-3.227,2.131,11.474,11.474,0,0,1-4.375.794A11.47,11.47,0,0,1,6.2,29.6ZM8.139,16.234a6.564,6.564,0,0,0-1.2,1.612,8.2,8.2,0,0,0-.708,1.85,7.526,7.526,0,0,0-.237,1.791A6.4,6.4,0,0,0,6.337,23.6a5.928,5.928,0,0,0,.943,1.752,4.844,4.844,0,0,0,1.4,1.213,3.218,3.218,0,0,0,1.694.465,3.287,3.287,0,0,0,1.756-.5,4.869,4.869,0,0,0,1.4-1.292,6.756,6.756,0,0,0,.925-1.792,6.11,6.11,0,0,0,.341-2.033,5.2,5.2,0,0,0-.492-2.269,7.366,7.366,0,0,0-1.22-1.83,8.339,8.339,0,0,0-1.587-1.357,10.037,10.037,0,0,0-1.634-.879A5.822,5.822,0,0,0,8.139,16.234ZM7.779,3.516a4.78,4.78,0,0,0-.925,2.945,6.291,6.291,0,0,0,.84,3.069,7.757,7.757,0,0,0,2.48,2.638,7.485,7.485,0,0,0,2.5-2.787,6.959,6.959,0,0,0,.866-3.189,4.963,4.963,0,0,0-.217-1.437A3.971,3.971,0,0,0,12.7,3.5a3.239,3.239,0,0,0-1.037-.879,2.943,2.943,0,0,0-1.4-.341A2.948,2.948,0,0,0,7.779,3.516ZM36.528,28.84a2.456,2.456,0,0,1-1.456-2.446,6.572,6.572,0,0,1,.373-1.962,7.4,7.4,0,0,0,1.687,1.076,3.684,3.684,0,0,0,1.436.309,1.933,1.933,0,0,0,1.332-.479,3.671,3.671,0,0,0,.9-1.271,6.73,6.73,0,0,0,.5-1.753,12.6,12.6,0,0,0,.145-1.921,11.561,11.561,0,0,0-.19-2.021,6.134,6.134,0,0,0-.768-2.079,4.743,4.743,0,0,0-1.646-1.633A5.347,5.347,0,0,0,36.022,14c-.163,0-.433.006-.794.02s-.734.046-1.121.1V28.86h-6V4.388l5.982-.767v8.54h.29a3.756,3.756,0,0,0,1.935-.5,4.855,4.855,0,0,0,1.456-1.305,6.534,6.534,0,0,0,1.272-3.851,4.451,4.451,0,0,0-.354-1.732,4.278,4.278,0,0,0-1.1-1.521,5.593,5.593,0,0,0-1.915-1.076,8.57,8.57,0,0,0-2.788-.407,11.859,11.859,0,0,0-3.311.46,8.626,8.626,0,0,0-2.853,1.4A7.211,7.211,0,0,0,24.7,6a6.885,6.885,0,0,0-.767,3.312,7.894,7.894,0,0,0,.19,1.942,6.345,6.345,0,0,0,.421,1.232,2.964,2.964,0,0,0,.478.749,2.779,2.779,0,0,1,.374.5,6.619,6.619,0,0,1-3.956-1.057,4.15,4.15,0,0,1-1.456-3.6,6.3,6.3,0,0,1,1.042-3.443,10.321,10.321,0,0,1,2.834-2.887,15.063,15.063,0,0,1,4.231-2A17.724,17.724,0,0,1,33.32,0a14.358,14.358,0,0,1,4.375.6,10.618,10.618,0,0,1,3.143,1.541A6.335,6.335,0,0,1,42.732,4.29a5.377,5.377,0,0,1,.624,2.479,6.3,6.3,0,0,1-.767,2.985A6.674,6.674,0,0,1,40.28,12.2a8.415,8.415,0,0,1,3.1.964,6.8,6.8,0,0,1,2.125,1.79,7.308,7.308,0,0,1,1.207,2.369,9.435,9.435,0,0,1,.394,2.729,16.686,16.686,0,0,1-.316,3.115,9.977,9.977,0,0,1-1.1,3.057,7.128,7.128,0,0,1-2.124,2.348,5.7,5.7,0,0,1-3.372.945A8.692,8.692,0,0,1,36.528,28.84Zm38.364-2.872q-2.981-3.5-2.978-10.581a29.55,29.55,0,0,1,.5-5.346,16.014,16.014,0,0,1,1.752-4.965,10.543,10.543,0,0,1,3.35-3.654A9.28,9.28,0,0,1,82.829,0a12.288,12.288,0,0,1,3,.368,7.96,7.96,0,0,1,2.558,1.113,5.8,5.8,0,0,1,1.771,1.9,5.273,5.273,0,0,1,.669,2.7,3.354,3.354,0,0,1-.479,1.882,1.964,1.964,0,0,1-1.77.727,5.137,5.137,0,0,1-1.188-.17,3.632,3.632,0,0,1-1.437-.826,2.179,2.179,0,0,0,.874-1.134,4.344,4.344,0,0,0,.334-1.634,3.249,3.249,0,0,0-.793-2.171,2.627,2.627,0,0,0-2.125-.945,3.271,3.271,0,0,0-2.459,1.115A8.78,8.78,0,0,0,80.047,5.87a19.844,19.844,0,0,0-1.023,4.159,33.5,33.5,0,0,0-.334,4.749,21.6,21.6,0,0,0,.563,5.345,10.148,10.148,0,0,0,1.521,3.464,5.342,5.342,0,0,0,2.271,1.85,7.287,7.287,0,0,0,2.813.538,8.409,8.409,0,0,0,4.27-1.095,7.74,7.74,0,0,0,2.938-2.946l1.044.387a8.642,8.642,0,0,1-1.477,3.056,9.7,9.7,0,0,1-2.459,2.251,11.035,11.035,0,0,1-3.206,1.383,14.73,14.73,0,0,1-3.726.46A10.368,10.368,0,0,1,74.892,25.968Zm-18.4,2.892V3.39h-.419a10.32,10.32,0,0,0-3.123.407,4.921,4.921,0,0,0-2,1.155,4.045,4.045,0,0,0-1.042,1.863,9.808,9.808,0,0,0-.289,2.5,8.953,8.953,0,0,0,.185,2.04,5.775,5.775,0,0,0,.433,1.253,2.878,2.878,0,0,0,.492.728c.163.163.3.314.412.439a6.583,6.583,0,0,1-4.093-1.135c-.984-.754-1.476-2.1-1.476-4.02a8.685,8.685,0,0,1,.662-3.384,6.808,6.808,0,0,1,2.139-2.729A10.989,10.989,0,0,1,52.2.695,21.83,21.83,0,0,1,57.95.039q1.664,0,3.011.137c.9.092,1.744.19,2.537.309S65.073.7,65.855.794a21.027,21.027,0,0,0,2.459.137A14.819,14.819,0,0,0,71.252.682a13.1,13.1,0,0,0,1.98-.558,8.224,8.224,0,0,1,.126,1.344,3.332,3.332,0,0,1-1.024,2.637,5.12,5.12,0,0,1-3.39.9,20.774,20.774,0,0,1-3-.249c-1.108-.165-2.262-.367-3.457-.6v24.7Z" transform="translate(39.348 0.938)"/>
      <path id="Path_36" data-name="Path 36" class="cls-3" d="M24.393,0H7.635C3,0,0,3,0,7.635V24.4c0,4.631,3,7.635,7.635,7.635H24.4c4.631,0,7.635-3,7.635-7.635V7.635C32.028,3,29.024,0,24.393,0Z" transform="translate(0)"/>
      <path id="Path_37" data-name="Path 37" class="cls-4" d="M24.393,0H7.635C3,0,0,3,0,7.635V24.4c0,4.631,3,7.635,7.635,7.635H24.4c4.631,0,7.635-3,7.635-7.635V7.635C32.028,3,29.024,0,24.393,0ZM12.646,1.148a7.808,7.808,0,0,1,6.736,14.089.3.3,0,0,1-.426-.269v-3.26a1.583,1.583,0,0,1,.308-.984,4.125,4.125,0,1,0-6.992-4.283A4.351,4.351,0,0,0,12.8,10.79a1.474,1.474,0,0,1,.262.833v3.345a.423.423,0,0,1-.026.125.3.3,0,0,1-.394.138,7.8,7.8,0,0,1,0-14.082Zm5.431,9.786V23.449A2.133,2.133,0,0,1,16.4,25.581a2.064,2.064,0,0,1-2.447-2.027V11.032A2.133,2.133,0,0,1,15.63,8.9,2.069,2.069,0,0,1,18.077,10.934Zm13.3,6H29.6a.031.031,0,0,0-.033.033v.787a13.782,13.782,0,0,1-13.092,13.9A13.554,13.554,0,0,1,2.46,18.11V16.968a.031.031,0,0,0-.033-.033H.649a.029.029,0,0,1-.02-.052l5.6-5.608a.031.031,0,0,1,.052.026v6.513a9.929,9.929,0,0,0,9.281,10.022,9.72,9.72,0,0,0,10.16-9.714V11.295c0-.026.033-.046.052-.026l5.608,5.608C31.418,16.9,31.405,16.936,31.379,16.936Z" transform="translate(0)"/>
    </g>
  </g>
</svg>
