<svg xmlns="http://www.w3.org/2000/svg" viewBox="-1578 1899 180 50">
  <defs>
    <style>
      .cls-1 {
        fill: none;
      }

      .cls-2 {
        fill: #8fc31f;
      }

      .cls-3 {
        fill: #00a0e9;
        fill-rule: evenodd;
      }
    </style>
  </defs>
  <g id="_14_Logo_KuCoin" data-name="14_Logo_KuCoin" transform="translate(-2130 -3651)">
    <path id="Path_4192" data-name="Path 4192" class="cls-1" d="M0,0H180V50H0Z" transform="translate(552 5550)"/>
    <g id="_14_Logo_KuCoin-2" data-name="14_Logo_KuCoin" transform="translate(573 5558)">
      <path id="Union_11" data-name="Union 11" class="cls-2" d="M44.445,26.268A6.906,6.906,0,0,1,37.481,19.3V7.015A6.906,6.906,0,0,1,44.445.051h6.964a1.843,1.843,0,1,1,0,3.687H44.445a3.235,3.235,0,0,0-3.277,3.277V19.3a3.235,3.235,0,0,0,3.277,3.277h6.964a1.843,1.843,0,1,1,0,3.687Zm46.083-2.048V14.389a3.235,3.235,0,0,0-3.277-3.277H83.359v12.9a1.843,1.843,0,0,1-3.687,0V9.268a1.836,1.836,0,0,1,1.843-1.843h5.735a6.906,6.906,0,0,1,6.964,6.964v9.831a1.843,1.843,0,1,1-3.687,0ZM62.673,26.063A6.864,6.864,0,0,1,55.914,19.1V14.389a7,7,0,0,1,6.759-6.964h.41a6.864,6.864,0,0,1,6.759,6.964V19.1a7,7,0,0,1-6.759,6.964ZM59.4,14.389V19.1a3.235,3.235,0,0,0,3.277,3.277h.41A3.235,3.235,0,0,0,66.36,19.1V14.389a3.235,3.235,0,0,0-3.277-3.277h-.41A3.235,3.235,0,0,0,59.4,14.389ZM26.421,26.063A6.906,6.906,0,0,1,19.457,19.1V9.268A1.836,1.836,0,0,1,21.3,7.425a1.806,1.806,0,0,1,1.843,1.639v9.831a3.235,3.235,0,0,0,3.277,3.277h3.892V9.268a1.843,1.843,0,1,1,3.687,0V24.219a1.836,1.836,0,0,1-1.843,1.844ZM0,24.219V1.895a1.843,1.843,0,1,1,3.687,0V24.219a1.843,1.843,0,1,1-3.687,0Zm73.118-.2V9.268a1.836,1.836,0,0,1,1.843-1.843,1.98,1.98,0,0,1,1.843,1.843V24.015a1.843,1.843,0,0,1-3.687,0Zm-59.806.819L5.12,10.7a1.588,1.588,0,0,1,.2-2.048L13.518.461a2.148,2.148,0,0,1,2.663,0c.819.819.819,2.048,0,2.458L9.012,10.087l7.374,12.9a1.715,1.715,0,0,1-.615,2.458,1.5,1.5,0,0,1-.91.3A1.762,1.762,0,0,1,13.313,24.834ZM73.118,1.895A1.836,1.836,0,0,1,74.962.051a1.98,1.98,0,0,1,1.843,1.843,1.843,1.843,0,1,1-3.687,0Z" transform="translate(43.216 4.762)"/>
      <path id="Path_1016" data-name="Path 1016" class="cls-3" d="M82.245,17.667,92.691,28.112l6.554-6.554a3.041,3.041,0,0,1,4.3,4.3l-8.807,8.6a2.97,2.97,0,0,1-4.3,0L77.944,21.968v7.373a3.072,3.072,0,1,1-6.144,0V5.992a3.072,3.072,0,1,1,6.144,0v7.373L90.438.872a2.97,2.97,0,0,1,4.3,0l8.807,8.807a3.041,3.041,0,0,1-4.3,4.3L92.691,7.221,82.245,17.667ZM92.691,14.8a3.072,3.072,0,1,0,3.072,3.072A3.15,3.15,0,0,0,92.691,14.8Z" transform="translate(-71.8 0.05)"/>
    </g>
  </g>
</svg>
