<svg xmlns="http://www.w3.org/2000/svg" viewBox="-1578 1789 180 50">
  <defs>
    <style>
      .cls-1 {
        fill: none;
      }

      .cls-2 {
        fill: #f7f7f7;
      }

      .cls-3 {
        fill: #88bdf3;
      }

      .cls-4 {
        fill: #3075ee;
      }

      .cls-5 {
        fill: #5795f1;
      }

      .cls-6 {
        fill: #205fec;
      }

      .cls-7 {
        fill: #134bef;
      }

      .cls-10, .cls-7, .cls-8, .cls-9 {
        fill-rule: evenodd;
      }

      .cls-8 {
        fill: #0932e8;
      }

      .cls-9 {
        fill: #164bea;
      }

      .cls-10 {
        fill: #3170f1;
      }
    </style>
  </defs>
  <g id="_08_logo_OKEx" data-name="08_logo_OKEx" transform="translate(-2130 -3651)">
    <rect id="Rectangle_3065" data-name="Rectangle 3065" class="cls-1" width="180" height="50" transform="translate(552 5440)"/>
    <g id="_08_logo_OKEx-2" data-name="08_logo_OKEx" transform="translate(573 5441)">
      <path id="Text" class="cls-2" d="M259.2,65.934a13.171,13.171,0,0,1-.783,4.608,11.154,11.154,0,0,1-2.258,3.778,10.754,10.754,0,0,1-3.64,2.58,11.991,11.991,0,0,1-4.93.945,12.378,12.378,0,0,1-4.93-.945,10.754,10.754,0,0,1-3.64-2.58,11.009,11.009,0,0,1-2.258-3.778,14.343,14.343,0,0,1,0-9.216,10.7,10.7,0,0,1,5.9-6.382,11.991,11.991,0,0,1,4.93-.945,12.379,12.379,0,0,1,4.93.945,10.754,10.754,0,0,1,3.64,2.58,11.257,11.257,0,0,1,2.258,3.8A13.355,13.355,0,0,1,259.2,65.934Zm-11.589,8.133a6.547,6.547,0,0,0,2.949-.622,6.141,6.141,0,0,0,2.12-1.7,7.305,7.305,0,0,0,1.267-2.58,12.751,12.751,0,0,0,0-6.451,7.305,7.305,0,0,0-1.267-2.58,5.888,5.888,0,0,0-2.12-1.7,6.616,6.616,0,0,0-2.949-.622,6.546,6.546,0,0,0-2.949.622,6.142,6.142,0,0,0-2.12,1.7,7.306,7.306,0,0,0-1.267,2.58,12.75,12.75,0,0,0,0,6.451,7.306,7.306,0,0,0,1.267,2.58,5.889,5.889,0,0,0,2.12,1.7A6.546,6.546,0,0,0,247.612,74.067Zm14.63,3.387V54.415h4.838V65.473l7.995-11.059h5.6L272.194,65.8l9.054,11.658h-5.99l-8.2-11.312V77.454Zm20.943-23.039H297.03v3.848h-8.985v5.575h8.571v3.825h-8.571v5.944h9.1v3.848H283.207V54.415Zm31.1,0h5.253l-7.58,11.45,7.718,11.589h-5.3L309.4,69.6l-4.976,7.856h-5.3l7.718-11.589-7.58-11.45h5.253L309.4,62.2Z" transform="translate(-181.628 -41.559)"/>
      <g id="Path-raw">
        <ellipse id="Oval" class="cls-3" cx="11.059" cy="11.059" rx="11.059" ry="11.059" transform="translate(13.363)"/>
        <ellipse id="Oval-Copy" class="cls-4" cx="11.059" cy="11.059" rx="11.059" ry="11.059" transform="translate(13.363 26.725)"/>
        <ellipse id="Oval-Copy-2" class="cls-5" cx="11.059" cy="11.059" rx="11.059" ry="11.059" transform="translate(26.725 13.363)"/>
        <ellipse id="Oval-Copy-3" class="cls-6" cx="11.059" cy="11.059" rx="11.059" ry="11.059" transform="translate(0 13.363)"/>
        <path id="Combined-Shape" class="cls-7" d="M67.483,67.483A11.076,11.076,0,0,1,59.35,59.35,11.076,11.076,0,0,1,67.483,67.483Z" transform="translate(-45.676 -45.676)"/>
        <path id="Combined-Shape-2" data-name="Combined-Shape" class="cls-8" d="M59.35,125.483a11.076,11.076,0,0,1,8.133-8.133A11.076,11.076,0,0,1,59.35,125.483Z" transform="translate(-45.676 -90.313)"/>
        <path id="Combined-Shape-3" data-name="Combined-Shape" class="cls-9" d="M117.35,117.35a11.076,11.076,0,0,1,8.133,8.133A11.076,11.076,0,0,1,117.35,117.35Z" transform="translate(-90.314 -90.313)"/>
        <path id="Combined-Shape-4" data-name="Combined-Shape" class="cls-10" d="M125.483,59.35a11.076,11.076,0,0,1-8.133,8.133A11.076,11.076,0,0,1,125.483,59.35Z" transform="translate(-90.314 -45.676)"/>
      </g>
    </g>
  </g>
</svg>
