<svg xmlns="http://www.w3.org/2000/svg" viewBox="-1578 1789 180 50">
  <defs>
    <style>
      .cls-1 {
        fill: none;
      }

      .cls-2 {
        fill: #f7f7f7;
        opacity: 0.2;
      }
    </style>
  </defs>
  <g id="_08_logo_OKEx" data-name="08_logo_OKEx" transform="translate(-2130 -3651)">
    <rect id="Rectangle_3065" data-name="Rectangle 3065" class="cls-1" width="180" height="50" transform="translate(552 5440)"/>
    <g id="_08_logo_OKEx-2" data-name="08_logo_OKEx" transform="translate(573 5441)">
      <path id="Text" class="cls-2" d="M259.2,65.934a13.17,13.17,0,0,1-.783,4.608,11.154,11.154,0,0,1-2.258,3.778,10.754,10.754,0,0,1-3.64,2.58,11.992,11.992,0,0,1-4.93.945,12.378,12.378,0,0,1-4.93-.945,10.754,10.754,0,0,1-3.64-2.58,11.008,11.008,0,0,1-2.258-3.778,14.344,14.344,0,0,1,0-9.216,10.7,10.7,0,0,1,5.9-6.382,11.991,11.991,0,0,1,4.93-.945,12.379,12.379,0,0,1,4.93.945,10.754,10.754,0,0,1,3.64,2.58,11.257,11.257,0,0,1,2.258,3.8A13.355,13.355,0,0,1,259.2,65.934Zm-11.589,8.133a6.547,6.547,0,0,0,2.949-.622,6.141,6.141,0,0,0,2.12-1.7,7.305,7.305,0,0,0,1.267-2.58,12.752,12.752,0,0,0,0-6.451,7.305,7.305,0,0,0-1.267-2.58,5.888,5.888,0,0,0-2.12-1.7,6.616,6.616,0,0,0-2.949-.622,6.546,6.546,0,0,0-2.949.622,6.142,6.142,0,0,0-2.12,1.7,7.306,7.306,0,0,0-1.267,2.58,12.751,12.751,0,0,0,0,6.451,7.306,7.306,0,0,0,1.267,2.58,5.889,5.889,0,0,0,2.12,1.7A6.546,6.546,0,0,0,247.612,74.067Zm14.63,3.387V54.415h4.838V65.474l7.995-11.059h5.6L272.195,65.8l9.055,11.658h-5.99l-8.2-11.312V77.454Zm20.943-23.04h13.847v3.848h-8.985v5.576h8.571v3.825h-8.571v5.944h9.1v3.848H283.208V54.415Zm31.1,0h5.253l-7.58,11.451,7.718,11.589h-5.3L309.4,69.6l-4.977,7.856h-5.3l7.718-11.589-7.58-11.451h5.253L309.4,62.2Z" transform="translate(-181.627 -41.559)"/>
      <g id="Path-raw">
        <ellipse id="Oval" class="cls-2" cx="11.059" cy="11.059" rx="11.059" ry="11.059" transform="translate(13.363)"/>
        <ellipse id="Oval-Copy" class="cls-2" cx="11.059" cy="11.059" rx="11.059" ry="11.059" transform="translate(13.363 26.726)"/>
        <ellipse id="Oval-Copy-2" class="cls-2" cx="11.059" cy="11.059" rx="11.059" ry="11.059" transform="translate(26.726 13.363)"/>
        <ellipse id="Oval-Copy-3" class="cls-2" cx="11.059" cy="11.059" rx="11.059" ry="11.059" transform="translate(0 13.363)"/>
      </g>
    </g>
  </g>
</svg>
