<svg xmlns="http://www.w3.org/2000/svg" viewBox="-1366 1679 180 50">
  <defs>
    <style>
      .cls-1 {
        fill: none;
      }

      .cls-2 {
        fill: #f7f7f7;
        opacity: 0.2;
      }
    </style>
  </defs>
  <g id="_03_Logo_Detrust" data-name="03_Logo_Detrust" transform="translate(-2130 -3651)">
    <rect id="Rectangle_3065" data-name="Rectangle 3065" class="cls-1" width="180" height="50" transform="translate(764 5330)"/>
    <g id="_03_Logo_Detrust-2" data-name="03_Logo_Detrust" transform="translate(779 5334)">
      <path id="Union_14" data-name="Union 14" class="cls-2" d="M66.175,32.315V27.783h.633v4.566c0,.178.078.255.178.255h.144l.089.456a1.019,1.019,0,0,1-.367.055C66.375,33.115,66.175,32.826,66.175,32.315ZM67.9,31.238a1.726,1.726,0,0,1,1.644-1.878,1.574,1.574,0,0,1,1.066.422l-.033-.622h.011V27.772h.633v5.243H70.7l-.067-.422h-.011a1.738,1.738,0,0,1-1.155.511C68.508,33.1,67.9,32.427,67.9,31.238Zm.645-.011c0,.866.378,1.377,1.055,1.377a1.305,1.305,0,0,0,.978-.488h-.011V30.238a1.346,1.346,0,0,0-.922-.378A1.218,1.218,0,0,0,68.542,31.227Zm-9.631.011A1.769,1.769,0,1,1,60.676,33.1,1.758,1.758,0,0,1,58.91,31.238Zm.666,0c0,.822.444,1.366,1.1,1.366s1.111-.544,1.111-1.366-.455-1.378-1.111-1.378S59.577,30.416,59.577,31.238Zm-11.708,0A1.777,1.777,0,0,1,49.59,29.36a1.466,1.466,0,0,1,1.51,1.655,2.629,2.629,0,0,1-.033.344H48.5a1.229,1.229,0,0,0,1.266,1.255,1.7,1.7,0,0,0,.955-.278l.233.4a2.433,2.433,0,0,1-1.266.367A1.755,1.755,0,0,1,47.868,31.238Zm.633-.289h2.033c0-.722-.344-1.111-.944-1.111A1.137,1.137,0,0,0,48.5,30.949Zm-17.985.289A1.726,1.726,0,0,1,32.16,29.36a1.574,1.574,0,0,1,1.066.422l-.033-.622H33.2V27.772h.633v5.243h-.522l-.067-.422h-.011a1.738,1.738,0,0,1-1.155.511C31.127,33.1,30.516,32.427,30.516,31.238Zm.645-.011c0,.866.378,1.377,1.055,1.377a1.305,1.305,0,0,0,.978-.488h-.011V30.238a1.346,1.346,0,0,0-.922-.378A1.218,1.218,0,0,0,31.16,31.227Zm-4.555.011a1.777,1.777,0,0,1,1.722-1.878,1.46,1.46,0,0,1,1.511,1.655,2.63,2.63,0,0,1-.033.344H27.239a1.229,1.229,0,0,0,1.266,1.255,1.7,1.7,0,0,0,.955-.278l.233.4a2.434,2.434,0,0,1-1.266.367A1.755,1.755,0,0,1,26.606,31.238Zm.644-.289h2.033c0-.722-.344-1.111-.944-1.111A1.137,1.137,0,0,0,27.25,30.949ZM19.563,30.6a2.273,2.273,0,0,1,2.277-2.511,1.945,1.945,0,0,1,1.411.6l-.356.4a1.454,1.454,0,0,0-1.055-.455c-.978,0-1.622.755-1.622,1.955s.622,1.978,1.6,1.978a1.651,1.651,0,0,0,1.2-.533l.356.378A2.072,2.072,0,0,1,21.8,33.1,2.244,2.244,0,0,1,19.563,30.6Zm21.806,1.3V29.927H40.8v-.456l.6-.033.078-1h.533v1h1.033v.489H42.014v2c0,.433.144.689.588.689a1.173,1.173,0,0,0,.434-.1l.122.444a2.443,2.443,0,0,1-.7.133C41.647,33.093,41.369,32.626,41.369,31.9Zm-4.21,0V29.927h-.567v-.456l.6-.033.078-1H37.8v1h1.033v.489H37.8v2c0,.433.144.689.589.689a1.173,1.173,0,0,0,.433-.1l.122.444a2.445,2.445,0,0,1-.7.133C37.437,33.093,37.159,32.626,37.159,31.9ZM46.3,33.048V30.86c0-.678-.222-.955-.722-.955a1.467,1.467,0,0,0-1.044.544v2.589H43.9V27.794h.633v1.433l-.022.733a1.826,1.826,0,0,1,1.266-.6c.8,0,1.166.478,1.156,1.422v2.266Zm10.287-.022-.555-1.933c-.089-.334-.167-.655-.255-1.022h-.033c-.078.367-.156.7-.255,1.044l-.534,1.911h-.744l-1.055-3.577h.655l.566,2.066c.078.344.156.667.222,1h.033c.077-.333.155-.667.255-1l.589-2.066H56.1l.6,2.066c.089.344.177.667.267,1H57c.078-.333.144-.655.234-1l.544-2.066h.6l-1.022,3.577Zm-21.462,0V29.449h.633v3.577Zm28.327-.011V29.438h.522l.056.655h.022a1.347,1.347,0,0,1,1.066-.745.9.9,0,0,1,.411.078l-.122.522a.937.937,0,0,0-.367-.056c-.311,0-.7.211-.955.822v2.3Zm-39.192,0V29.438h.522l.055.655h.022a1.364,1.364,0,0,1,1.066-.745.9.9,0,0,1,.411.078l-.122.522a.936.936,0,0,0-.366-.056c-.311,0-.7.211-.955.822v2.3Zm50.367-2.288v-.344H86.382v.344Zm-69.73,0v-.344H16.652v.344Zm30.1-2.4a.448.448,0,0,1,.889,0,.448.448,0,0,1-.889,0ZM71.052,18.74l1.089-2.721a5.587,5.587,0,0,0,3.321,1.244c1.388,0,2.011-.6,2.011-1.488,0-1.056-1.433-1.544-2.9-2.122-1.755-.689-3.788-1.777-3.8-4.143,0-2.555,2.033-4.355,5.154-4.355A7.307,7.307,0,0,1,79.939,6.4L78.884,9.054a5.1,5.1,0,0,0-2.855-1.111c-1.244,0-1.833.555-1.833,1.366,0,1.044,1.355,1.422,2.822,1.978,1.833.711,3.866,1.644,3.866,4.277,0,2.477-1.911,4.477-5.521,4.477A8.528,8.528,0,0,1,71.052,18.74Zm-52.933-1.3a7.711,7.711,0,0,1-1.5-4.877,7.435,7.435,0,0,1,1.988-5.51,6.713,6.713,0,0,1,4.977-1.988,6.978,6.978,0,0,1,5.343,2.088q1.949,2.083,1.866,6.388H20.74a3.594,3.594,0,0,0,.966,2.588,3.167,3.167,0,0,0,2.311.922,5.264,5.264,0,0,0,2.311-.455,3.683,3.683,0,0,0,.989-.844l1.522,2.477a8.562,8.562,0,0,1-.7.555,7.586,7.586,0,0,1-4.166,1.066Q20.024,19.851,18.119,17.441ZM21.64,8.82a3.368,3.368,0,0,0-.844,2.422h6a3.5,3.5,0,0,0-.9-2.466,3.046,3.046,0,0,0-4.255.044Zm36.281,10.4a3.618,3.618,0,0,1-1.577-1.755,8.178,8.178,0,0,1-.489-3.133V5.388h3.6v6.487a18.54,18.54,0,0,0,.2,3.655,2,2,0,0,0,.722,1.066,2.206,2.206,0,0,0,1.333.389,2.741,2.741,0,0,0,1.655-.522,2.59,2.59,0,0,0,1-1.3,15.774,15.774,0,0,0,.267-3.81V5.388h3.6V19.529H64.887V17.407a5.247,5.247,0,0,1-1.944,1.777,5.3,5.3,0,0,1-2.555.655A4.791,4.791,0,0,1,57.921,19.218Zm26.228-4.677V7.865H82.561V5.31h1.589V2.588L87.627.4V5.3h3.721V7.854H87.627v6.21c0,3.166,1.844,2.922,4.277,2.5v2.788a11.574,11.574,0,0,1-2.808.387C86.039,19.738,84.149,18.06,84.149,14.541ZM33.716,14.53H33.7V7.865H32.116V5.31H33.7V2.588L37.181.4V5.3H40.9V7.854H37.181v6.21c0,3.166,1.855,2.922,4.288,2.489V19.34a11.581,11.581,0,0,1-2.808.386C35.605,19.727,33.716,18.05,33.716,14.53Zm10.075,5V5.221h3.477V7.254a4.991,4.991,0,0,1,1.811-1.866,5.951,5.951,0,0,1,4.71.133L52.323,8.376c-2.188-1.3-4.188-.522-4.477,1.933a37.02,37.02,0,0,0-.311,4.8v4.421ZM0,19.518V0H6.31A10.971,10.971,0,0,1,9.565.378a5.744,5.744,0,0,1,2.577,1.8,9.084,9.084,0,0,1,1.633,3.166,16.5,16.5,0,0,1,.555,4.61,14.332,14.332,0,0,1-.522,4.155,9.064,9.064,0,0,1-1.833,3.444,5.857,5.857,0,0,1-2.422,1.555,9.121,9.121,0,0,1-3.055.411ZM3.455,16.23v.022H6.032a8.372,8.372,0,0,0,2.088-.189,3.034,3.034,0,0,0,1.4-.811,4.39,4.39,0,0,0,.9-1.888,14.423,14.423,0,0,0,.356-3.577A13.194,13.194,0,0,0,10.42,6.31a4.588,4.588,0,0,0-.977-1.889,3.136,3.136,0,0,0-1.6-.922A13.771,13.771,0,0,0,5.01,3.31H3.455Z" transform="translate(57.588 7.165)"/>
      <path id="Subtraction_1" data-name="Subtraction 1" class="cls-2" d="M22.662,45.324a22.556,22.556,0,0,1-12.671-3.87,22.728,22.728,0,0,1-8.211-9.971A22.632,22.632,0,0,1,3.87,9.992a22.729,22.729,0,0,1,9.971-8.211A22.632,22.632,0,0,1,35.333,3.87a22.728,22.728,0,0,1,8.21,9.971,22.632,22.632,0,0,1-2.089,21.491,22.728,22.728,0,0,1-9.971,8.21A22.52,22.52,0,0,1,22.662,45.324ZM10.254,17.207a.445.445,0,0,0-.444.444v2.633a.445.445,0,0,0,.444.444h6.254L13.464,36.393a.87.87,0,0,0,.18.727.9.9,0,0,0,.7.329h9.32A12.831,12.831,0,0,0,36.5,24.606V21.173A12.831,12.831,0,0,0,23.662,8.332H10.233a.424.424,0,0,0-.424.434v4.521a.445.445,0,0,0,.444.444H23.717a7.372,7.372,0,0,1,7.376,7.376V24.04a7.988,7.988,0,0,1-8,8H20.307a.442.442,0,0,1-.344-.164.428.428,0,0,1-.089-.358l2.733-14.308Z" transform="translate(0 0)"/>
    </g>
  </g>
</svg>
