<svg xmlns="http://www.w3.org/2000/svg" viewBox="-730 1899 180 50">
  <defs>
    <style>
      .cls-1 {
        fill: none;
      }

      .cls-2 {
        fill: #f7f7f7;
        opacity: 0.2;
      }
    </style>
  </defs>
  <g id="_18_Logo_Prdae" data-name="18_Logo_Prdae" transform="translate(-2130 -3651)">
    <rect id="Rectangle_3065" data-name="Rectangle 3065" class="cls-1" width="180" height="50" transform="translate(1400 5550)"/>
    <path id="_18_Logo_Prdae-2" data-name="18_Logo_Prdae" class="cls-2" d="M43.1,49.886l-.308-1.646h-.1l-.309,1.646H41.04v-.514l.617-1.749-.514-1.44v-.617h1.234l.309,1.543h.1l.308-1.543h1.234v.617l-.514,1.44.617,1.749v.514Zm19.337-.1V45.566h2.777v.514l-.206.514H63.669v.514h1.337v1.029H63.669v.617h1.543v1.029Zm-3.188,0a.486.486,0,0,1-.514-.514V46.08a.486.486,0,0,1,.514-.514H61.92v.514l-.206.514H60.069v2.057h.514V47.314H61.92v2.469Zm-2.366,0-.617-1.954h-.1l.206,1.44v.514H55.132V45.566h1.44l.617,1.954h.1l-.206-1.44v-.514H58.32v4.217Zm-3.394,0-.1-.823h-.617l-.1.823H51.429v-.514l.617-3.7h2.16l.617,3.7v.514Zm-.514-1.851h.308l-.1-1.234h-.1Zm-3.189,1.851V48.137h-.514v1.646H47.932V45.566h1.337v1.543h.514V45.566H51.12v4.217Zm-11.726,0V45.566h2.777v.514l-.206.514H39.291v.514h1.337v1.029H39.291v.617h1.543v1.029Zm-3.394,0V46.594H33.84V45.566h2.983v.514l-.206.514H36v3.189Zm-3.806,0V45.566h2.777v.514l-.206.514H32.092v.514h1.337v1.029H32.092v.617h1.543v1.029Zm-7.817,0-.1-.823H22.32l-.1.823H20.88v-.514l.617-3.7H23.76l.617,3.7v.514Zm-.514-1.851h.411l-.1-1.234h-.206Zm-5.349,1.851V45.566h1.337v3.188h1.337v1.029Zm-1.646,0-.1-.823h-.617l-.1.823H13.372v-.514l.617-3.7h2.263l.617,3.7v.514Zm-.514-1.851h.309l-.1-1.234h-.1Zm-3.6,1.851V46.594H10.7V45.566H13.68v.514l-.309.514h-.617v3.189Zm-2.366,0V45.566h1.337v4.217Zm-3.086,0a.486.486,0,0,1-.514-.514V46.08a.486.486,0,0,1,.514-.514H8.537v.514l-.206.514H6.686v2.057H7.2V47.314H8.537v2.469Zm-2.366,0V45.566H4.937v4.217Zm-3.6,0V45.566H2.674a.486.486,0,0,1,.514.514v3.189a.486.486,0,0,1-.514.514Zm1.337-1.029h.514V46.7H1.337Zm43.92.926a.486.486,0,0,1-.514-.514V45.977a.486.486,0,0,1,.514-.514H47.52v.617l-.206.514H45.977v2.057H47.52V49.68Zm-17.691,0V48.651h1.543v-.309l-1.131-.72a.621.621,0,0,1-.309-.617V46.08a.486.486,0,0,1,.514-.514h2.263v.514l-.206.514H28.9V46.8l1.131.72c.309.206.309.411.309.72v.926a.486.486,0,0,1-.514.514Zm-3.086,0V48.651h1.543v-.309l-1.131-.72a.622.622,0,0,1-.308-.617V46.08a.486.486,0,0,1,.514-.514H27.36v.514l-.206.514H25.817V46.8l1.131.72c.309.206.309.411.309.72v.926a.486.486,0,0,1-.514.514Zm18.926-6.686V38.469h1.337v4.526Zm-8.332,0a.486.486,0,0,1-.514-.514V39.086a.486.486,0,0,1,.514-.514h2.263v.412l-.206.617H35.794v2.263h1.543v1.131Zm-2.983,0V38.469h1.337v4.526Zm-3.806,0V38.469h2.88v.514l-.206.617H29.623v.72H30.96v1.131H29.623v1.543Zm-2.366,0V38.469h1.337v4.526Zm-3.292,0a.486.486,0,0,1-.514-.514V39.086a.486.486,0,0,1,.514-.514h2.366v.412l-.206.617H23.452v2.263h1.543v1.131Zm-8.743,0V38.469H16.56a.486.486,0,0,1,.514.514v1.954a.576.576,0,0,1-.514.617H15.223v1.44Zm1.337-2.572h.514V39.6h-.514Zm33.429,2.469v-2.16h-.1l-.309,2.16H47.109l-.1-2.16h-.1v2.16H45.566v-.514l.411-3.909h1.44l.308,1.749h.1l.308-1.749h1.44l.411,3.909v.514Zm-7.508,0-.309-1.44h-.308v1.44H39.189V38.366H41.76v.1a.486.486,0,0,1,.514.514v1.749a.566.566,0,0,1-.309.514l.411,1.131v.514Zm-.617-2.469h.514V39.6h-.514ZM19.851,42.891l-.1-.926h-.617l-.1.926H17.691v-.514l.617-3.909h2.263l.617,3.909v.514Zm-.514-1.954h.309l-.1-1.337h-.1ZM37.337,38.571Zm0-.1v0ZM24.994,38.571Zm0-.1v0Zm29.623-4.526H52.354V3.394h6.069l2.263,2.263H54.617V17.691h6.069v1.851H54.617V31.68h6.069l-2.263,2.263ZM34.046,13.166V3.394l2.263,2.263V31.783l-2.263,2.16ZM27.977,33.943V3.394H30.24V33.943Zm-24.171,0V3.394H12.24V9.669l-2.263,2.16V5.657H6.069V33.943Zm42.583-3.394L44.126,10.594,42.377,30.549h-2.16L42.891,0h2.366l3.292,30.549Zm-24.48,0V22.114l2.263,2.16v6.274Zm-6.171,0V0h8.434V6.274l-2.263,2.16V2.263H18V30.549Z" transform="translate(1457 5550)"/>
  </g>
</svg>
