<svg xmlns="http://www.w3.org/2000/svg" viewBox="-1790 1899 180 50">
  <defs>
    <style>
      .cls-1 {
        fill: none;
      }

      .cls-2, .cls-3, .cls-4, .cls-5, .cls-6 {
        fill: #f7f7f7;
      }

      .cls-2 {
        opacity: 0.2;
      }

      .cls-3 {
        opacity: 0.1;
      }

      .cls-4 {
        opacity: 0.15;
      }

      .cls-5 {
        opacity: 0.05;
      }

      .cls-6 {
        opacity: 0.08;
      }
    </style>
  </defs>
  <g id="_13_Logo_Hitbtc" data-name="13_Logo_Hitbtc" transform="translate(-2130 -3651)">
    <rect id="Rectangle_3065" data-name="Rectangle 3065" class="cls-1" width="180" height="50" transform="translate(340 5550)"/>
    <g id="_13_Logo_Hitbtc-2" data-name="13_Logo_Hitbtc" transform="translate(357 5550)">
      <path id="Union_16" data-name="Union 16" class="cls-2" d="M20.637,27.19l1.141,18.757L10.943,26.93l9.694.261-9.694-.261L0,20.257,17.594,9.216l-2.3,9.085h0l5.347,8.889L15.291,18.3l14.638-7.086L26.093,18.3l-5.455,8.89,5.455-8.89-.4,11.172L21.778,45.947ZM20.637,27.19Zm14.8-6.455.9-5.847L40.9,22.4l-5.466-1.663,1.676,2.771h3.377l2.532,9.77-2.369.652-5.216,5.423Zm0,18.616-9.748-9.878.4-11.172,10.248-3.412-.9,5.847L26.093,18.3l9.346,2.434Zm5.216-5.423,1.684,1.217-6.9,4.205ZM31.266,8.748l5.89-3.01-.815,9.15L26.093,18.3Zm-13.671.467,12.334,2L15.291,18.3ZM37.156,5.738l7.194-.185-8.009,9.335Zm7.194-.185L48.588,0l-.945,5.738-6.879,4Z" transform="translate(97.644 0)"/>
      <g id="Group_2161" data-name="Group 2161" transform="translate(97.644 0)">
        <path id="Path_4146" data-name="Path 4146" class="cls-3" d="M898.5,170.356l10.943,6.673,4.347-8.629Z" transform="translate(-898.5 -150.099)"/>
        <path id="Path_4147" data-name="Path 4147" class="cls-4" d="M898.5,95.841,916.094,84.8l-2.3,9.085Z" transform="translate(-898.5 -75.584)"/>
        <path id="Path_4148" data-name="Path 4148" class="cls-2" d="M1039.2,93.885l14.638-7.086-12.334-2Z" transform="translate(-1023.91 -75.584)"/>
        <path id="Path_4149" data-name="Path 4149" class="cls-4" d="M1003.547,168.4l5.347,8.89-9.694-.261Z" transform="translate(-988.257 -150.099)"/>
        <path id="Path_4150" data-name="Path 4150" class="cls-3" d="M999.2,247.8l10.835,19.018-1.141-18.757Z" transform="translate(-988.257 -220.871)"/>
        <path id="Path_4151" data-name="Path 4151" class="cls-5" d="M1089.541,268.957l3.912-16.475L1088.4,250.2Z" transform="translate(-1067.763 -223.01)"/>
        <path id="Path_4152" data-name="Path 4152" class="cls-3" d="M1039.2,168.4H1050l-5.455,8.89Z" transform="translate(-1023.91 -150.099)"/>
        <path id="Path_4153" data-name="Path 4153" class="cls-4" d="M1039.2,110.286H1050l3.836-7.086Z" transform="translate(-1023.91 -91.985)"/>
        <path id="Path_4154" data-name="Path 4154" class="cls-2" d="M1138.6,90.052l5.173-9.552,5.075,6.14Z" transform="translate(-1112.507 -71.752)"/>
        <path id="Path_4155" data-name="Path 4155" class="cls-4" d="M1186.2,55.81l5.89-3.01-.815,9.15Z" transform="translate(-1154.934 -47.062)"/>
        <path id="Path_4156" data-name="Path 4156" class="cls-2" d="M1232.9,60.435l.815-9.15,7.194-.185Z" transform="translate(-1196.559 -45.547)"/>
        <path id="Path_4157" data-name="Path 4157" class="cls-3" d="M1273.6,55.284l6.879-4-3.293-.185Z" transform="translate(-1232.836 -45.547)"/>
        <path id="Path_4158" data-name="Path 4158" class="cls-2" d="M1306.6,5.553,1310.838,0l-.946,5.738Z" transform="translate(-1262.25)"/>
        <path id="Path_4159" data-name="Path 4159" class="cls-2" d="M1093.855,168.4l-.4,11.172-5.053-2.282Z" transform="translate(-1067.763 -150.099)"/>
        <path id="Path_4160" data-name="Path 4160" class="cls-3" d="M1135.3,168.4l9.346,21.05-9.748-9.878Z" transform="translate(-1109.21 -150.099)"/>
        <path id="Path_4161" data-name="Path 4161" class="cls-3" d="M1138.6,140.412l9.346,2.434.9-5.847Z" transform="translate(-1112.507 -122.112)"/>
        <path id="Path_4162" data-name="Path 4162" class="cls-6" d="M1147.946,170.834V189.45L1138.6,168.4Z" transform="translate(-1112.507 -150.099)"/>
        <path id="Path_4163" data-name="Path 4163" class="cls-3" d="M1224.6,209.416l5.216-5.423L1224.6,190.8Z" transform="translate(-1189.161 -170.065)"/>
        <path id="Path_4164" data-name="Path 4164" class="cls-4" d="M1224.6,190.8l7.585,12.541-2.369.652Z" transform="translate(-1189.161 -170.065)"/>
        <path id="Path_4165" data-name="Path 4165" class="cls-2" d="M1240,216.3h3.38l2.532,9.77Z" transform="translate(-1202.888 -192.794)"/>
        <path id="Path_4166" data-name="Path 4166" class="cls-3" d="M1224.6,317.623l6.9-4.206-1.684-1.217Z" transform="translate(-1189.161 -278.272)"/>
        <path id="Path_4167" data-name="Path 4167" class="cls-2" d="M1225.5,137l4.564,7.509-5.466-1.663Z" transform="translate(-1189.161 -122.112)"/>
      </g>
      <path id="Union_15" data-name="Union 15" class="cls-4" d="M36.036,10.379a10.527,10.527,0,0,1,18.235-7.02.233.233,0,0,1-.022.315L50.99,6.521A.207.207,0,0,1,50.7,6.51a5.765,5.765,0,1,0-.011,8.031.232.232,0,0,1,.3-.011l3.26,2.847a.215.215,0,0,1,.022.315,10.527,10.527,0,0,1-18.235-7.314ZM23.463,21.05V4.554H18.268V.011H33.58V4.554H28.385v16.5ZM0,21.05V0H9.737a5.423,5.423,0,0,1,2.619,10.172,5.642,5.642,0,0,1-2.1,10.878Zm4.934-8.5v3.325a.218.218,0,0,0,.217.217H9.183a1.88,1.88,0,1,0,.043-3.76H5.151A.218.218,0,0,0,4.934,12.552Zm.011-7.183V8a.218.218,0,0,0,.217.217H8.944a1.532,1.532,0,1,0,0-3.065H5.162A.218.218,0,0,0,4.945,5.369Z" transform="translate(43.318 25.18)"/>
      <path id="Union_14" data-name="Union 14" class="cls-2" d="M32.222,21.039v-10.2h-1.6V6.292h1.6V1.348H37V6.292h1.6v4.543H37v10.2Zm-10.3,0V6.8h.446a2.156,2.156,0,0,0,1.826,1.226A2.157,2.157,0,0,0,26.017,6.8h.511V21.039Zm-10.672,0V12.791H4.934v8.248H0V0H4.934V8.248h6.314V0h4.934V21.039Zm10.607-18.2a2.337,2.337,0,0,1,4.673,0,2.337,2.337,0,0,1-4.673,0Z" transform="translate(0 25.191)"/>
    </g>
  </g>
</svg>
