<svg xmlns="http://www.w3.org/2000/svg" viewBox="-1790 1679 180 50">
  <defs>
    <style>
      .cls-1 {
        fill: none;
      }

      .cls-2 {
        fill: #f7f7f7;
        opacity: 0.2;
      }
    </style>
  </defs>
  <g id="_01_Logo_Bitmain" data-name="01_Logo_Bitmain" transform="translate(-2130 -3651)">
    <rect id="Rectangle_3065" data-name="Rectangle 3065" class="cls-1" width="180" height="50" transform="translate(340 5330)"/>
    <path id="_01_Logo_Bitmain-2" data-name="01_Logo_Bitmain" class="cls-2" d="M161.623,21.4,143.056,4.939V21.4h-4.722V0h4.722l18.567,16.357V0h4.722V21.4Zm-31.411,0V0h4.722V21.4Zm-7,0L112.715,3.945,102.22,21.4H97.5L110.353.019,110.342,0h4.746l-.012.019L127.931,21.4ZM90.7,21.4V7.251L81.769,20.966H77.047L67.605,6.991V21.4H62.883V0h4.722L79.363,17.405,90.7,0H95.42V21.4Zm-45.57,0V3.589H34.693V0h25.6V3.589H49.85V21.4Zm-17.4,0V0h4.722V21.4ZM0,20.966V0H17.124A6.232,6.232,0,0,1,23.48,6.1a5.986,5.986,0,0,1-2.092,4.526,5.793,5.793,0,0,1,2.09,4.434,6.027,6.027,0,0,1-6.146,5.9Zm3.293-2.88H16.68a2.942,2.942,0,1,0,0-5.879H3.293Zm0-8.925H16.68a3,3,0,0,0,3.062-2.939,3,3,0,0,0-3.06-2.939H3.293Z" transform="translate(347 5346)"/>
  </g>
</svg>
