<svg xmlns="http://www.w3.org/2000/svg" viewBox="-730 1679 180 50">
  <defs>
    <style>
      .cls-1 {
        fill: none;
      }

      .cls-2 {
        fill: #f7f7f7;
        opacity: 0.2;
      }
    </style>
  </defs>
  <g id="_06_Logo_Superbloom" data-name="06_Logo_Superbloom" transform="translate(-2130 -3651)">
    <rect id="Rectangle_3065" data-name="Rectangle 3065" class="cls-1" width="180" height="50" transform="translate(1400 5330)"/>
    <g id="_06_Logo_Superbloom-2" data-name="06_Logo_Superbloom" transform="translate(1400 5341)">
      <path id="Shape" class="cls-2" d="M3.928,22.625c0-.983.013-1.82,0-2.663a8.3,8.3,0,0,0-.146-2.8c-.312-.789-1.176-1.358-1.814-2.007C1.349,14.53.711,13.935,0,13.252c1.17-1.164,2.226-2.261,3.343-3.3a1.761,1.761,0,0,0,.6-1.458c-.027-1.465-.007-2.937-.007-4.516.372-.033.678-.087.99-.087,1.236-.007,2.466-.02,3.7,0A1.573,1.573,0,0,0,9.9,3.352c1.043-1.117,2.14-2.181,3.31-3.352.332.328.645.636.957.95.784.783,1.575,1.559,2.339,2.361a1.726,1.726,0,0,0,1.369.582c1.489-.027,2.984-.007,4.572-.007.04.341.093.615.1.9a25.571,25.571,0,0,1-.013,2.943,3.064,3.064,0,0,0,1.216,2.89c.944.789,1.788,1.7,2.758,2.629-1.19,1.177-2.246,2.281-3.363,3.311a1.761,1.761,0,0,0-.6,1.458c.027,1.465.007,2.937.007,4.516-.372.033-.678.087-.99.087-1.236.007-2.466.02-3.7,0a1.573,1.573,0,0,0-1.276.542c-1.043,1.117-2.14,2.181-3.31,3.352-.332-.328-.645-.636-.957-.95C11.538,24.779,10.747,24,9.982,23.2a1.717,1.717,0,0,0-1.369-.582C7.111,22.645,5.623,22.625,3.928,22.625Zm6.214-16.9c-1.183,1.224.02,4.442,1.887,4.636A3.175,3.175,0,0,0,10.142,5.72Zm4.307,4.669c2.067-.682,3.011-3.191,1.814-4.683A3.242,3.242,0,0,0,14.449,10.389Zm-8.766-.207a3.172,3.172,0,0,0,2.373,2.181,2.449,2.449,0,0,0,2.353-.321A3.207,3.207,0,0,0,5.682,10.182ZM16.09,12.035a3.141,3.141,0,0,0,4.619-1.913C19.453,8.984,16.429,10.142,16.09,12.035Zm.219,8.79c1.216-1.318-.08-4.562-1.887-4.656A3.247,3.247,0,0,0,16.309,20.825ZM5.742,16.336a3.117,3.117,0,0,0,4.626-1.826c-1.449-1.191-4-.181-4.626,1.826Zm15.02.02a3.183,3.183,0,0,0-2.333-2.208,2.628,2.628,0,0,0-2.353.321,3.2,3.2,0,0,0,4.685,1.886Zm-8.748-.234C9.94,16.825,9,19.333,10.206,20.8A3.229,3.229,0,0,0,12.014,16.122Zm-3.8-7.927c.053-.983.1-1.853.153-2.857a11.785,11.785,0,0,0-2.951.107v2.9c.966-.054,1.85-.1,2.8-.154Zm10.049,0c.95.054,1.834.1,2.785.154V5.393H18.108C18.164,6.349,18.21,7.211,18.261,8.195ZM18.1,21.113h2.938V18.157c-.97.06-1.861.114-2.778.167C18.217,19.253,18.164,20.116,18.1,21.113Zm-9.736.02c-.06-1.01-.113-1.9-.173-2.816-.95-.054-1.834-.1-2.765-.147v2.97c1.017-.007,1.932-.007,2.938-.007Zm4.865-.682c-.7.622-1.342,1.191-2.08,1.846.7.682,1.369,1.338,2,1.953.784-.729,1.455-1.351,2.133-1.98-.731-.65-1.369-1.218-2.054-1.82Zm7.151-7.191c.6.689,1.2,1.358,1.695,1.927.691-.662,1.349-1.3,2.027-1.953-.658-.642-1.316-1.284-1.994-1.94-.545.621-1.136,1.29-1.728,1.966ZM4.32,15.267c.611-.7,1.2-1.365,1.768-2.014-.611-.689-1.183-1.338-1.834-2.08-.665.689-1.323,1.365-2.04,2.107.758.715,1.409,1.331,2.107,1.986Zm6.992-10.9c.611.542,1.263,1.11,1.927,1.7.671-.6,1.336-1.184,1.987-1.759-.671-.682-1.316-1.338-1.961-1.987-.653.675-1.289,1.344-1.954,2.046Zm1.894,9.961a1.112,1.112,0,0,0,1.09-1.017,1.1,1.1,0,0,0-1.083-1.124,1.113,1.113,0,0,0-1.05,1.064,1.135,1.135,0,0,0,1.043,1.076Z"/>
      <path id="Union_8" data-name="Union 8" class="cls-2" d="M1.469,11.246A4.729,4.729,0,0,1,0,8.1l2.349-.522a4.338,4.338,0,0,0,.7,2,1.924,1.924,0,0,0,1.6.615,2.86,2.86,0,0,0,1.5-.345,1.121,1.121,0,0,0,.562-1.019A1.246,1.246,0,0,0,6.18,7.74a10.806,10.806,0,0,0-2.456-.986A5.874,5.874,0,0,1,1.168,5.366,2.863,2.863,0,0,1,.416,3.352,3.129,3.129,0,0,1,1.467.986,4.005,4.005,0,0,1,4.321,0,4.878,4.878,0,0,1,7.142.809a3.563,3.563,0,0,1,1.48,2.409l-2.167.556A2.086,2.086,0,0,0,4.321,2.107a2.033,2.033,0,0,0-1.282.337,1.086,1.086,0,0,0-.421.893.877.877,0,0,0,.48.8,19.265,19.265,0,0,0,2.465.969A6.546,6.546,0,0,1,8.193,6.563,3.026,3.026,0,0,1,8.9,8.677a3.321,3.321,0,0,1-1.157,2.594A4.491,4.491,0,0,1,4.653,12.3,4.689,4.689,0,0,1,1.469,11.246Zm14.206,0A3.861,3.861,0,0,1,14.492,8.2V.251h2.234V8.1a2.115,2.115,0,0,0,.538,1.523,2.089,2.089,0,0,0,1.58.565,2.13,2.13,0,0,0,1.589-.556,2.051,2.051,0,0,0,.546-1.5V.251H23.21V8.2a3.84,3.84,0,0,1-1.191,3.04A4.625,4.625,0,0,1,18.843,12.3,4.587,4.587,0,0,1,15.675,11.243Zm101.694.7a4.8,4.8,0,0,1-1.6-1.069,4.966,4.966,0,0,1-1.142-1.955,8.873,8.873,0,0,1-.421-2.871,7.812,7.812,0,0,1,.422-2.645,5.162,5.162,0,0,1,1.142-1.911,4.994,4.994,0,0,1,1.6-1.112,4.764,4.764,0,0,1,3.722,0,5,5,0,0,1,1.6,1.112A5.157,5.157,0,0,1,123.846,3.4a7.815,7.815,0,0,1,.422,2.645,8.909,8.909,0,0,1-.421,2.872,4.974,4.974,0,0,1-1.141,1.955,4.8,4.8,0,0,1-1.6,1.068,5.111,5.111,0,0,1-3.739,0ZM117.3,3.116a4.745,4.745,0,0,0-.777,2.932,5.246,5.246,0,0,0,.761,3.157,2.414,2.414,0,0,0,3.9.017,5.232,5.232,0,0,0,.761-3.175,4.7,4.7,0,0,0-.785-2.932,2.352,2.352,0,0,0-3.863,0Zm-15.418,8.826a4.8,4.8,0,0,1-1.6-1.069,4.961,4.961,0,0,1-1.142-1.955,8.9,8.9,0,0,1-.422-2.871A7.833,7.833,0,0,1,99.148,3.4a5.185,5.185,0,0,1,1.142-1.911,5,5,0,0,1,1.6-1.112,4.764,4.764,0,0,1,3.722,0,4.993,4.993,0,0,1,1.6,1.112A5.149,5.149,0,0,1,108.362,3.4a7.812,7.812,0,0,1,.423,2.645,8.892,8.892,0,0,1-.422,2.872,4.957,4.957,0,0,1-1.142,1.955,4.8,4.8,0,0,1-1.6,1.068,5.11,5.11,0,0,1-3.739,0Zm-.065-8.826a4.739,4.739,0,0,0-.778,2.932,5.246,5.246,0,0,0,.76,3.157,2.414,2.414,0,0,0,3.9.017,5.232,5.232,0,0,0,.761-3.175,4.707,4.707,0,0,0-.785-2.932,2.351,2.351,0,0,0-3.863,0ZM72.191,12.043V.251H77.1a3.374,3.374,0,0,1,2.473.919,3.029,3.029,0,0,1,.935,2.249,2.454,2.454,0,0,1-1.257,2.24v.017A2.767,2.767,0,0,1,80.472,6.7a2.93,2.93,0,0,1,.472,1.676,3.647,3.647,0,0,1-1.009,2.7,4.68,4.68,0,0,1-3.325.977Zm2.234-2.105h2.7a1.4,1.4,0,0,0,1.589-1.567,1.459,1.459,0,0,0-.422-1.12,1.608,1.608,0,0,0-1.149-.4H74.425Zm0-4.935h2.4a1.6,1.6,0,0,0,1.067-.33,1.2,1.2,0,0,0,.39-.968A1.279,1.279,0,0,0,77.9,2.694a1.567,1.567,0,0,0-1.075-.337h-2.4ZM63.856,12.044l-2.332-4.38H59.8v4.38H57.568V.251h4.7a4.081,4.081,0,0,1,2.887,1.02,3.553,3.553,0,0,1,1.1,2.738A3.579,3.579,0,0,1,65.6,6.182a3.492,3.492,0,0,1-1.795,1.264l2.465,4.6ZM59.8,5.692h2.283q1.9,0,1.9-1.685,0-1.7-1.9-1.7H59.8ZM29.71,12.043V.251h4.7a4.088,4.088,0,0,1,2.879,1.02A3.539,3.539,0,0,1,38.4,4.009a3.581,3.581,0,0,1-1.067,2.73,4.071,4.071,0,0,1-2.919,1.01H31.944v4.3Zm2.234-6.4h2.432A1.722,1.722,0,0,0,35.6,5.2a1.543,1.543,0,0,0,.481-1.188,1.52,1.52,0,0,0-.488-1.254,1.865,1.865,0,0,0-1.215-.4H31.944Zm107.593,6.4V4.8H139.5l-3.292,7.243h-.364L132.555,4.8h-.033v7.243h-2.167V.251h2.3L136.012,7.9h.033L139.4.251h2.317V12.043Zm-52.506,0V.251h2.233V9.938h4.781v2.105Zm-43.126,0V.251h7.328V2.357H46.137V5h4.632v2.02H46.137V9.938h5.095v2.105Z" transform="translate(38.28 7.425)"/>
    </g>
  </g>
</svg>
