<svg xmlns="http://www.w3.org/2000/svg" viewBox="-1790 1789 180 50">
  <defs>
    <style>
      .cls-1 {
        fill: none;
      }

      .cls-2, .cls-3 {
        fill: #f7f7f7;
      }

      .cls-2 {
        opacity: 0.2;
      }

      .cls-3 {
        opacity: 0.1;
      }
    </style>
  </defs>
  <g id="_07_logo_Huobi" data-name="07_logo_Huobi" transform="translate(-2130 -3651)">
    <rect id="Rectangle_3065" data-name="Rectangle 3065" class="cls-1" width="180" height="50" transform="translate(340 5440)"/>
    <g id="_07_logo_Huobi-2" data-name="07_logo_Huobi" transform="translate(357 5441)">
      <path id="Union_14" data-name="Union 14" class="cls-2" d="M60.83,29.94a9.879,9.879,0,0,1-7.643-3.076,9.589,9.589,0,0,1-2.352-7.779,11.76,11.76,0,0,1,3.709-7.779A11.492,11.492,0,0,1,62.73,8.231a10.008,10.008,0,0,1,7.643,2.985,9.62,9.62,0,0,1,2.306,7.824,11.872,11.872,0,0,1-3.708,7.824,11.712,11.712,0,0,1-7.959,3.077Zm1.492-17.367a5.927,5.927,0,0,0-4.342,1.9,7.538,7.538,0,0,0-2.035,4.658,5.972,5.972,0,0,0,1.221,4.613,5.11,5.11,0,0,0,4.025,1.809,5.518,5.518,0,0,0,4.342-1.945,7.718,7.718,0,0,0,1.945-4.523,6.146,6.146,0,0,0-1.221-4.568,4.683,4.683,0,0,0-3.8-1.947ZM29.262,20.85,30.3,9.407c0-.317.226-.452.543-.452l4.025-.091a.493.493,0,0,1,.5.453v.045l-.95,10.493c-.317,3.935.9,5.879,3.709,5.879s4.432-1.945,4.749-5.879l.95-10.493c0-.317.226-.452.543-.452h4.115a.493.493,0,0,1,.5.452v.045L47.94,20.85c-.543,6.015-3.935,9-10.131,9S28.719,26.865,29.262,20.85Zm56.8,8.955c-3.075,0-5.156-.86-6.105-2.578l-.226,1.4c0,.226-.317.452-.543.452H75.077a.493.493,0,0,1-.5-.452v-.045L77.112.452A.681.681,0,0,1,77.745,0h4.116a.493.493,0,0,1,.5.452V.5l-.814,9A.465.465,0,0,0,82,10a.411.411,0,0,0,.317-.136,9.745,9.745,0,0,1,5.879-1.719,7.7,7.7,0,0,1,6.513,3.211,10.136,10.136,0,0,1,1.99,7.508A12.591,12.591,0,0,1,93.3,26.684a9.55,9.55,0,0,1-7.078,3.122Zm3.483-6.241a7.17,7.17,0,0,0,1.99-4.523,6.348,6.348,0,0,0-1.221-4.568,4.859,4.859,0,0,0-3.211-1.9,6.341,6.341,0,0,0-5.563,2.442A8,8,0,0,0,80.006,19a5.831,5.831,0,0,0,1.266,4.523,4.682,4.682,0,0,0,3.935,1.945A5.479,5.479,0,0,0,89.549,23.563ZM19.267,29.217a.493.493,0,0,1-.5-.452v-.045l1.04-11.578a.383.383,0,0,0-.362-.452H7.1a.507.507,0,0,0-.543.452L5.517,28.719c0,.317-.226.452-.543.452H.5a.493.493,0,0,1-.5-.452v-.045L2.487.995c0-.317.226-.452.543-.452H7.462a.493.493,0,0,1,.5.452V1.04L7.01,11.849a.383.383,0,0,0,.362.452H19.719a.465.465,0,0,0,.543-.317.166.166,0,0,0,.045-.136l.95-10.809c0-.317.226-.452.543-.452h4.342a.493.493,0,0,1,.5.452v.045L24.151,28.764c0,.316-.226.452-.543.452Zm80.549-.091a.493.493,0,0,1-.5-.452v-.045l1.764-19.267c0-.317.226-.452.543-.452h4.116a.493.493,0,0,1,.5.452v.045l-1.764,19.267c0,.317-.226.452-.543.452Zm2.08-22.7a.493.493,0,0,1-.5-.452V5.925l.317-3.618c0-.317.226-.452.543-.452h4.115a.493.493,0,0,1,.5.452v.045l-.317,3.618a.638.638,0,0,1-.543.452Z" transform="translate(39.448 9.332)"/>
      <g id="Group_2157" data-name="Group 2157" transform="translate(0 0)">
        <path id="Shape_2_" class="cls-3" d="M12.437.3h0a19.424,19.424,0,0,1-.9,8.05,18.664,18.664,0,0,1-1.447,3.392,20.2,20.2,0,0,1-3.075,4.3c-.633.678-1.538,1.4-2.126,1.99a13.374,13.374,0,0,0,.226,20.85c.09.045.226.045.271-.045l.045-.045A30.107,30.107,0,0,1,10.04,28.245a26.328,26.328,0,0,1,3.482-4.3,56.546,56.546,0,0,0,3.98-4.07c3.166-3.663,2.668-6.151,2.035-9.045a18.979,18.979,0,0,0-4.07-8.141h0L14.246,1.381h0L13.432.566h0L12.8-.021a.28.28,0,0,0-.317.09l-.045.045Z" transform="translate(0 0.039)"/>
        <path id="Shape-2_2_" class="cls-2" d="M20.5,62.692a15.263,15.263,0,0,0,8.774.181,14.464,14.464,0,0,0,8.367-6.648,13.691,13.691,0,0,0,1.538-6.241V48.174a1.241,1.241,0,0,0-.09-.588A1.241,1.241,0,0,0,39,47a1.241,1.241,0,0,0-.09-.588c-.045-.181-.045-.317-.09-.5,0-.181-.09-.317-.09-.5s-.09-.317-.09-.5-.09-.317-.09-.5-.09-.317-.09-.5c0-.09-.09-.317-.09-.407s-.09-.317-.09-.407-.09-.317-.09-.407-.09-.317-.09-.407-.09-.181-.09-.407c0-.09-.09-.181-.09-.317,0-.09-.09-.181-.09-.317,0-.09-.09-.181-.09-.317s-.271-.136-.271-.226-.09-.181-.09-.317a.235.235,0,0,0-.09-.181c0-.09-.09-.09-.09-.181s-.09-.09-.09-.181-.09-.09-.09-.181-.09-.09-.09-.181a.1.1,0,0,0-.09-.09h-.09c-.09,0-.09.09-.226.09-.226.5-.724,1.673-.9,2.171-1.719,3.89-4.477,6.739-7.553,9.724a24.192,24.192,0,0,0-3.663,4.387,10.9,10.9,0,0,0-1.131,2.578,22.112,22.112,0,0,1-.407,2.4c-.181.181-.317.452-.5.633a2.092,2.092,0,0,1-1.447.588" transform="translate(-11.229 -21.563)"/>
      </g>
    </g>
  </g>
</svg>
