<svg xmlns="http://www.w3.org/2000/svg" viewBox="-1578 1899 180 50">
  <defs>
    <style>
      .cls-1 {
        fill: none;
      }

      .cls-2, .cls-3 {
        fill: #f7f7f7;
        opacity: 0.2;
      }

      .cls-3 {
        fill-rule: evenodd;
      }
    </style>
  </defs>
  <g id="_14_Logo_KuCoin" data-name="14_Logo_KuCoin" transform="translate(-2130 -3651)">
    <path id="Path_4192" data-name="Path 4192" class="cls-1" d="M0,0H180V50H0Z" transform="translate(552 5550)"/>
    <g id="_14_Logo_KuCoin-2" data-name="14_Logo_KuCoin" transform="translate(573 5558)">
      <path id="Union_11" data-name="Union 11" class="cls-2" d="M44.446,26.269A6.907,6.907,0,0,1,37.482,19.3V7.015A6.907,6.907,0,0,1,44.446.051H51.41a1.843,1.843,0,1,1,0,3.687H44.446a3.235,3.235,0,0,0-3.277,3.277V19.3a3.235,3.235,0,0,0,3.277,3.277H51.41a1.843,1.843,0,1,1,0,3.687ZM90.53,24.22V14.389a3.235,3.235,0,0,0-3.277-3.277H83.361v12.9a1.843,1.843,0,0,1-3.687,0V9.268a1.836,1.836,0,0,1,1.843-1.843h5.735a6.907,6.907,0,0,1,6.964,6.964V24.22a1.843,1.843,0,1,1-3.687,0ZM62.675,26.064A6.864,6.864,0,0,1,55.916,19.1V14.389a7,7,0,0,1,6.759-6.964h.41a6.865,6.865,0,0,1,6.759,6.964V19.1a7,7,0,0,1-6.759,6.964ZM59.4,14.389V19.1a3.235,3.235,0,0,0,3.277,3.277h.41A3.235,3.235,0,0,0,66.361,19.1V14.389a3.235,3.235,0,0,0-3.277-3.277h-.41A3.235,3.235,0,0,0,59.4,14.389ZM26.422,26.064A6.907,6.907,0,0,1,19.458,19.1V9.268A1.836,1.836,0,0,1,21.3,7.425a1.806,1.806,0,0,1,1.843,1.639V18.9a3.235,3.235,0,0,0,3.277,3.277h3.892V9.268a1.843,1.843,0,1,1,3.687,0V24.22a1.836,1.836,0,0,1-1.843,1.844ZM0,24.22V1.895a1.843,1.843,0,1,1,3.687,0V24.22A1.843,1.843,0,1,1,0,24.22Zm73.121-.2V9.268a1.836,1.836,0,0,1,1.843-1.843,1.98,1.98,0,0,1,1.843,1.843V24.015a1.843,1.843,0,0,1-3.687,0Zm-59.807.819L5.12,10.7a1.588,1.588,0,0,1,.2-2.048L13.518.461a2.148,2.148,0,0,1,2.663,0c.819.819.819,2.048,0,2.458L9.012,10.088l7.374,12.9a1.715,1.715,0,0,1-.615,2.458,1.5,1.5,0,0,1-.91.3A1.762,1.762,0,0,1,13.313,24.835ZM73.121,1.895A1.836,1.836,0,0,1,74.964.051a1.98,1.98,0,0,1,1.843,1.843,1.843,1.843,0,1,1-3.687,0Z" transform="translate(43.217 4.762)"/>
      <path id="Path_1016" data-name="Path 1016" class="cls-3" d="M82.246,17.667,92.692,28.113l6.554-6.554a3.041,3.041,0,0,1,4.3,4.3l-8.807,8.6a2.97,2.97,0,0,1-4.3,0L77.945,21.968v7.374a3.072,3.072,0,1,1-6.145,0V5.992a3.072,3.072,0,1,1,6.145,0v7.374L90.439.872a2.97,2.97,0,0,1,4.3,0l8.807,8.807a3.041,3.041,0,1,1-4.3,4.3L92.692,7.221,82.246,17.667ZM92.692,14.8a3.072,3.072,0,1,0,3.072,3.072A3.15,3.15,0,0,0,92.692,14.8Z" transform="translate(-71.8 0.05)"/>
    </g>
  </g>
</svg>
