<svg xmlns="http://www.w3.org/2000/svg" viewBox="-730 1789 180 50">
  <defs>
    <style>
      .cls-1 {
        fill: none;
      }

      .cls-2, .cls-3 {
        fill: #f7f7f7;
      }

      .cls-2 {
        opacity: 0.2;
      }

      .cls-3 {
        opacity: 0.15;
      }
    </style>
  </defs>
  <g id="_12_Logo_EXX" data-name="12_Logo_EXX" transform="translate(-2130 -3651)">
    <rect id="Rectangle_3065" data-name="Rectangle 3065" class="cls-1" width="180" height="50" transform="translate(1400 5440)"/>
    <g id="_12_Logo_EXX-2" data-name="12_Logo_EXX" transform="translate(1423.79 5450.78)">
      <path id="Union_10" data-name="Union 10" class="cls-2" d="M58.219,30.062,48.693,19.054,39.166,30.062H30.274l13.973-16.3L32.391,0h8.892l7.41,8.468L56.1,0h9.1L53.35,13.761l13.973,16.3Zm-43.188,0A15.031,15.031,0,0,1,15.031,0h7.621l5.5,5.928H15.031a9.1,9.1,0,0,0,0,18.207H27.945l-5.5,5.928ZM13.972,18V12.279h19.9l2.752,2.752L33.873,18Z" transform="translate(0 0)"/>
      <path id="Union_9" data-name="Union 9" class="cls-3" d="M67.534,30.274l-2.329-8.045-2.329,8.045H61.395l-2.752-8.257L56.1,30.274H54.62l2.541-8.68a1.342,1.342,0,0,1,1.27-1.059,1.161,1.161,0,0,1,1.27.847l2.4,7.186s1.9-6.7,2.066-7.186a1.18,1.18,0,0,1,1.27-.847c.649.008.824.424,1.036,1.059l2.541,8.68ZM47,30.274a4.869,4.869,0,0,1,0-9.739H48.9a4.869,4.869,0,1,1,0,9.739ZM43.611,25.4A3.344,3.344,0,0,0,47,28.792H48.9a3.387,3.387,0,0,0,0-6.775H47A3.344,3.344,0,0,0,43.611,25.4Zm-16.09,3.811a.847.847,0,1,1,.847.847A.847.847,0,0,1,27.522,29.215Zm-11.644.847L6.563,19.054,4.446,21.382,0,16.09l1.905-2.329L0,11.432,4.446,6.351,6.563,8.468,13.761,0h9.1L11.009,13.761l13.972,16.3Zm19.9,0a4.869,4.869,0,1,1,0-9.738h4.658v1.482H35.778a3.387,3.387,0,1,0,0,6.775h4.658v1.482Z" transform="translate(63.724 0)"/>
    </g>
  </g>
</svg>
