<svg xmlns="http://www.w3.org/2000/svg" viewBox="-1154 1899 180 50">
  <defs>
    <style>
      .cls-1 {
        fill: none;
      }

      .cls-2, .cls-4 {
        opacity: 0.2;
      }

      .cls-3, .cls-4 {
        fill: #f7f7f7;
      }
    </style>
  </defs>
  <g id="_16_Logo_Purdue" data-name="16_Logo_Purdue" transform="translate(-2130 -3651)">
    <rect id="Rectangle_3065" data-name="Rectangle 3065" class="cls-1" width="180" height="50" transform="translate(976 5550)"/>
    <g id="_15_Logo_Purdue" data-name="15_Logo_Purdue" transform="translate(976 5564)">
      <g id="Group_2159" data-name="Group 2159" class="cls-2">
        <path id="Path_4140" data-name="Path 4140" class="cls-3" d="M9.595,1.114A4.778,4.778,0,0,0,6.219,0H0V1.183l1.125.2a.46.46,0,0,1,.383.452v9.885a.46.46,0,0,1-.383.452L0,12.368V13.54H4.861V12.368l-1.125-.2a.46.46,0,0,1-.383-.452V8.11H6.23a4.848,4.848,0,0,0,3.376-1.1,3.871,3.871,0,0,0,1.2-2.947A3.839,3.839,0,0,0,9.595,1.114ZM8.284,5.94a2.686,2.686,0,0,1-2.065.743H3.353V1.439H6.23A2.682,2.682,0,0,1,8.3,2.193a2.7,2.7,0,0,1,.685,1.88A2.729,2.729,0,0,1,8.284,5.94Z"/>
        <path id="Path_4141" data-name="Path 4141" class="cls-3" d="M105.506,23.2v.951l.824.139a.46.46,0,0,1,.383.452v5.813a2.3,2.3,0,0,1-.743,1.868,2.9,2.9,0,0,1-1.949.638,2.606,2.606,0,0,1-1.845-.638,2.408,2.408,0,0,1-.7-1.868V24.743a.46.46,0,0,1,.383-.452l.824-.139V23.2H98.8v.951l.824.139a.46.46,0,0,1,.383.452v5.813a3.369,3.369,0,0,0,1.114,2.715,4.349,4.349,0,0,0,2.912.94,4.631,4.631,0,0,0,3-.94,3.306,3.306,0,0,0,1.149-2.715V24.743a.46.46,0,0,1,.383-.452l.824-.139V23.2h-3.887Z" transform="translate(-87.337 -20.508)"/>
        <path id="Path_4142" data-name="Path 4142" class="cls-3" d="M210.027,32.76a1.521,1.521,0,0,1-.128-.743v-.87a3.022,3.022,0,0,0-.394-1.613,2.2,2.2,0,0,0-1.276-.951,2.993,2.993,0,0,0,1.265-.963,2.35,2.35,0,0,0,.441-1.4,2.711,2.711,0,0,0-.951-2.228,4.161,4.161,0,0,0-2.715-.789H201.5v.94l.824.139a.46.46,0,0,1,.383.452v7.762a.46.46,0,0,1-.383.452l-.824.139v.94h3.9v-.94l-.824-.139a.46.46,0,0,1-.383-.452V29.21h2.355a1.818,1.818,0,0,1,1.381.534,1.958,1.958,0,0,1,.51,1.427v.847a2.746,2.746,0,0,0,.36,1.45,1.319,1.319,0,0,0,1.218.592h1.52V33.1C211.536,33.085,210.318,33.213,210.027,32.76ZM207.9,27.586a2.769,2.769,0,0,1-1.787.464h-1.926v-3.7h2.077a2.346,2.346,0,0,1,1.659.5,1.766,1.766,0,0,1,.534,1.357A1.71,1.71,0,0,1,207.9,27.586Z" transform="translate(-178.122 -20.508)"/>
        <path id="Path_4143" data-name="Path 4143" class="cls-3" d="M302.57,24.511a5.855,5.855,0,0,0-3.979-1.311H293.3v.951l1.021.151a.463.463,0,0,1,.394.464v7.75a.474.474,0,0,1-.394.464l-1.021.151v.94h5.291a5.871,5.871,0,0,0,3.979-1.3,4.282,4.282,0,0,0,1.508-3.376V27.887A4.318,4.318,0,0,0,302.57,24.511Zm-.209,4.861a3.409,3.409,0,0,1-1.009,2.541,3.76,3.76,0,0,1-2.761.986h-2.17V24.349h2.17a3.76,3.76,0,0,1,2.761.986,3.4,3.4,0,0,1,1.009,2.529Z" transform="translate(-259.271 -20.508)"/>
        <path id="Path_4144" data-name="Path 4144" class="cls-3" d="M400.206,23.2v.951l.824.139a.46.46,0,0,1,.383.452v5.813a2.3,2.3,0,0,1-.743,1.868,2.9,2.9,0,0,1-1.949.638,2.606,2.606,0,0,1-1.845-.638,2.408,2.408,0,0,1-.7-1.868V24.743a.46.46,0,0,1,.383-.452l.824-.139V23.2H393.5v.951l.824.139a.46.46,0,0,1,.383.452v5.813a3.369,3.369,0,0,0,1.114,2.715,4.349,4.349,0,0,0,2.912.94,4.631,4.631,0,0,0,3-.94,3.305,3.305,0,0,0,1.149-2.715V24.743a.46.46,0,0,1,.383-.452l.824-.139V23.2h-3.887Z" transform="translate(-347.846 -20.508)"/>
        <path id="Path_4145" data-name="Path 4145" class="cls-3" d="M502.258,31.449l-.081,1.033a.467.467,0,0,1-.464.429H497.78V29.024h2.228a.474.474,0,0,1,.464.394l.151,1.021h.928v-3.9h-.928l-.139.928a.463.463,0,0,1-.464.394H497.78V24.349h3.84a.467.467,0,0,1,.464.429l.081,1.033h1.265V23.2H495.1v.951l.824.139a.46.46,0,0,1,.383.452V32.5a.46.46,0,0,1-.383.452l-.824.139v.94h8.411V31.449Z" transform="translate(-437.658 -20.508)"/>
      </g>
      <path id="Path_4263" data-name="Path 4263" class="cls-4" d="M2-19.523H4.735q2.177,0,2.177,1.891,0,1.91-2.186,1.91H2.369v2.985H2Zm.371.342v3.118H4.716A2.05,2.05,0,0,0,6.1-16.472a1.473,1.473,0,0,0,.437-1.16,1.443,1.443,0,0,0-.437-1.15,2.061,2.061,0,0,0-1.388-.4Zm5.484,1.53h.371v3.013a1.912,1.912,0,0,0,.352,1.255,1.41,1.41,0,0,0,1.15.447,1.48,1.48,0,0,0,1.122-.485,1.863,1.863,0,0,0,.485-1.255V-17.65h.361v4.914h-.361v-.912A1.8,1.8,0,0,1,9.659-12.6q-1.806,0-1.806-2.025Zm7.015-.133a2.417,2.417,0,0,1,.76.1v.39a2.83,2.83,0,0,0-.779-.114,1.344,1.344,0,0,0-1.188.694,2.5,2.5,0,0,0-.38,1.388v2.595H12.91V-17.65h.371v1.027a1.827,1.827,0,0,1,.57-.789A1.549,1.549,0,0,1,14.868-17.784Zm5.209-1.872h.371v6.92H20.1v-1.15A1.843,1.843,0,0,1,18.261-12.6a1.926,1.926,0,0,1-1.635-.789,2.894,2.894,0,0,1-.532-1.8,2.884,2.884,0,0,1,.542-1.8,1.9,1.9,0,0,1,1.616-.8,1.84,1.84,0,0,1,1.825,1.312ZM18.3-17.451a1.581,1.581,0,0,0-1.378.675,2.552,2.552,0,0,0-.456,1.587,2.591,2.591,0,0,0,.447,1.587,1.619,1.619,0,0,0,1.378.665,1.591,1.591,0,0,0,1.35-.646,2.517,2.517,0,0,0,.447-1.53v-.124A2.544,2.544,0,0,0,19.63-16.8,1.588,1.588,0,0,0,18.3-17.451Zm3.365-.2h.371v3.013a1.912,1.912,0,0,0,.352,1.255,1.41,1.41,0,0,0,1.15.447,1.48,1.48,0,0,0,1.122-.485,1.863,1.863,0,0,0,.485-1.255V-17.65H25.5v4.914h-.361v-.912A1.8,1.8,0,0,1,23.47-12.6q-1.806,0-1.806-2.025Zm7.005-.133A1.983,1.983,0,0,1,30.38-17a3.528,3.528,0,0,1,.542,1.929H26.815a2.372,2.372,0,0,0,.523,1.549,1.693,1.693,0,0,0,1.34.589,1.749,1.749,0,0,0,1.2-.409,2.018,2.018,0,0,0,.551-.969h.39a2.39,2.39,0,0,1-.646,1.179,2.142,2.142,0,0,1-1.492.532,2.011,2.011,0,0,1-1.625-.713,2.772,2.772,0,0,1-.618-1.882A2.787,2.787,0,0,1,27.024-17,2.009,2.009,0,0,1,28.669-17.784Zm.01.333a1.638,1.638,0,0,0-1.312.58,2.442,2.442,0,0,0-.551,1.473h3.726Q30.389-17.451,28.678-17.451Zm6.435-2.072H38.06a2.187,2.187,0,0,1,1.4.428,1.55,1.55,0,0,1,.561,1.274,1.536,1.536,0,0,1-.361,1.008,1.671,1.671,0,0,1-.874.542,1.823,1.823,0,0,1,1.084.551,1.62,1.62,0,0,1,.418,1.122,1.645,1.645,0,0,1-.684,1.435,2.72,2.72,0,0,1-1.6.428H35.113Zm.371.342v2.756H38a1.86,1.86,0,0,0,1.169-.352,1.229,1.229,0,0,0,.475-1.027,1.244,1.244,0,0,0-.466-1.046,1.892,1.892,0,0,0-1.188-.333Zm0,3.1v3H38.05a2.245,2.245,0,0,0,1.3-.342,1.344,1.344,0,0,0,.561-1.169,1.316,1.316,0,0,0-.561-1.141,2.28,2.28,0,0,0-1.331-.352Zm6.045-3.574h.361v6.92h-.361Zm3.9,1.872a2.066,2.066,0,0,1,1.711.808,2.764,2.764,0,0,1,.58,1.787,2.838,2.838,0,0,1-.58,1.787,2.075,2.075,0,0,1-1.711.8,2.059,2.059,0,0,1-1.711-.8,2.788,2.788,0,0,1-.58-1.787,2.716,2.716,0,0,1,.58-1.787A2.049,2.049,0,0,1,45.426-17.784Zm0,.333a1.7,1.7,0,0,0-1.435.694,2.489,2.489,0,0,0-.485,1.568,2.473,2.473,0,0,0,.485,1.559,1.715,1.715,0,0,0,1.435.694,1.748,1.748,0,0,0,1.435-.694,2.473,2.473,0,0,0,.485-1.559,2.489,2.489,0,0,0-.485-1.568A1.731,1.731,0,0,0,45.426-17.451Zm5.342-.333a2.172,2.172,0,0,1,1.388.428,1.878,1.878,0,0,1,.656,1.293H52.45a1.538,1.538,0,0,0-.532-1.036,1.8,1.8,0,0,0-1.15-.352,1.632,1.632,0,0,0-1.359.665,2.615,2.615,0,0,0-.485,1.644,2.491,2.491,0,0,0,.466,1.587,1.623,1.623,0,0,0,1.369.618,1.605,1.605,0,0,0,1.72-1.53h.361a2.264,2.264,0,0,1-.684,1.388,2.064,2.064,0,0,1-1.4.475,2,2,0,0,1-1.663-.741,2.81,2.81,0,0,1-.542-1.8,2.9,2.9,0,0,1,.57-1.853A1.935,1.935,0,0,1,50.768-17.784Zm3-1.872h.371v4.7l3.013-2.69h.532L55.53-15.74l2.376,3h-.485l-2.158-2.756-1.122,1.008v1.749h-.371Zm6.767,1.872a2.172,2.172,0,0,1,1.388.428,1.878,1.878,0,0,1,.656,1.293h-.361a1.538,1.538,0,0,0-.532-1.036,1.8,1.8,0,0,0-1.15-.352,1.632,1.632,0,0,0-1.359.665,2.615,2.615,0,0,0-.485,1.644,2.491,2.491,0,0,0,.466,1.587,1.623,1.623,0,0,0,1.369.618,1.605,1.605,0,0,0,1.72-1.53h.361a2.264,2.264,0,0,1-.684,1.388,2.064,2.064,0,0,1-1.4.475,2,2,0,0,1-1.663-.741,2.81,2.81,0,0,1-.542-1.8,2.9,2.9,0,0,1,.57-1.853A1.935,1.935,0,0,1,60.539-17.784Zm3-1.872h.371v2.994a2.092,2.092,0,0,1,.7-.827,1.641,1.641,0,0,1,.969-.295,1.76,1.76,0,0,1,1.3.485,1.911,1.911,0,0,1,.485,1.4v3.165h-.361v-3.137a1.636,1.636,0,0,0-.409-1.179,1.464,1.464,0,0,0-1.084-.4,1.44,1.44,0,0,0-1.122.532,1.9,1.9,0,0,0-.485,1.312v2.87h-.371Zm7.081,1.872a1.881,1.881,0,0,1,1.5.57,1.9,1.9,0,0,1,.418,1.3v3.175h-.352v-1.055a3.09,3.09,0,0,1-.827.789,2.484,2.484,0,0,1-1.359.4,1.771,1.771,0,0,1-1.15-.361,1.257,1.257,0,0,1-.447-1.008,1.425,1.425,0,0,1,.789-1.359,3.488,3.488,0,0,1,1.663-.333l1.321-.01v-.2a1.39,1.39,0,0,0-1.568-1.578,1.869,1.869,0,0,0-1.131.314,1.327,1.327,0,0,0-.561.95h-.361a1.718,1.718,0,0,1,.675-1.207A2.241,2.241,0,0,1,70.623-17.784Zm1.559,2.433-1.312.01q-2.091.01-2.091,1.378a.919.919,0,0,0,.352.751,1.484,1.484,0,0,0,.941.276,2.257,2.257,0,0,0,1.473-.561,1.563,1.563,0,0,0,.637-1.141Zm2.082-3.973a.365.365,0,0,1,.266.114.327.327,0,0,1,.114.266.365.365,0,0,1-.114.266.365.365,0,0,1-.266.114A.345.345,0,0,1,74-18.677a.365.365,0,0,1-.114-.266A.327.327,0,0,1,74-19.209.345.345,0,0,1,74.264-19.323Zm-.181,1.673h.361v4.914h-.361Zm3.926-.133q1.815,0,1.815,2.034v3.013h-.371v-3q0-1.711-1.5-1.711a1.45,1.45,0,0,0-1.112.485,1.814,1.814,0,0,0-.485,1.255v2.975h-.371V-17.65h.371v.893a1.845,1.845,0,0,1,.665-.751A1.784,1.784,0,0,1,78.009-17.784ZM84.3-19.523h.371v6.444h4.239v.342H84.3Zm7.48,1.739a1.881,1.881,0,0,1,1.5.57,1.9,1.9,0,0,1,.418,1.3v3.175H93.35v-1.055a3.09,3.09,0,0,1-.827.789,2.484,2.484,0,0,1-1.359.4,1.771,1.771,0,0,1-1.15-.361,1.257,1.257,0,0,1-.447-1.008,1.425,1.425,0,0,1,.789-1.359,3.488,3.488,0,0,1,1.663-.333l1.321-.01v-.2a1.39,1.39,0,0,0-1.568-1.578,1.869,1.869,0,0,0-1.131.314,1.327,1.327,0,0,0-.561.95h-.361a1.718,1.718,0,0,1,.675-1.207A2.241,2.241,0,0,1,91.781-17.784ZM93.34-15.35l-1.312.01q-2.091.01-2.091,1.378a.919.919,0,0,0,.352.751,1.484,1.484,0,0,0,.941.276A2.257,2.257,0,0,0,92.7-13.5a1.563,1.563,0,0,0,.637-1.141Zm1.578-4.306h.371v3.194A1.835,1.835,0,0,1,97.1-17.784a1.924,1.924,0,0,1,1.625.8,2.884,2.884,0,0,1,.542,1.8,2.946,2.946,0,0,1-.532,1.8,1.951,1.951,0,0,1-1.644.789,1.827,1.827,0,0,1-1.825-1.283v1.15h-.352Zm2.148,2.205a1.557,1.557,0,0,0-1.331.646,2.544,2.544,0,0,0-.456,1.568v.124a2.465,2.465,0,0,0,.447,1.53,1.576,1.576,0,0,0,1.35.646,1.635,1.635,0,0,0,1.378-.665,2.643,2.643,0,0,0,.447-1.587,2.552,2.552,0,0,0-.456-1.587A1.611,1.611,0,0,0,97.066-17.451Z" transform="translate(80.729 23.778)"/>
      <g id="Group_2160" data-name="Group 2160" class="cls-2" transform="translate(0 1.938)">
        <path id="Path_4146" data-name="Path 4146" class="cls-3" d="M248.774,151.982a.151.151,0,0,1-.151.139h-1.265v-1.253h.847l.07.452h.3v-1.265h-.3l-.07.429h-.847v-1.137H248.6a.151.151,0,0,1,.151.139l.023.336h.406V149H246.5v.3l.267.046a.151.151,0,0,1,.128.151V152a.161.161,0,0,1-.128.151l-.267.046v.3h2.715v-.835h-.406Z" transform="translate(-217.901 -133.651)"/>
        <path id="Path_4147" data-name="Path 4147" class="cls-3" d="M3.6,149.418l.371.07v1.833a.668.668,0,0,1-.186.522.747.747,0,0,1-.522.174.717.717,0,0,1-.51-.174.668.668,0,0,1-.186-.522V149.5l.371-.07V149H1.5v.418l.371.07v1.833a1.1,1.1,0,0,0,.383.9,1.549,1.549,0,0,0,1.009.325,1.54,1.54,0,0,0,1.021-.325,1.1,1.1,0,0,0,.383-.9V149.5l.371-.07V149H3.6Z" transform="translate(-1.326 -133.651)"/>
        <path id="Path_4148" data-name="Path 4148" class="cls-3" d="M69.423,149v.418l.371.07v1.856h-.012L68.379,149H67.3v.418l.371.07V152l-.371.07v.418h1.45v-.418l-.371-.07v-1.868h.012l1.4,2.355H70.5v-3l.371-.07V149h-1.45Z" transform="translate(-59.492 -133.651)"/>
        <path id="Path_4149" data-name="Path 4149" class="cls-3" d="M133.5,149.418l.371.07V152l-.371.07v.418h1.45v-.418l-.383-.07v-2.518l.383-.07V149H133.5Z" transform="translate(-118.011 -133.651)"/>
        <path id="Path_4150" data-name="Path 4150" class="cls-3" d="M183.288,149.418l.267.046-.615,2.1-.046.186h-.012l-.046-.186-.615-2.1.267-.046V149H181.2v.418l.29.035,1.033,3.04h.719l1.033-3.04.3-.035V149h-1.288Z" transform="translate(-160.177 -133.651)"/>
        <path id="Path_4151" data-name="Path 4151" class="cls-3" d="M309.012,152.07a.28.28,0,0,1-.046-.174v-.174a.921.921,0,0,0-.139-.522.776.776,0,0,0-.441-.3.992.992,0,0,0,.418-.313.76.76,0,0,0,.139-.464.928.928,0,0,0-.336-.754,1.418,1.418,0,0,0-.94-.267H306.1v.418l.371.07v2.506l-.371.07v.418h1.45v-.418l-.371-.07v-.917h.568a.524.524,0,0,1,.383.151.546.546,0,0,1,.139.394v.2a.749.749,0,0,0,.139.476.6.6,0,0,0,.487.186h.36v-.418l-.081-.012C309.093,152.14,309.035,152.117,309.012,152.07ZM308.1,150.5a.666.666,0,0,1-.441.128h-.487v-1h.5a.6.6,0,0,1,.429.139.516.516,0,0,1,.151.371A.47.47,0,0,1,308.1,150.5Z" transform="translate(-270.586 -133.739)"/>
        <path id="Path_4152" data-name="Path 4152" class="cls-3" d="M371.809,150.438a2.31,2.31,0,0,0-.882-.429,1.941,1.941,0,0,1-.568-.244.36.36,0,0,1-.162-.29.385.385,0,0,1,.162-.313.711.711,0,0,1,.441-.116,1.3,1.3,0,0,1,.371.046.64.64,0,0,1,.267.1l.093.476h.522v-.719a1.64,1.64,0,0,0-.557-.325,2.1,2.1,0,0,0-.731-.128,1.45,1.45,0,0,0-.9.278.823.823,0,0,0-.36.7.78.78,0,0,0,.325.673,2.979,2.979,0,0,0,.94.429,1.332,1.332,0,0,1,.5.232.4.4,0,0,1,.139.325.374.374,0,0,1-.151.313.689.689,0,0,1-.441.116,1.492,1.492,0,0,1-.406-.058.752.752,0,0,1-.29-.139l-.07-.5H369.5v.731a1.54,1.54,0,0,0,.557.36,1.943,1.943,0,0,0,.754.128,1.578,1.578,0,0,0,.94-.255.843.843,0,0,0,.36-.708A.88.88,0,0,0,371.809,150.438Z" transform="translate(-326.631 -133.209)"/>
        <path id="Path_4153" data-name="Path 4153" class="cls-3" d="M427.8,149.418l.371.07V152l-.371.07v.418h1.45v-.418l-.371-.07v-2.518l.371-.07V149H427.8Z" transform="translate(-378.167 -133.651)"/>
        <path id="Path_4154" data-name="Path 4154" class="cls-3" d="M475.7,149.928h.534l.035-.394h.638V152l-.371.07v.418h1.45v-.418L477.6,152v-2.471h.65l.023.394h.545V149H475.7Z" transform="translate(-420.509 -133.651)"/>
        <path id="Path_4155" data-name="Path 4155" class="cls-3" d="M539.756,149.418l.278.046-.534,1.149h-.023l-.545-1.149.29-.046V149H537.9v.418l.3.046.928,1.763V152l-.371.07v.418h1.45v-.418l-.383-.07v-.743l.951-1.8.3-.046V149h-1.323Z" transform="translate(-475.493 -133.651)"/>
        <rect id="Rectangle_3069" data-name="Rectangle 3069" class="cls-3" width="65.853" height="0.557" transform="translate(0 12.948)"/>
        <rect id="Rectangle_3070" data-name="Rectangle 3070" class="cls-3" width="0.371" height="12.031" transform="translate(77.989)"/>
      </g>
    </g>
  </g>
</svg>
