<?xml version="1.0" standalone="no"?><!DOCTYPE svg PUBLIC "-//W3C//DTD SVG 1.1//EN" "http://www.w3.org/Graphics/SVG/1.1/DTD/svg11.dtd"><svg t="1525326297687" class="icon" style="" viewBox="0 0 1024 1024" version="1.1" xmlns="http://www.w3.org/2000/svg" p-id="2118" xmlns:xlink="http://www.w3.org/1999/xlink" width="128" height="128"><defs><style type="text/css"></style></defs><path d="M512 42.666667C253.866667 42.666667 42.666667 251.733333 42.666667 512s211.2 469.333333 469.333333 469.333333c260.266667 0 469.333333-209.066667 469.333333-469.333333S772.266667 42.666667 512 42.666667zM512 938.666667C277.333333 938.666667 85.333333 746.666667 85.333333 512 85.333333 277.333333 277.333333 85.333333 512 85.333333c234.666667 0 426.666667 192 426.666667 426.666667C938.666667 746.666667 746.666667 938.666667 512 938.666667zM716.8 494.933333 716.8 494.933333l-4.266667-2.133333c0 0 0 0-2.133333 0l-292.266667-168.533333 0 0C413.866667 322.133333 409.6 320 405.333333 320c-12.8 0-21.333333 8.533333-21.333333 21.333333l0 341.333333c0 12.8 8.533333 21.333333 21.333333 21.333333 4.266667 0 8.533333-2.133333 12.8-4.266667l0 0 292.266667-168.533333c0 0 0 0 2.133333 0l4.266667-2.133333 0 0c4.266667-4.266667 8.533333-10.666667 8.533333-17.066667S721.066667 499.2 716.8 494.933333zM426.666667 646.4 426.666667 377.6 661.333333 512 426.666667 646.4z" p-id="2119" fill="#e6e6e6"></path></svg>