<?xml version="1.0" standalone="no"?><!DOCTYPE svg PUBLIC "-//W3C//DTD SVG 1.1//EN" "http://www.w3.org/Graphics/SVG/1.1/DTD/svg11.dtd"><svg t="1525326403097" class="icon" style="" viewBox="0 0 1024 1024" version="1.1" xmlns="http://www.w3.org/2000/svg" p-id="3438" xmlns:xlink="http://www.w3.org/1999/xlink" width="32" height="32"><defs><style type="text/css"></style></defs><path d="M267.094174 354.602204 516.377704 105.308441l0 796.788162L267.094174 652.812049 69.061912 652.812049 69.061912 354.602204 267.094174 354.602204zM600.25402 629.512391c-6.212492-4.662183-5.437849-10.824533 2.325975-18.638499 32.613792-26.4013 48.926316-61.3513 48.926316-104.84079 0-45.039799-15.536858-81.541131-46.600341-109.502973-9.314133-4.65195-10.089799-9.314133-2.325975-13.976316 1.550309-6.163373 5.437849-6.988158 11.650341-2.325975 38.827307 32.613792 58.240449 74.214259 58.240449 124.641765 0 50.476625-19.413142 92.027973-58.240449 124.641765-1.550309 3.15076-3.498684 4.662183-5.824659 4.662183C606.069469 634.17355 603.355661 632.66315 600.25402 629.512391zM663.156652 741.340315c-9.324366-9.324366-8.5487-18.638499 2.325975-27.961842 65.23884-52.753481 97.852632-121.918747 97.852632-207.345372 0-83.876316-31.839149-152.942321-95.526657-207.345372-12.424984-9.324366-13.20065-17.812691-2.325975-25.635867 4.662183-10.815323 13.20065-11.640108 25.626657-2.325975 73.001641 60.576657 109.502973 139.005914 109.502973 235.307214 0 96.342232-37.275975 175.556365-111.828948 237.634212-1.550309 3.160993-5.050016 4.662183-10.486842 4.662183S667.808602 746.002498 663.156652 741.340315zM788.961916 857.831446c-6.212492 0-10.874675-2.336208-13.976316-6.998391-9.324366-9.314133-8.5487-18.638499 2.325975-27.952632 94.741781-85.377506 142.116765-190.218296 142.116765-314.52237 0-124.253932-47.376007-230.646054-142.116765-319.17432-9.314133-9.324366-10.099009-18.638499-2.325975-27.961842 9.314133-9.314133 17.862833-10.089799 25.626657-2.325975 104.065124 94.741781 156.093081 210.506365 156.093081 347.136162 0 136.679939-52.027957 252.435313-156.093081 347.136162C797.500383 856.321046 793.624099 857.831446 788.961916 857.831446z" p-id="3439"></path></svg>