<svg xmlns="http://www.w3.org/2000/svg" xmlns:xlink="http://www.w3.org/1999/xlink" viewBox="0 0 407 515"><defs><style>.cls-1{fill:url(#linear-gradient)}.cls-12,.cls-2{fill:#ffd86e}.cls-2{opacity:.113}.cls-3,.cls-6{opacity:.119}.cls-3{fill:url(#linear-gradient-2)}.cls-10,.cls-11,.cls-12,.cls-13,.cls-14,.cls-18,.cls-20,.cls-4{fill-rule:evenodd}.cls-4{opacity:.2}.cls-5{opacity:.269;fill:url(#linear-gradient-3)}.cls-6{fill:url(#linear-gradient-4)}.cls-7{fill:url(#linear-gradient-5)}.cls-8{fill:url(#linear-gradient-8)}.cls-9{fill:url(#linear-gradient-9)}.cls-10{opacity:.9;fill:url(#linear-gradient-10)}.cls-11{opacity:.8;fill:url(#linear-gradient-11)}.cls-13,.cls-15,.cls-18,.cls-19{fill:#fff}.cls-13{opacity:.634}.cls-14{fill:url(#linear-gradient-12)}.cls-15{opacity:.296}.cls-16{opacity:.345;fill:url(#linear-gradient-13)}.cls-17{opacity:.507;fill:url(#linear-gradient-14)}.cls-18{opacity:.708}.cls-19{opacity:.414}.cls-20{opacity:.966;fill:url(#linear-gradient-18)}.cls-21{fill:url(#linear-gradient-22)}.cls-22{fill:url(#linear-gradient-23)}.cls-23{fill:url(#linear-gradient-24)}.cls-24{opacity:.5;fill:url(#linear-gradient-25)}.cls-25{fill:url(#linear-gradient-26)}.cls-26{fill:url(#linear-gradient-27)}.cls-27{opacity:.4;fill:url(#linear-gradient-28)}.cls-28{filter:url(#Path_4630)}.cls-29{filter:url(#Path_4623)}.cls-30{filter:url(#Path_4661)}.cls-31{filter:url(#Path_4653)}.cls-32{filter:url(#Path_4674)}.cls-33{filter:url(#Path_4680)}.cls-34{filter:url(#Path_4652)}.cls-35{filter:url(#Path_4530)}</style><linearGradient id="linear-gradient" x1=".708" y1="1" x2=".698" y2=".068" gradientUnits="objectBoundingBox"><stop offset="0" stop-color="#1f1f1f"/><stop offset="1" stop-color="#242424"/></linearGradient><filter id="Path_4530" x="0" y="0" width="407" height="515" filterUnits="userSpaceOnUse"><feOffset dy="3"/><feGaussianBlur stdDeviation="2.5" result="blur"/><feFlood flood-opacity=".2"/><feComposite operator="in" in2="blur"/><feComposite in="SourceGraphic"/></filter><filter id="Path_4652" x="97.891" y="110.641" width="193.113" height="138.401" filterUnits="userSpaceOnUse"><feOffset/><feGaussianBlur stdDeviation="2.5" result="blur-2"/><feFlood flood-color="#ffd86e"/><feComposite operator="in" in2="blur-2"/><feComposite in="SourceGraphic"/></filter><linearGradient id="linear-gradient-2" x1=".902" y1=".891" x2="0" y2=".061" gradientUnits="objectBoundingBox"><stop offset="0" stop-color="#fff" stop-opacity="0"/><stop offset="1" stop-color="#fff"/></linearGradient><linearGradient id="linear-gradient-3" x1=".261" y1=".678" x2=".712" y2=".239" gradientUnits="objectBoundingBox"><stop offset="0" stop-color="#fff"/><stop offset="1" stop-color="#fff" stop-opacity="0"/></linearGradient><linearGradient id="linear-gradient-4" x1=".025" y1=".919" x2=".982" y2="-.017" gradientUnits="objectBoundingBox"><stop offset="0" stop-color="#ffd86e" stop-opacity="0"/><stop offset="1" stop-color="#ffba00"/></linearGradient><linearGradient id="linear-gradient-5" x1=".933" y1=".054" x2=".056" y2=".936" gradientUnits="objectBoundingBox"><stop offset="0" stop-color="#fff" stop-opacity="0"/><stop offset="1" stop-color="#ffd86e"/></linearGradient><linearGradient id="linear-gradient-8" x1=".978" y1=".036" x2="0" y2="1" xlink:href="#linear-gradient-5"/><linearGradient id="linear-gradient-9" x1=".978" y1=".036" x2="0" y2="1" gradientUnits="objectBoundingBox"><stop offset="0" stop-color="#ffd86e" stop-opacity="0"/><stop offset="1" stop-color="#ffd86e"/></linearGradient><linearGradient id="linear-gradient-10" x1=".5" x2=".5" y2="1" gradientUnits="objectBoundingBox"><stop offset="0" stop-color="#ffd86e"/><stop offset="1" stop-color="#ebbe47"/></linearGradient><filter id="Path_4680" x="97.89" y="110.641" width="50.623" height="56.134" filterUnits="userSpaceOnUse"><feOffset/><feGaussianBlur stdDeviation="2.5" result="blur-3"/><feFlood flood-color="#ffd86e" flood-opacity=".502"/><feComposite operator="in" in2="blur-3"/><feComposite in="SourceGraphic"/></filter><linearGradient id="linear-gradient-11" x1=".5" x2=".5" y2="1" gradientUnits="objectBoundingBox"><stop offset="0" stop-color="#ffd86e"/><stop offset="1" stop-color="#d6a72b"/></linearGradient><filter id="Path_4674" x="169.135" y="69.506" width="50.623" height="56.134" filterUnits="userSpaceOnUse"><feOffset/><feGaussianBlur stdDeviation="2.5" result="blur-4"/><feFlood flood-color="#ffd86e" flood-opacity=".502"/><feComposite operator="in" in2="blur-4"/><feComposite in="SourceGraphic"/></filter><filter id="Path_4653" x="240.382" y="192.907" width="50.622" height="56.134" filterUnits="userSpaceOnUse"><feOffset/><feGaussianBlur stdDeviation="2.5" result="blur-5"/><feFlood flood-color="#ffd86e" flood-opacity=".502"/><feComposite operator="in" in2="blur-5"/><feComposite in="SourceGraphic"/></filter><filter id="Path_4661" x="169.136" y="234.041" width="50.622" height="56.134" filterUnits="userSpaceOnUse"><feOffset/><feGaussianBlur stdDeviation="2.5" result="blur-6"/><feFlood flood-color="#ffd86e" flood-opacity=".502"/><feComposite operator="in" in2="blur-6"/><feComposite in="SourceGraphic"/></filter><filter id="Path_4623" x="90.486" y="168.698" width="83.246" height="94.268" filterUnits="userSpaceOnUse"><feOffset/><feGaussianBlur stdDeviation="2" result="blur-7"/><feFlood flood-color="#fff" flood-opacity=".6"/><feComposite operator="in" in2="blur-7"/><feComposite in="SourceGraphic"/></filter><linearGradient id="linear-gradient-12" x1=".5" x2=".5" y2="1" gradientUnits="objectBoundingBox"><stop offset="0" stop-color="#fff"/><stop offset="1" stop-color="#ffd86e"/></linearGradient><linearGradient id="linear-gradient-13" x1=".94" y1=".324" x2=".026" y2=".662" xlink:href="#linear-gradient-9"/><linearGradient id="linear-gradient-14" x1="1" y1=".67" x2=".119" y2=".363" gradientUnits="objectBoundingBox"><stop offset="0" stop-color="#ffd86e"/><stop offset="1" stop-color="#ffd86e" stop-opacity="0"/></linearGradient><filter id="Path_4630" x="224.171" y="91.573" width="83.246" height="94.268" filterUnits="userSpaceOnUse"><feOffset/><feGaussianBlur stdDeviation="2" result="blur-8"/><feFlood flood-color="#fff" flood-opacity=".6"/><feComposite operator="in" in2="blur-8"/><feComposite in="SourceGraphic"/></filter><linearGradient id="linear-gradient-18" x1=".5" x2=".5" y2="1" gradientUnits="objectBoundingBox"><stop offset="0" stop-color="#ffd86e"/><stop offset="1" stop-color="#fff"/></linearGradient><linearGradient id="linear-gradient-22" x1=".963" y1=".031" x2=".075" y2=".915" gradientUnits="objectBoundingBox"><stop offset="0" stop-color="#fff"/><stop offset="1" stop-color="#ffd86e" stop-opacity="0"/></linearGradient><linearGradient id="linear-gradient-23" x1=".963" y1=".031" x2=".075" y2=".915" xlink:href="#linear-gradient-3"/><linearGradient id="linear-gradient-24" x1="1" x2=".08" y2=".913" xlink:href="#linear-gradient-22"/><linearGradient id="linear-gradient-25" x1=".518" y1="1.051" x2=".942" y2=".091" xlink:href="#linear-gradient-2"/><linearGradient id="linear-gradient-26" x1=".978" y1=".036" x2="0" y2="1" gradientUnits="objectBoundingBox"><stop offset="0" stop-color="#ffd86e" stop-opacity="0"/><stop offset="1" stop-color="#fff"/></linearGradient><linearGradient id="linear-gradient-27" x1="1" x2=".08" y2=".913" gradientUnits="objectBoundingBox"><stop offset="0" stop-color="#ffd86e"/><stop offset="1" stop-color="#fff" stop-opacity="0"/></linearGradient><linearGradient id="linear-gradient-28" x1=".537" y1="-.094" x2=".124" y2=".82" gradientUnits="objectBoundingBox"><stop offset="0" stop-color="#fff" stop-opacity="0"/><stop offset="1" stop-color="#fff" stop-opacity=".302"/></linearGradient></defs><g id="feature_3_efficient" transform="translate(-1180.5 -563.157)"><g class="cls-35" transform="translate(1180.5 563.16)"><path id="Path_4530-2" data-name="Path 4530" class="cls-1" d="M0 0h392v500H0z" transform="translate(7.5 4.5)"/></g><g id="Group_2364" data-name="Group 2364" transform="translate(421.513 -510.402)"><g class="cls-34" transform="translate(758.99 1073.56)"><path id="Path_4652-2" data-name="Path 4652" class="cls-2" d="M192.47-195.948v20.568l-17.811 10.28-160.3-92.55v-20.569L32.17-288.5z" transform="translate(91.03 406.64)"/></g><path id="Path_4669" data-name="Path 4669" class="cls-3" d="M544.894-420.3a.454.454 0 0 1 .227-.393.454.454 0 0 1 .453 0c3.205 1.851 62.961 36.63 62.961 36.63v1.579s-59.736-34.768-62.954-36.626a1.374 1.374 0 0 1-.687-1.19z" transform="translate(351.964 1647.826)"/><path id="Path_4677" data-name="Path 4677" class="cls-4" d="M123.714-224.5l-40.076 23.138 40.076 23.138 40.076-23.138-40.076-23.138" transform="translate(767.285 1525.462)"/><path id="Path_4655" data-name="Path 4655" class="cls-4" d="M123.714-224.5l-40.076 23.138 40.076 23.138 40.076-23.138-40.076-23.138" transform="translate(900.969 1448.979)"/><path id="Path_4650" data-name="Path 4650" class="cls-5" d="M169.708-320.5l35.621 20.568v41.134L36.123-161.107.5-181.673v-41.134z" transform="translate(854.972 1491.632)"/><path id="Path_4656" data-name="Path 4656" class="cls-6" d="M63.376.453A.451.451 0 0 0 62.7.061C59.507 1.911 0 36.691 0 36.691v1.579S59.487 3.5 62.691 1.644a1.375 1.375 0 0 0 .684-1.19z" transform="rotate(60 -570.339 1457.528)"/><path id="Path_4657" data-name="Path 4657" class="cls-7" d="M454.215-384.149a.713.713 0 0 1-.356-.618.713.713 0 0 1 .356-.617L480.4-400.5l2.15 1.242-26.17 15.109a2.161 2.161 0 0 1-2.161 0z" transform="translate(516.247 1662.899)"/><path id="Path_4673" data-name="Path 4673" class="cls-7" d="M454.264-381.936a.809.809 0 0 1-.4-.7.809.809 0 0 1 .4-.7l29.725-17.164 2.441 1.41-29.712 17.154a2.453 2.453 0 0 1-2.454 0z" transform="translate(458.402 1634.938)"/><path id="Path_4670" data-name="Path 4670" class="cls-7" d="M454.322-379.264a.926.926 0 0 1-.463-.8.926.926 0 0 1 .463-.8l34-19.633 2.793 1.613-33.99 19.624a2.806 2.806 0 0 1-2.807 0z" transform="translate(466.757 1654.07)"/><path id="Path_4658" data-name="Path 4658" class="cls-8" d="M629.42-365.9a.779.779 0 0 1-.39-.675.779.779 0 0 1 .39-.675l28.468-16.436 2.338 1.35-28.468 16.436a2.338 2.338 0 0 1-2.338 0z" transform="translate(322.547 1592.403)"/><path id="Path_4678" data-name="Path 4678" class="cls-9" d="M629.282-372.189a.5.5 0 0 1-.252-.436.5.5 0 0 1 .252-.436l18.405-10.626 1.512.873-18.4 10.626a1.512 1.512 0 0 1-1.512 0z" transform="translate(266.63 1567.95)"/><g class="cls-33" transform="translate(758.99 1073.56)"><path id="Path_4680-2" data-name="Path 4680" class="cls-10" d="M32.168-288.5l17.812 10.283v20.567l-17.812 10.286-17.812-10.284v-20.567z" transform="translate(91.03 406.64)"/></g><g class="cls-32" transform="translate(758.99 1073.56)"><path id="Path_4674-2" data-name="Path 4674" class="cls-11" d="M143.019-352.5l17.812 10.283v20.567l-17.812 10.283-17.812-10.283v-20.567z" transform="translate(51.43 429.51)"/></g><g class="cls-31" transform="translate(758.99 1073.56)"><path id="Path_4653-2" data-name="Path 4653" class="cls-12" d="M253.87-160.5l17.812 10.283v20.567l-17.812 10.284-17.811-10.284v-20.567z" transform="translate(11.82 360.91)"/></g><g class="cls-30" transform="translate(758.99 1073.56)"><path id="Path_4661-2" data-name="Path 4661" class="cls-12" d="M143.02-96.5l17.81 10.283v20.567l-17.81 10.284-17.812-10.284v-20.567z" transform="translate(51.43 338.04)"/></g><g id="Group_2362" data-name="Group 2362" transform="translate(855.474 1248.258)"><g class="cls-29" transform="translate(-96.49 -174.7)"><path id="Path_4623-2" data-name="Path 4623" class="cls-13" d="M36.126-320.5L.5-299.933v41.133l35.623 20.567L71.749-258.8v-41.134z" transform="translate(95.98 495.2)"/></g><path id="Path_4629" data-name="Path 4629" class="cls-14" d="M255.312-164.213a19.258 19.258 0 0 1 19.249 19.25 19.258 19.258 0 0 1-19.249 19.25 19.259 19.259 0 0 1-19.25-19.25 19.259 19.259 0 0 1 19.25-19.25z" transform="translate(-219.788 186.097)"/><path id="Path_4624" data-name="Path 4624" class="cls-15" d="M36.126-320.5L.5-299.933l35.623 20.567 35.623-20.567z" transform="translate(-.503 320.5)"/><path id="Path_4625" data-name="Path 4625" class="cls-16" d="M.5-247.366L36.126-226.8v-41.134L.5-288.5v41.134" transform="translate(-.503 309.067)"/><path id="Path_4628" data-name="Path 4628" class="cls-17" d="M91.551-288.5l-35.622 20.568v41.132l35.623-20.567V-288.5" transform="translate(-20.306 309.066)"/></g><g id="Group_2361" data-name="Group 2361" transform="translate(989.158 1171.132)"><g class="cls-28" transform="translate(-230.17 -97.57)"><path id="Path_4630-2" data-name="Path 4630" class="cls-18" d="M36.126-320.5L.5-299.933v41.133l35.623 20.567L71.749-258.8v-41.134z" transform="translate(229.67 418.07)"/></g><path id="Path_4633" data-name="Path 4633" class="cls-14" d="M46.027-288.5l-17.811 10.283v20.567l17.811 10.283 17.812-10.283v-20.567z" transform="translate(-10.405 309.067)"/><path id="Path_4631" data-name="Path 4631" class="cls-19" d="M36.126-320.5L.5-299.933l35.623 20.567 35.623-20.567z" transform="translate(-.503 320.5)"/><path id="Path_4632" data-name="Path 4632" class="cls-16" d="M.5-247.366L36.126-226.8v-41.134L.5-288.5v41.134" transform="translate(-.503 309.067)"/><path id="Path_4635" data-name="Path 4635" class="cls-17" d="M91.551-288.5l-35.622 20.568v41.132l35.623-20.567V-288.5" transform="translate(-20.306 309.066)"/></g><path id="Path_4681" data-name="Path 4681" class="cls-20" d="M39.583-160.5l-11.37 6.564v13.129l11.37 6.564 11.37-6.564v-13.129z" transform="translate(842.514 1359.639)"/><path id="Path_4675" data-name="Path 4675" class="cls-20" d="M39.583-160.5l-11.37 6.564v13.129l11.37 6.564 11.37-6.564v-13.129z" transform="translate(913.855 1318.505)"/><path id="Path_4654" data-name="Path 4654" class="cls-20" d="M39.583-160.5l-11.37 6.564v13.129l11.37 6.564 11.37-6.564v-13.129z" transform="translate(985.196 1441.906)"/><path id="Path_4672" data-name="Path 4672" class="cls-20" d="M39.583-160.5l-11.37 6.564v13.129l11.37 6.564 11.37-6.564v-13.129z" transform="translate(913.855 1483.04)"/><path id="Path_4664" data-name="Path 4664" class="cls-21" d="M565.153-375.806a.727.727 0 0 1 .364.63.727.727 0 0 1-.364.63l-42.814 24.718-2.193-1.266 42.8-24.712a2.2 2.2 0 0 1 2.2 0z" transform="translate(430.471 1595.958)"/><path id="Path_4676" data-name="Path 4676" class="cls-22" d="M549.5-375.909a.474.474 0 0 1 .237.411.474.474 0 0 1-.237.411l-27.928 16.124-1.431-.826 27.92-16.12a1.438 1.438 0 0 1 1.438 0z" transform="translate(397.399 1558.038)"/><path id="Path_4665" data-name="Path 4665" class="cls-23" d="M647.571-473.45a.892.892 0 0 1 .446.773.892.892 0 0 1-.446.773l-52.548 30.338-2.691-1.554 52.533-30.33a2.707 2.707 0 0 1 2.705 0z" transform="translate(349.181 1716.087)"/><path id="Path_4651" data-name="Path 4651" class="cls-24" d="M87.593-57.665L69.78-67.949v-20.566L194.461-160.5l17.812 10.285v20.565z" transform="translate(830.219 1434.466)"/><path id="Path_4666" data-name="Path 4666" class="cls-25" d="M629.389-367.316a.718.718 0 0 1-.359-.621.718.718 0 0 1 .359-.621l26.2-15.129 2.152 1.243-26.2 15.129a2.152 2.152 0 0 1-2.152 0z" transform="translate(346.97 1697.962)"/><path id="Path_4667" data-name="Path 4667" class="cls-26" d="M620.917-473.625a.462.462 0 0 1 .231.4.462.462 0 0 1-.231.4l-27.193 15.7-1.393-.8 27.185-15.7a1.4 1.4 0 0 1 1.4 0z" transform="translate(389.547 1768.147)"/><path id="Path_4668" data-name="Path 4668" class="cls-27" d="M139.036-384.5l17.808 10.282v20.568L32.169-281.663l-17.813-10.282v-20.569z" transform="translate(850.022 1514.497)"/></g></g></svg>