<svg xmlns="http://www.w3.org/2000/svg" xmlns:xlink="http://www.w3.org/1999/xlink" viewBox="0 0 407 515"><defs><style>.cls-1{fill:url(#linear-gradient)}.cls-2{fill:#ededed;opacity:.674}.cls-3,.cls-4,.cls-5,.cls-6,.cls-7{fill-rule:evenodd}.cls-3{opacity:.15}.cls-4,.cls-7{fill:url(#linear-gradient-2)}.cls-5{opacity:.966;fill:url(#linear-gradient-3)}.cls-6,.cls-7{opacity:.8}.cls-6{fill:url(#linear-gradient-4)}.cls-8{fill:#fdf3d8}.cls-12,.cls-8{opacity:.542}.cls-9{fill:#f5edd7}.cls-11,.cls-9{opacity:.561}.cls-10{fill:#fff9ea;opacity:.406}.cls-11{fill:#f4ecd6}.cls-12{fill:#fcf2d7}.cls-13{opacity:.914;fill:url(#linear-gradient-8)}.cls-14{opacity:.7;fill:url(#linear-gradient-9)}.cls-15{opacity:.722;fill:url(#linear-gradient-10)}.cls-16,.cls-18{opacity:.249}.cls-16{fill:url(#linear-gradient-11)}.cls-17,.cls-19{opacity:.1}.cls-17{fill:url(#linear-gradient-12)}.cls-18{fill:url(#linear-gradient-13)}.cls-19{fill:url(#linear-gradient-14)}.cls-20,.cls-21{opacity:.15}.cls-20{fill:url(#linear-gradient-15)}.cls-21{fill:url(#linear-gradient-16)}.cls-22{filter:url(#Path_4743)}.cls-23{filter:url(#Path_4744)}.cls-24{filter:url(#Path_4741)}.cls-25{filter:url(#Path_4760)}.cls-26{filter:url(#Path_4530)}</style><linearGradient id="linear-gradient" x1=".708" y1="1" x2=".698" y2=".068" gradientUnits="objectBoundingBox"><stop offset="0" stop-color="#1f1f1f"/><stop offset="1" stop-color="#242424"/></linearGradient><filter id="Path_4530" x="0" y="0" width="407" height="515" filterUnits="userSpaceOnUse"><feOffset dy="3"/><feGaussianBlur stdDeviation="2.5" result="blur"/><feFlood flood-opacity=".2"/><feComposite operator="in" in2="blur"/><feComposite in="SourceGraphic"/></filter><filter id="Path_4760" x="99.85" y="68.751" width="206.248" height="199.805" filterUnits="userSpaceOnUse"><feOffset/><feGaussianBlur stdDeviation="5" result="blur-2"/><feFlood flood-color="#fff" flood-opacity=".2"/><feComposite operator="in" in2="blur-2"/><feComposite in="SourceGraphic"/></filter><linearGradient id="linear-gradient-2" x1=".5" x2=".5" y2="1" gradientUnits="objectBoundingBox"><stop offset="0" stop-color="#ffc62c" stop-opacity=".6"/><stop offset="1" stop-color="#ffd86e"/></linearGradient><filter id="Path_4741" x="158.453" y="187.615" width="88.822" height="97.922" filterUnits="userSpaceOnUse"><feOffset/><feGaussianBlur stdDeviation="5" result="blur-3"/><feFlood flood-color="#ffecb7" flood-opacity=".502"/><feComposite operator="in" in2="blur-3"/><feComposite in="SourceGraphic"/></filter><linearGradient id="linear-gradient-3" x1=".5" x2=".5" y2="1" gradientUnits="objectBoundingBox"><stop offset="0" stop-color="#ffd86e"/><stop offset="1" stop-color="#fff"/></linearGradient><linearGradient id="linear-gradient-4" x1=".5" x2=".5" y2="1" gradientUnits="objectBoundingBox"><stop offset="0" stop-color="#ffc62c" stop-opacity=".4"/><stop offset="1" stop-color="#ffd86e"/></linearGradient><filter id="Path_4744" x="217.275" y="153.654" width="88.822" height="97.922" filterUnits="userSpaceOnUse"><feOffset/><feGaussianBlur stdDeviation="5" result="blur-4"/><feFlood flood-color="#ffecb7" flood-opacity=".302"/><feComposite operator="in" in2="blur-4"/><feComposite in="SourceGraphic"/></filter><filter id="Path_4743" x="99.631" y="153.654" width="88.822" height="97.922" filterUnits="userSpaceOnUse"><feOffset/><feGaussianBlur stdDeviation="5" result="blur-5"/><feFlood flood-color="#ffecb7" flood-opacity=".302"/><feComposite operator="in" in2="blur-5"/><feComposite in="SourceGraphic"/></filter><linearGradient id="linear-gradient-8" x1=".136" y1=".862" x2=".842" y2=".089" gradientUnits="objectBoundingBox"><stop offset="0" stop-color="#fffbf0"/><stop offset="1" stop-color="#fff"/></linearGradient><linearGradient id="linear-gradient-9" x1=".5" x2=".5" y2="1" gradientUnits="objectBoundingBox"><stop offset="0" stop-color="#fff"/><stop offset="1" stop-color="#ffebb4"/></linearGradient><linearGradient id="linear-gradient-10" x1=".5" x2=".5" y2="1" gradientUnits="objectBoundingBox"><stop offset="0" stop-color="#fff"/><stop offset="1" stop-color="#f7f0de"/></linearGradient><linearGradient id="linear-gradient-11" x1=".539" y1=".821" x2="1.085" y2="-.138" gradientUnits="objectBoundingBox"><stop offset="0" stop-color="#fff" stop-opacity="0"/><stop offset="1" stop-color="#ffd86e"/></linearGradient><linearGradient id="linear-gradient-12" x1=".885" y1=".263" x2=".518" y2=".809" gradientUnits="objectBoundingBox"><stop offset="0" stop-color="#ffd86e"/><stop offset="1" stop-color="#fff" stop-opacity="0"/></linearGradient><linearGradient id="linear-gradient-13" x1="-.111" y1="-.035" x2=".407" y2=".865" xlink:href="#linear-gradient-12"/><linearGradient id="linear-gradient-14" x1=".418" y1=".868" x2="0" y2=".096" xlink:href="#linear-gradient-11"/><linearGradient id="linear-gradient-15" x1=".741" y1=".282" x2="1.432" y2="1.293" gradientUnits="objectBoundingBox"><stop offset="0" stop-color="#fff" stop-opacity="0"/><stop offset="1" stop-color="#fff"/></linearGradient><linearGradient id="linear-gradient-16" x1=".098" y1=".166" x2="-.61" y2="1.1" xlink:href="#linear-gradient-15"/></defs><g id="feature_1_intelligent" transform="translate(-332.5 -563.157)"><g class="cls-26" transform="translate(332.5 563.16)"><path id="Path_4530-2" data-name="Path 4530" class="cls-1" d="M0 0h392v500H0z" transform="translate(7.5 4.5)"/></g><g id="Group_2380" data-name="Group 2380" transform="translate(125.216 162.908)"><g class="cls-25" transform="translate(207.28 400.25)"><path id="Path_4760-2" data-name="Path 4760" class="cls-2" d="M29.875-303.519v33.961L.5-252.578v33.961l29.375 16.981v33.961l29.374 16.981 29.375-16.981L118-150.694l29.374-16.981v-33.961l29.375-16.981v-33.961l-29.375-16.981v-33.961L118-320.5l-29.376 16.981L59.249-320.5z" transform="translate(114.35 404.25)"/></g><path id="Path_4756" data-name="Path 4756" class="cls-3" d="M171.872-224.5l-88.234 50.942 88.234 50.942 88.233-50.942-88.233-50.942" transform="translate(238.355 818.874)"/><g id="Group_2378" data-name="Group 2378" transform="translate(380.737 602.864)"><g class="cls-24" transform="translate(-173.45 -202.62)"><path id="Path_4741-2" data-name="Path 4741" class="cls-4" d="M279.51-145.069l-29.41 16.981v33.961l29.41 16.98 29.411-16.981v-33.961z" transform="translate(-76.65 347.68)"/></g><path id="Path_4759" data-name="Path 4759" class="cls-5" d="M42.761-160.5l-14.548 8.4v16.8l14.548 8.4 14.548-8.4v-16.8z" transform="translate(-13.192 177.663)"/></g><g id="Group_2377" data-name="Group 2377" transform="translate(439.559 568.903)"><g class="cls-23" transform="translate(-232.28 -168.65)"><path id="Path_4744-2" data-name="Path 4744" class="cls-6" d="M390.361-337.069l-29.411 16.981v33.961l29.411 16.981 29.411-16.981v-33.961z" transform="translate(-128.67 505.72)"/></g><path id="Path_4757" data-name="Path 4757" class="cls-5" d="M42.761-160.5l-14.548 8.4v16.8l14.548 8.4 14.548-8.4v-16.8z" transform="translate(-13.113 177.663)"/></g><g id="Group_2376" data-name="Group 2376" transform="translate(321.915 568.903)"><g class="cls-22" transform="translate(-114.63 -168.65)"><path id="Path_4743-2" data-name="Path 4743" class="cls-7" d="M168.659-337.069l-29.411 16.981v33.961l29.411 16.981 29.411-16.981v-33.961z" transform="translate(-24.62 505.72)"/></g><path id="Path_4758" data-name="Path 4758" class="cls-5" d="M42.761-160.5l-14.548 8.4v16.8l14.548 8.4 14.548-8.4v-16.8z" transform="translate(-13.271 177.663)"/></g><path id="Path_4734" data-name="Path 4734" class="cls-8" d="M279.51-273.069v33.961l-29.41 16.981v-33.961z" transform="translate(130.638 808.011)"/><path id="Path_4735" data-name="Path 4735" class="cls-9" d="M305.524-273.069v33.961l29.411 16.981v-33.961z" transform="translate(104.624 808.011)"/><path id="Path_4736" data-name="Path 4736" class="cls-10" d="M250.1-192.088l29.411 16.981 29.411-16.981-29.412-16.981z" transform="translate(130.638 777.972)"/><path id="Path_4737" data-name="Path 4737" class="cls-11" d="M194.673-337.069v33.961l29.411-16.981z" transform="translate(156.653 838.05)"/><path id="Path_4738" data-name="Path 4738" class="cls-10" d="M139.248-256.088l29.411 16.981v-33.961z" transform="translate(182.667 808.011)"/><path id="Path_4739" data-name="Path 4739" class="cls-12" d="M390.361-337.069v33.961l-29.411-16.98z" transform="translate(78.609 838.05)"/><path id="Path_4740" data-name="Path 4740" class="cls-10" d="M445.787-256.088l-29.411 16.981v-33.961z" transform="translate(52.595 808.011)"/><path id="Path_4729" data-name="Path 4729" class="cls-13" d="M224.084-369.069l-29.411 16.981 29.411 16.981-29.411 16.981 29.411 16.981 29.416-16.982 29.411 16.981 29.411-16.981-29.411-16.981 29.411-16.981-29.411-16.981-29.411 16.982-29.411-16.981" transform="translate(156.653 853.069)"/><path id="Path_4730" data-name="Path 4730" class="cls-14" d="M198.07-256.088v33.961l29.411 16.981v33.961l-29.411-16.98v33.961l-29.411-16.981v-33.961l-29.411-16.981v-33.961l29.411 16.981v-33.961z" transform="translate(182.667 808.011)"/><path id="Path_4731" data-name="Path 4731" class="cls-15" d="M334.935-256.088v33.961l-29.411 16.981v33.961l29.411-16.98v33.961l29.411-16.981v-33.961l29.411-16.981v-33.961l-29.411 16.981v-33.961z" transform="translate(104.624 808.011)"/><path id="Path_4761" data-name="Path 4761" class="cls-16" d="M213.4-125.64v-33.574L184.544-176 111.1-134.033v33.574l29.377 16.787z" transform="translate(196.755 795.842)"/><path id="Path_4762" data-name="Path 4762" class="cls-17" d="M103.026-189.751v-34.1L73.65-240.636.732-198.145v33.574l29.377 16.787z" transform="translate(248.896 826.38)"/><path id="Path_4763" data-name="Path 4763" class="cls-18" d="M305-159.213v33.574l73.442 41.967 28.852-16.787v-33.574L334.377-176z" transform="translate(105.152 795.842)"/><path id="Path_4764" data-name="Path 4764" class="cls-19" d="M416.37-223.828v34.142l72.917 42.02 29.377-16.808v-33.616l-72.917-42.546z" transform="translate(52.535 826.38)"/><path id="Path_4765" data-name="Path 4765" class="cls-20" d="M73.018-326.82v67.672L.732-301.64v-33.574L29.855-352z" transform="translate(248.896 878.99)"/><path id="Path_4766" data-name="Path 4766" class="cls-21" d="M472.055-326.82v67.672l72.918-42.492v-33.574L515.6-352z" transform="translate(26.227 878.99)"/></g></g></svg>