<svg xmlns="http://www.w3.org/2000/svg" viewBox="0 0 816 150"><defs><style>.cls-1{fill:none;opacity:.131}.cls-2{fill:#fff;opacity:.02}</style></defs><g id="section_feature" transform="translate(-553.938 -660)"><path id="Rectangle_3155" data-name="Rectangle 3155" class="cls-1" transform="translate(553.938 660)" d="M0 0h816v150H0z"/><path id="Path_4770" data-name="Path 4770" class="cls-2" d="M-196.7-94.705v-15.655h-46.34V0h17.36v-47.74h24.955V-63.4h-24.955v-31.31zm75.795 58.59c-.155-15.345.465-31.93-7.44-40.3-4.805-5.115-10.7-6.51-17.515-6.51-6.665 0-12.555 1.55-17.515 6.51-6.975 6.975-7.6 20.615-7.6 35.5s.62 28.52 7.6 35.495C-158.41-.465-153.3 1.24-145.7 1.24c7.13 0 13.485-1.86 17.67-6.51 4.65-5.115 6.51-11.935 6.82-18.755h-16.275c0 2.48-.775 5.735-2.015 7.285a7.365 7.365 0 0 1-6.2 3.255 7.411 7.411 0 0 1-6.355-3.255c-2.015-2.945-2.48-10.075-2.48-19.375zM-137.33-48.2h-17.205c0-8.37.62-14.57 2.48-16.9a7.33 7.33 0 0 1 6.2-3.255 7.33 7.33 0 0 1 6.2 3.255c1.855 2.325 2.325 8.525 2.325 16.9zM-42.625 0v-57.66c0-8.835-2.79-14.88-7.13-19.22-4.185-4.34-10.54-6.045-17.36-6.045-6.665 0-13.33 2.79-17.205 6.665-5.115 5.115-6.98 11.16-6.98 17.67h16.43c0-3.41.775-5.735 2.48-7.595a6.857 6.857 0 0 1 5.43-2.325c5.115 0 7.9 3.41 7.9 9.455v11.315h-7.28c-9.455 0-14.725 2.015-18.755 5.58-4.96 4.34-7.6 10.85-7.6 18.29 0 8.215 1.705 14.415 4.96 18.29 4.185 4.8 8.525 6.82 15.345 6.82a15.091 15.091 0 0 0 9.3-2.79 20.943 20.943 0 0 0 4.96-5.425V0zm-16.43-24.025c0 6.665-3.72 10.85-8.68 10.85-5.58 0-8.525-4.03-8.525-11.315 0-3.255 1.24-7.285 3.255-9.145 2.325-2.17 4.96-2.48 8.525-2.48h5.425zM22.94 0v-14.725c-7.75 0-11.625-3.41-11.625-11.005v-43.4H22.63v-12.555H11.315v-20.925h-16.43v20.925h-8.37v12.555h8.37v44.33c0 9.61 3.1 15.81 8.215 19.84C8.68-.62 15.19 0 22.94 0zm78.275 0v-81.685h-16.43v58.745c0 6.355-3.565 9.455-8.06 9.455s-8.06-3.1-8.06-9.455v-58.745h-16.43v58.9c0 9.455 1.395 13.95 4.65 17.67C60.6-.775 65.1 1.24 71.765 1.24a16.357 16.357 0 0 0 8.215-2.325A19.473 19.473 0 0 0 85.56-6.2V0zm70.37-66.96v-15.965a24.3 24.3 0 0 0-12.71 3.41 24.064 24.064 0 0 0-7.13 6.51v-8.68h-15.81V0h16.43v-52.855c0-8.835 5.89-14.1 13.64-14.1zm75.33 30.845c-.155-15.345.465-31.93-7.44-40.3-4.8-5.115-10.7-6.51-17.515-6.51-6.665 0-12.555 1.55-17.515 6.51-6.975 6.975-7.6 20.615-7.6 35.5s.62 28.52 7.6 35.495c4.96 4.96 10.075 6.665 17.67 6.665 7.13 0 13.485-1.86 17.67-6.51 4.65-5.115 6.51-11.935 6.82-18.755H230.33c0 2.48-.775 5.735-2.015 7.285a7.365 7.365 0 0 1-6.2 3.255 7.411 7.411 0 0 1-6.355-3.255c-2.015-2.945-2.48-10.075-2.48-19.375zM230.485-48.2H213.28c0-8.37.62-14.57 2.48-16.9a7.33 7.33 0 0 1 6.2-3.255 7.33 7.33 0 0 1 6.2 3.255c1.86 2.325 2.325 8.525 2.325 16.9z" transform="translate(960 789.36)"/></g></svg>