<svg xmlns="http://www.w3.org/2000/svg" viewBox="0 0 816 150"><defs><style>.cls-1{fill:none;opacity:.131}.cls-2{fill:#fff;opacity:.02}</style></defs><g id="Group_2422" data-name="Group 2422" transform="translate(-552 -676)"><path id="Rectangle_3158" data-name="Rectangle 3158" class="cls-1" transform="translate(552 676)" d="M0 0h816v150H0z"/><path id="Path_4772" data-name="Path 4772" class="cls-2" d="M-195.3 0v-15.655h-28.985V-47.74h24.955V-63.4h-24.955v-31.31h28.985v-15.65h-46.345V0zm83.545 0l-19.53-41.54 18.6-40.145h-18.29l-9.765 24.8-9.765-24.8h-18.135l18.29 40.145L-169.57 0h18.135l10.7-25.42L-130.045 0zM-34.1-40.92c0-17.67-.31-28.985-5.735-35.65-3.72-4.65-8.37-6.355-14.415-6.355a16.244 16.244 0 0 0-8.215 2.17 19.037 19.037 0 0 0-5.425 5.115v-6.045H-83.7v110.36h16.43V-5.27a15.918 15.918 0 0 0 4.8 4.34 16.243 16.243 0 0 0 8.22 2.17c6.355 0 10.695-1.86 14.415-6.355C-34.41-11.78-34.1-23.25-34.1-40.92zm-16.43 0c0 12.09-.155 20.46-2.325 24.18a7.193 7.193 0 0 1-6.2 3.255 7.989 7.989 0 0 1-5.58-2.015c-1.705-1.7-2.635-4.185-2.635-7.75v-35.185c0-3.565.93-6.045 2.635-7.75a8.121 8.121 0 0 1 5.58-2.17 7.338 7.338 0 0 1 6.2 3.41c2.17 3.72 2.325 11.935 2.325 24.025zM25.265 0v-14.725c-7.6 0-11.16-3.72-11.16-11.005v-84.63h-16.43v85.56c0 9.765 3.1 15.965 8.215 19.84C11.315-.775 17.67 0 25.265 0zM102.3-40.92c0-13.795-.62-26.35-5.735-33.48-4.805-6.665-11.465-8.525-19.375-8.525s-14.57 1.86-19.375 8.525C52.7-67.27 52.08-54.715 52.08-40.92s.62 26.35 5.735 33.48C62.62-.775 69.285 1.24 77.19 1.24S91.76-.775 96.565-7.44c5.115-7.13 5.735-19.685 5.735-33.48zm-16.43 0c0 12.09-.155 20.46-2.325 24.18a7.46 7.46 0 0 1-6.355 3.255 7.46 7.46 0 0 1-6.355-3.255c-2.17-3.72-2.325-12.09-2.325-24.18s.155-20.305 2.325-24.025a7.6 7.6 0 0 1 6.355-3.41 7.6 7.6 0 0 1 6.355 3.41c2.17 3.72 2.325 11.935 2.325 24.025zm84.32-26.04v-15.965a24.3 24.3 0 0 0-12.71 3.41A24.064 24.064 0 0 0 150.35-73v-8.68h-15.81V0h16.43v-52.855c0-8.835 5.89-14.1 13.64-14.1zm75.33 30.845c-.155-15.345.465-31.93-7.44-40.3-4.805-5.115-10.7-6.51-17.515-6.51-6.665 0-12.555 1.55-17.515 6.51-6.975 6.975-7.6 20.615-7.6 35.5s.62 28.52 7.6 35.495c4.96 4.96 10.075 6.665 17.67 6.665 7.13 0 13.485-1.86 17.67-6.51 4.65-5.115 6.51-11.935 6.82-18.755h-16.275c0 2.48-.775 5.735-2.015 7.285a7.365 7.365 0 0 1-6.2 3.255 7.411 7.411 0 0 1-6.355-3.255c-2.015-2.945-2.48-10.075-2.48-19.375zM229.09-48.2h-17.205c0-8.37.62-14.57 2.48-16.9a7.33 7.33 0 0 1 6.2-3.255 7.33 7.33 0 0 1 6.2 3.255c1.86 2.325 2.325 8.525 2.325 16.9z" transform="translate(960 790)"/></g></svg>