<svg xmlns="http://www.w3.org/2000/svg" viewBox="0 0 816 150"><defs><style>.cls-1{fill:none;opacity:.131}.cls-2{fill:#fff;opacity:.02}</style></defs><g id="Group_2421" data-name="Group 2421" transform="translate(-552 -674)"><path id="Rectangle_3157" data-name="Rectangle 3157" class="cls-1" transform="translate(552 674)" d="M0 0h816v150H0z"/><path id="Path_4771" data-name="Path 4771" class="cls-2" d="M-261.1-55.18c0-21.7.155-37.82-8.06-47.12-4.65-5.27-10.85-9.3-21.39-9.3s-16.74 4.03-21.39 9.3C-320.152-93-320-76.88-320-55.18s-.155 37.82 8.06 47.12c4.65 5.27 10.85 9.3 21.39 9.3s16.74-4.03 21.39-9.3c8.217-9.3 8.06-25.42 8.06-47.12zm-17.36 0c0 20.15-.465 31.31-3.72 36.58-1.55 2.48-4.185 4.185-8.37 4.185s-6.665-1.705-8.215-4.185c-3.255-5.27-3.875-16.43-3.875-36.58s.62-31.31 3.875-36.58c1.55-2.48 4.03-4.185 8.215-4.185s6.82 1.705 8.37 4.185c3.257 5.27 3.722 16.43 3.722 36.58zm99.975 14.26c0-17.67-.31-28.985-5.735-35.65-3.72-4.65-8.37-6.355-14.415-6.355a16.244 16.244 0 0 0-8.215 2.17 19.037 19.037 0 0 0-5.425 5.115v-6.045h-15.81v110.36h16.43V-5.27a15.918 15.918 0 0 0 4.8 4.34 16.243 16.243 0 0 0 8.215 2.17c6.355 0 10.7-1.86 14.415-6.355 5.432-6.665 5.742-18.135 5.742-35.805zm-16.43 0c0 12.09-.155 20.46-2.325 24.18a7.193 7.193 0 0 1-6.2 3.255 7.989 7.989 0 0 1-5.58-2.015c-1.705-1.7-2.635-4.185-2.635-7.75v-35.185c0-3.565.93-6.045 2.635-7.75a8.121 8.121 0 0 1 5.58-2.17 7.338 7.338 0 0 1 6.2 3.41c2.172 3.72 2.327 11.935 2.327 24.025zm96.255 4.805c-.155-15.345.465-31.93-7.44-40.3-4.805-5.115-10.7-6.51-17.515-6.51-6.665 0-12.555 1.55-17.515 6.51-6.975 6.975-7.6 20.615-7.6 35.5s.62 28.52 7.6 35.495c4.96 4.96 10.075 6.665 17.67 6.665 7.13 0 13.485-1.86 17.67-6.51 4.65-5.115 6.51-11.935 6.82-18.755h-16.275c0 2.48-.775 5.735-2.015 7.285a7.365 7.365 0 0 1-6.2 3.255 7.411 7.411 0 0 1-6.355-3.255c-2.015-2.945-2.48-10.075-2.48-19.375zm-16.43-12.09h-17.205c0-8.37.62-14.57 2.48-16.9a7.33 7.33 0 0 1 6.2-3.255 7.33 7.33 0 0 1 6.2 3.255c1.862 2.33 2.327 8.53 2.327 16.905zm84.167-18.755v-15.965a24.3 24.3 0 0 0-12.71 3.41A24.064 24.064 0 0 0-50.763-73v-8.68h-15.81V0h16.43v-52.855c0-8.835 5.89-14.1 13.64-14.1zM43.322 0v-57.66c0-8.835-2.79-14.88-7.13-19.22-4.185-4.34-10.54-6.045-17.36-6.045-6.665 0-13.33 2.79-17.2 6.665-5.12 5.115-6.98 11.16-6.98 17.67h16.43c0-3.41.775-5.735 2.48-7.595a6.857 6.857 0 0 1 5.425-2.325c5.115 0 7.9 3.41 7.9 9.455v11.315h-7.28c-9.455 0-14.725 2.015-18.755 5.58-4.96 4.34-7.595 10.85-7.595 18.29 0 8.215 1.7 14.415 4.96 18.29C2.4-.775 6.742 1.24 13.562 1.24a15.091 15.091 0 0 0 9.3-2.79 20.943 20.943 0 0 0 4.96-5.425V0zm-16.43-24.025c0 6.665-3.72 10.85-8.68 10.85-5.58 0-8.525-4.03-8.525-11.315 0-3.255 1.24-7.285 3.255-9.145 2.325-2.17 4.96-2.48 8.525-2.48h5.425zM108.887 0v-14.725c-7.75 0-11.625-3.41-11.625-11.005v-43.4h11.315v-12.555H97.262v-20.925h-16.43v20.925h-8.37v12.555h8.37v44.33c0 9.61 3.1 15.81 8.215 19.84C94.627-.62 101.137 0 108.887 0zm46.19 0v-79.515h-16.43V0zm.775-92.07v-18.135h-18.135v18.135zm81.685 51.15c0-13.795-.62-26.35-5.735-33.48-4.805-6.665-11.47-8.525-19.375-8.525s-14.57 1.86-19.375 8.525c-5.115 7.13-5.735 19.685-5.735 33.48s.62 26.35 5.735 33.48c4.8 6.665 11.47 8.68 19.375 8.68S227-.775 231.8-7.44c5.117-7.13 5.737-19.685 5.737-33.48zm-16.43 0c0 12.09-.155 20.46-2.325 24.18a7.46 7.46 0 0 1-6.355 3.255 7.46 7.46 0 0 1-6.355-3.255c-2.17-3.72-2.325-12.09-2.325-24.18s.155-20.305 2.325-24.025a7.6 7.6 0 0 1 6.355-3.41 7.6 7.6 0 0 1 6.355 3.41c2.17 3.72 2.325 11.935 2.325 24.025zM318.758 0v-58.9c0-9.455-1.4-13.95-4.65-17.67-3.72-4.34-8.215-6.355-14.88-6.355a16.243 16.243 0 0 0-8.215 2.17 18.918 18.918 0 0 0-5.425 5.115v-6.045h-15.81V0h16.43v-58.745c0-6.355 3.565-9.455 8.06-9.455s8.06 3.1 8.06 9.455V0z" transform="translate(960 790)"/></g></svg>