<svg xmlns="http://www.w3.org/2000/svg" viewBox="0 0 816 150"><defs><style>.cls-1{fill:none;opacity:.174}.cls-2{fill:#202020;opacity:.03}</style></defs><g id="section_strategy" transform="translate(-552 -674)"><path id="Rectangle_3156" data-name="Rectangle 3156" class="cls-1" transform="translate(552 674)" d="M0 0h816v150H0z"/><path id="Path_4367" data-name="Path 4367" class="cls-2" d="M-224.44-30.535c0-18.6-3.565-25.575-16.74-31l-13.02-5.27c-7.75-3.1-9.145-5.89-9.145-14.88 0-4.805.93-8.525 2.945-10.85a9.289 9.289 0 0 1 7.44-3.1c3.72 0 6.2 1.24 7.75 3.255 2.325 2.945 2.635 6.82 2.635 11.78h17.36c0-10.54-2.015-18.445-7.75-24.025-4.495-4.34-11.005-6.665-19.84-6.665-7.9 0-14.105 2.48-18.91 6.665-6.045 5.425-8.99 13.485-8.99 23.4 0 17.05 4.185 23.1 15.345 27.745l13.175 5.425c8.525 3.41 10.385 6.355 10.385 18.135 0 5.89-.62 9.61-2.945 12.245-1.705 2.015-4.34 3.1-8.37 3.1-3.875 0-6.51-1.24-8.06-2.945-2.48-2.79-3.1-6.51-3.1-12.4h-17.36c0 11.625 1.86 18.445 7.13 23.715 4.65 4.65 11.78 7.285 21.39 7.285 9.765 0 17.05-2.945 21.545-7.285 5.58-5.42 7.13-13.015 7.13-24.33zM-160.58 0v-14.725c-7.75 0-11.625-3.41-11.625-11.005v-43.4h11.315v-12.555h-11.315v-20.925h-16.43v20.925H-197v12.555h8.37v44.33c0 9.61 3.1 15.81 8.215 19.84C-174.84-.62-168.33 0-160.58 0zm65.41-66.96v-15.965a24.3 24.3 0 0 0-12.71 3.41A24.064 24.064 0 0 0-115.01-73v-8.68h-15.81V0h16.43v-52.855c0-8.835 5.89-14.1 13.64-14.1zM-20.925 0v-57.66c0-8.835-2.79-14.88-7.13-19.22-4.185-4.34-10.54-6.045-17.36-6.045-6.665 0-13.33 2.79-17.205 6.665-5.115 5.115-6.98 11.16-6.98 17.67h16.43c0-3.41.775-5.735 2.48-7.595a6.857 6.857 0 0 1 5.43-2.325c5.115 0 7.9 3.41 7.9 9.455v11.315h-7.28c-9.455 0-14.725 2.015-18.755 5.58-4.96 4.34-7.6 10.85-7.6 18.29 0 8.215 1.705 14.415 4.96 18.29 4.185 4.8 8.525 6.82 15.345 6.82a15.091 15.091 0 0 0 9.3-2.79 20.943 20.943 0 0 0 4.96-5.425V0zm-16.43-24.025c0 6.665-3.72 10.85-8.68 10.85-5.58 0-8.525-4.03-8.525-11.315 0-3.255 1.24-7.285 3.255-9.145 2.325-2.17 4.96-2.48 8.525-2.48h5.425zM44.64 0v-14.725c-7.75 0-11.625-3.41-11.625-11.005v-43.4H44.33v-12.555H33.015v-20.925h-16.43v20.925h-8.37v12.555h8.37v44.33c0 9.61 3.1 15.81 8.215 19.84C30.38-.62 36.89 0 44.64 0zm77.345-36.115c-.155-15.345.465-31.93-7.44-40.3-4.805-5.115-10.7-6.51-17.515-6.51-6.665 0-12.555 1.55-17.515 6.51-6.975 6.975-7.6 20.615-7.6 35.5s.62 28.52 7.6 35.495c4.96 4.955 10.075 6.66 17.67 6.66 7.13 0 13.485-1.86 17.67-6.51 4.65-5.115 6.51-11.935 6.82-18.755H105.4c0 2.48-.775 5.735-2.015 7.285a7.365 7.365 0 0 1-6.2 3.255 7.411 7.411 0 0 1-6.355-3.255c-2.015-2.945-2.48-10.075-2.48-19.375zM105.555-48.2H88.35c0-8.37.62-14.57 2.48-16.9a7.33 7.33 0 0 1 6.2-3.255 7.33 7.33 0 0 1 6.2 3.255c1.86 2.325 2.325 8.525 2.325 16.9zM201.19 1.55v-83.235h-15.81v5.27a15.918 15.918 0 0 0-4.8-4.34 17.262 17.262 0 0 0-8.37-2.17c-6.975 0-10.385 1.705-14.105 6.045-5.115 6.045-6.51 15.5-6.51 33.015s1.4 26.815 6.51 32.86c3.72 4.34 7.285 6.045 14.105 6.045 3.255 0 5.735-.465 7.9-1.86a18.036 18.036 0 0 0 4.65-4.495v13.95c0 5.115-.62 8.06-2.325 10.075a7.806 7.806 0 0 1-5.89 2.635 7.693 7.693 0 0 1-5.89-2.48c-1.705-2.015-2.325-4.65-2.325-7.75h-16.275c0 6.82 1.86 13.02 6.82 17.98 4.495 4.34 10.85 6.355 17.67 6.355 6.665 0 13.485-2.48 17.67-6.665 4.495-4.495 6.975-10.695 6.975-21.235zm-16.43-30.535c0 3.41-.775 5.735-2.325 7.44a7.821 7.821 0 0 1-5.89 2.325c-2.945 0-4.5-1.24-6.045-3.255-2.48-3.255-2.48-11.16-2.48-21.235s0-17.98 2.48-21.235c1.55-2.015 3.1-3.41 6.045-3.41a7.475 7.475 0 0 1 5.735 2.325c1.55 1.705 2.48 4.185 2.48 7.595zm101.525-52.7H268.15L257.455-26.04 246.6-81.685h-18.13l20.305 81.53-1.4 5.735c-2.015 7.75-7.44 8.37-14.57 8.525v14.57c14.88 0 26.5-1.86 30.535-18.29z" transform="translate(960 790)"/></g></svg>